M48
;DRILL file {kicad (2015-01-16 BZR 5376)-product} date 4/27/2015 10:46:37 PM
;FORMAT={-:-/ absolute / inch / decimal}
FMAT,2
INCH,TZ
T1C0.025
T2C0.032
T3C0.039
T4C0.040
T5C0.130
T6C0.148
%
G90
G05
M72
T1
X2.6Y-2.55
X2.7Y-1.9
X2.7Y-2.55
X2.9Y-2.7
X2.9Y-3.3
X3.Y-2.65
X3.Y-3.4
X3.3Y-1.25
X3.4Y-1.25
X3.5Y-1.25
X3.6Y-1.25
X3.7Y-2.55
X3.8Y-1.9
X3.8Y-2.55
X4.Y-2.7
X4.Y-3.3
X4.1Y-2.65
X4.1Y-3.4
X4.25Y-1.5
X4.3Y-1.9
X4.3Y-2.
X4.45Y-1.4
X4.65Y-2.
X4.75Y-1.9
X4.85Y-1.4
X5.Y-2.55
X5.05Y-1.5
X5.1Y-1.9
X5.1Y-2.55
X5.3Y-2.7
X5.3Y-3.3
X5.4Y-2.65
X5.4Y-3.4
X6.1Y-2.55
X6.2Y-1.9
X6.2Y-2.55
X6.4Y-2.7
X6.4Y-3.3
X6.5Y-2.65
X6.5Y-3.4
X7.4Y-2.55
X7.5Y-1.9
X7.5Y-2.55
X7.7Y-2.7
X7.7Y-3.3
X7.8Y-2.65
X7.8Y-3.4
X8.1Y-2.05
X8.15Y-1.9
X8.4Y-1.
X8.5Y-1.05
X8.5Y-2.55
X8.6Y-1.1
X8.6Y-2.55
X8.7Y-1.15
X8.8Y-1.2
X8.8Y-2.7
X8.8Y-3.3
X8.9Y-1.25
X8.9Y-2.65
X8.9Y-3.4
X9.Y-1.3
T2
X2.3Y-2.15
X2.3Y-2.45
X2.3Y-2.8
X2.3Y-3.2
X2.4Y-2.15
X2.4Y-2.45
X2.4Y-2.8
X2.4Y-3.2
X2.5Y-2.15
X2.5Y-2.45
X2.5Y-2.8
X2.5Y-3.2
X2.6Y-2.15
X2.6Y-2.45
X2.6Y-2.8
X2.6Y-3.2
X2.7Y-2.15
X2.7Y-2.45
X2.7Y-2.8
X2.7Y-3.2
X2.8Y-2.15
X2.8Y-2.45
X2.9Y-2.15
X2.9Y-2.45
X2.9Y-2.8
X2.9Y-3.2
X3.Y-2.15
X3.Y-2.45
X3.Y-2.8
X3.Y-3.2
X3.4Y-2.15
X3.4Y-2.45
X3.4Y-2.8
X3.4Y-3.2
X3.5Y-2.15
X3.5Y-2.45
X3.5Y-2.8
X3.5Y-3.2
X3.6Y-2.15
X3.6Y-2.45
X3.6Y-2.8
X3.6Y-3.2
X3.7Y-2.15
X3.7Y-2.45
X3.7Y-2.8
X3.7Y-3.2
X3.8Y-2.15
X3.8Y-2.45
X3.8Y-2.8
X3.8Y-3.2
X3.9Y-2.15
X3.9Y-2.45
X4.Y-2.15
X4.Y-2.45
X4.Y-2.8
X4.Y-3.2
X4.1Y-2.15
X4.1Y-2.45
X4.1Y-2.8
X4.1Y-3.2
X4.7Y-2.15
X4.7Y-2.45
X4.7Y-2.8
X4.7Y-3.2
X4.8Y-2.15
X4.8Y-2.45
X4.8Y-2.8
X4.8Y-3.2
X4.9Y-2.15
X4.9Y-2.45
X4.9Y-2.8
X4.9Y-3.2
X5.Y-2.15
X5.Y-2.45
X5.Y-2.8
X5.Y-3.2
X5.1Y-2.15
X5.1Y-2.45
X5.1Y-2.8
X5.1Y-3.2
X5.2Y-2.15
X5.2Y-2.45
X5.3Y-2.15
X5.3Y-2.45
X5.3Y-2.8
X5.3Y-3.2
X5.4Y-2.15
X5.4Y-2.45
X5.4Y-2.8
X5.4Y-3.2
X5.8Y-2.15
X5.8Y-2.45
X5.8Y-2.8
X5.8Y-3.2
X5.9Y-2.15
X5.9Y-2.45
X5.9Y-2.8
X5.9Y-3.2
X6.Y-2.15
X6.Y-2.45
X6.Y-2.8
X6.Y-3.2
X6.1Y-2.15
X6.1Y-2.45
X6.1Y-2.8
X6.1Y-3.2
X6.2Y-2.15
X6.2Y-2.45
X6.2Y-2.8
X6.2Y-3.2
X6.3Y-2.15
X6.3Y-2.45
X6.4Y-2.15
X6.4Y-2.45
X6.4Y-2.8
X6.4Y-3.2
X6.5Y-2.15
X6.5Y-2.45
X6.5Y-2.8
X6.5Y-3.2
X7.1Y-2.15
X7.1Y-2.45
X7.1Y-2.8
X7.1Y-3.2
X7.2Y-2.15
X7.2Y-2.45
X7.2Y-2.8
X7.2Y-3.2
X7.3Y-2.15
X7.3Y-2.45
X7.3Y-2.8
X7.3Y-3.2
X7.4Y-2.15
X7.4Y-2.45
X7.4Y-2.8
X7.4Y-3.2
X7.5Y-2.15
X7.5Y-2.45
X7.5Y-2.8
X7.5Y-3.2
X7.6Y-2.15
X7.6Y-2.45
X7.7Y-2.15
X7.7Y-2.45
X7.7Y-2.8
X7.7Y-3.2
X7.8Y-2.15
X7.8Y-2.45
X7.8Y-2.8
X7.8Y-3.2
X8.2Y-2.15
X8.2Y-2.45
X8.2Y-2.8
X8.2Y-3.2
X8.3Y-2.15
X8.3Y-2.45
X8.3Y-2.8
X8.3Y-3.2
X8.4Y-1.4
X8.4Y-1.8
X8.4Y-2.15
X8.4Y-2.45
X8.4Y-2.8
X8.4Y-3.2
X8.5Y-1.4
X8.5Y-1.8
X8.5Y-2.15
X8.5Y-2.45
X8.5Y-2.8
X8.5Y-3.2
X8.6Y-1.4
X8.6Y-1.8
X8.6Y-2.15
X8.6Y-2.45
X8.6Y-2.8
X8.6Y-3.2
X8.7Y-1.4
X8.7Y-1.8
X8.7Y-2.15
X8.7Y-2.45
X8.8Y-1.4
X8.8Y-1.8
X8.8Y-2.15
X8.8Y-2.45
X8.8Y-2.8
X8.8Y-3.2
X8.9Y-1.4
X8.9Y-1.8
X8.9Y-2.15
X8.9Y-2.45
X8.9Y-2.8
X8.9Y-3.2
X9.Y-1.4
X9.Y-1.8
T3
X2.6Y-3.5
X2.6Y-4.7
X2.7Y-3.5
X2.7Y-4.7
X2.8Y-3.5
X2.8Y-4.7
X2.9Y-3.5
X2.9Y-4.7
X3.Y-3.5
X3.Y-4.7
X3.7Y-3.5
X3.7Y-4.7
X3.8Y-3.5
X3.8Y-4.7
X3.9Y-3.5
X3.9Y-4.7
X4.Y-3.5
X4.Y-4.7
X4.1Y-3.5
X4.1Y-4.7
X5.Y-3.5
X5.Y-4.7
X5.1Y-3.5
X5.1Y-4.7
X5.2Y-3.5
X5.2Y-4.7
X5.3Y-3.5
X5.3Y-4.7
X5.4Y-3.5
X5.4Y-4.7
X6.1Y-3.5
X6.1Y-4.7
X6.2Y-3.5
X6.2Y-4.7
X6.3Y-3.5
X6.3Y-4.7
X6.4Y-3.5
X6.4Y-4.7
X6.5Y-3.5
X6.5Y-4.7
X7.4Y-3.5
X7.4Y-4.7
X7.5Y-3.5
X7.5Y-4.7
X7.6Y-3.5
X7.6Y-4.7
X7.7Y-3.5
X7.7Y-4.7
X7.8Y-3.5
X7.8Y-4.7
X8.5Y-3.5
X8.5Y-4.7
X8.6Y-3.5
X8.6Y-4.7
X8.7Y-3.5
X8.7Y-4.7
X8.8Y-3.5
X8.8Y-4.7
X8.9Y-3.5
X8.9Y-4.7
T4
X2.1Y-1.4
X2.7Y-0.9
X2.7Y-1.
X2.7Y-1.1
X2.7Y-1.2
X2.7Y-1.3
X2.7Y-1.4
X2.7Y-1.5
X4.75Y-1.15
X4.75Y-1.25
X4.85Y-1.15
X4.85Y-1.25
X4.95Y-1.15
X4.95Y-1.25
X5.05Y-1.15
X5.05Y-1.25
X5.15Y-1.15
X5.15Y-1.25
X5.25Y-1.15
X5.25Y-1.25
X5.35Y-1.15
X5.35Y-1.25
X5.45Y-1.15
X5.45Y-1.25
X5.55Y-1.15
X5.55Y-1.25
X5.65Y-1.15
X5.65Y-1.25
X5.75Y-1.15
X5.75Y-1.25
X5.85Y-1.15
X5.85Y-1.25
X5.95Y-1.15
X5.95Y-1.25
X6.05Y-1.15
X6.05Y-1.25
X6.15Y-1.15
X6.15Y-1.25
X6.25Y-1.15
X6.25Y-1.25
X6.35Y-1.15
X6.35Y-1.25
X6.45Y-1.15
X6.45Y-1.25
X6.55Y-1.15
X6.55Y-1.25
X6.65Y-1.15
X6.65Y-1.25
X8.4Y-0.8
X8.4Y-0.9
X8.5Y-0.8
X8.5Y-0.9
X8.6Y-0.8
X8.6Y-0.9
X8.7Y-0.8
X8.7Y-0.9
X8.8Y-0.8
X8.8Y-0.9
X8.9Y-0.8
X8.9Y-0.9
X9.Y-0.8
X9.Y-0.9
T5
X2.1Y-0.95
X2.1Y-4.75
X9.422Y-1.761
X9.422Y-2.561
X9.55Y-0.95
X9.55Y-1.95
X9.55Y-2.75
X9.55Y-4.75
T6
X9.304Y-1.95
X9.304Y-2.75
T0
M30
