G04 #@! TF.FileFunction,Soldermask,Top*
%FSLAX46Y46*%
G04 Gerber Fmt 4.6, Leading zero omitted, Abs format (unit mm)*
G04 Created by KiCad (PCBNEW (2015-01-16 BZR 5376)-product) date 4/27/2015 10:46:34 PM*
%MOMM*%
G01*
G04 APERTURE LIST*
%ADD10C,0.100000*%
%ADD11R,1.727200X1.727200*%
%ADD12O,1.727200X1.727200*%
%ADD13R,2.235200X2.235200*%
%ADD14R,2.032000X1.727200*%
%ADD15O,2.032000X1.727200*%
%ADD16C,1.524000*%
%ADD17C,2.032000*%
%ADD18R,1.397000X1.397000*%
%ADD19C,1.397000*%
%ADD20C,5.080000*%
%ADD21C,5.334000*%
%ADD22C,4.826000*%
%ADD23C,6.350000*%
G04 APERTURE END LIST*
D10*
D11*
X120650000Y-29210000D03*
D12*
X120650000Y-31750000D03*
X123190000Y-29210000D03*
X123190000Y-31750000D03*
X125730000Y-29210000D03*
X125730000Y-31750000D03*
X128270000Y-29210000D03*
X128270000Y-31750000D03*
X130810000Y-29210000D03*
X130810000Y-31750000D03*
X133350000Y-29210000D03*
X133350000Y-31750000D03*
X135890000Y-29210000D03*
X135890000Y-31750000D03*
X138430000Y-29210000D03*
X138430000Y-31750000D03*
X140970000Y-29210000D03*
X140970000Y-31750000D03*
X143510000Y-29210000D03*
X143510000Y-31750000D03*
X146050000Y-29210000D03*
X146050000Y-31750000D03*
X148590000Y-29210000D03*
X148590000Y-31750000D03*
X151130000Y-29210000D03*
X151130000Y-31750000D03*
X153670000Y-29210000D03*
X153670000Y-31750000D03*
X156210000Y-29210000D03*
X156210000Y-31750000D03*
X158750000Y-29210000D03*
X158750000Y-31750000D03*
X161290000Y-29210000D03*
X161290000Y-31750000D03*
X163830000Y-29210000D03*
X163830000Y-31750000D03*
X166370000Y-29210000D03*
X166370000Y-31750000D03*
X168910000Y-29210000D03*
X168910000Y-31750000D03*
D11*
X213360000Y-22860000D03*
D12*
X213360000Y-20320000D03*
X215900000Y-22860000D03*
X215900000Y-20320000D03*
X218440000Y-22860000D03*
X218440000Y-20320000D03*
X220980000Y-22860000D03*
X220980000Y-20320000D03*
X223520000Y-22860000D03*
X223520000Y-20320000D03*
X226060000Y-22860000D03*
X226060000Y-20320000D03*
X228600000Y-22860000D03*
X228600000Y-20320000D03*
D13*
X53340000Y-35560000D03*
D14*
X68580000Y-22860000D03*
D15*
X68580000Y-25400000D03*
X68580000Y-27940000D03*
X68580000Y-30480000D03*
X68580000Y-33020000D03*
X68580000Y-35560000D03*
X68580000Y-38100000D03*
D16*
X63500000Y-81280000D03*
X63500000Y-71120000D03*
X68580000Y-81280000D03*
X68580000Y-71120000D03*
X60960000Y-81280000D03*
X60960000Y-71120000D03*
X66040000Y-81280000D03*
X66040000Y-71120000D03*
X58420000Y-81280000D03*
X58420000Y-71120000D03*
X76200000Y-81280000D03*
X76200000Y-71120000D03*
X73660000Y-81280000D03*
X73660000Y-71120000D03*
X228600000Y-45720000D03*
X228600000Y-35560000D03*
X226060000Y-45720000D03*
X226060000Y-35560000D03*
X223520000Y-45720000D03*
X223520000Y-35560000D03*
X220980000Y-45720000D03*
X220980000Y-35560000D03*
X218440000Y-45720000D03*
X218440000Y-35560000D03*
X215900000Y-45720000D03*
X215900000Y-35560000D03*
X213360000Y-45720000D03*
X213360000Y-35560000D03*
X91440000Y-81280000D03*
X91440000Y-71120000D03*
X96520000Y-81280000D03*
X96520000Y-71120000D03*
X88900000Y-81280000D03*
X88900000Y-71120000D03*
X93980000Y-81280000D03*
X93980000Y-71120000D03*
X86360000Y-81280000D03*
X86360000Y-71120000D03*
X104140000Y-81280000D03*
X104140000Y-71120000D03*
X101600000Y-81280000D03*
X101600000Y-71120000D03*
X124460000Y-81280000D03*
X124460000Y-71120000D03*
X129540000Y-81280000D03*
X129540000Y-71120000D03*
X121920000Y-81280000D03*
X121920000Y-71120000D03*
X127000000Y-81280000D03*
X127000000Y-71120000D03*
X119380000Y-81280000D03*
X119380000Y-71120000D03*
X137160000Y-81280000D03*
X137160000Y-71120000D03*
X134620000Y-81280000D03*
X134620000Y-71120000D03*
X152400000Y-81280000D03*
X152400000Y-71120000D03*
X157480000Y-81280000D03*
X157480000Y-71120000D03*
X149860000Y-81280000D03*
X149860000Y-71120000D03*
X154940000Y-81280000D03*
X154940000Y-71120000D03*
X147320000Y-81280000D03*
X147320000Y-71120000D03*
X165100000Y-81280000D03*
X165100000Y-71120000D03*
X162560000Y-81280000D03*
X162560000Y-71120000D03*
X185420000Y-81280000D03*
X185420000Y-71120000D03*
X190500000Y-81280000D03*
X190500000Y-71120000D03*
X182880000Y-81280000D03*
X182880000Y-71120000D03*
X187960000Y-81280000D03*
X187960000Y-71120000D03*
X180340000Y-81280000D03*
X180340000Y-71120000D03*
X198120000Y-81280000D03*
X198120000Y-71120000D03*
X195580000Y-81280000D03*
X195580000Y-71120000D03*
X213360000Y-81280000D03*
X213360000Y-71120000D03*
X218440000Y-81280000D03*
X218440000Y-71120000D03*
X210820000Y-81280000D03*
X210820000Y-71120000D03*
X215900000Y-81280000D03*
X215900000Y-71120000D03*
X208280000Y-81280000D03*
X208280000Y-71120000D03*
X226060000Y-81280000D03*
X226060000Y-71120000D03*
X223520000Y-81280000D03*
X223520000Y-71120000D03*
D17*
X66040000Y-119380000D03*
X68580000Y-119380000D03*
X71120000Y-119380000D03*
X73660000Y-119380000D03*
X76200000Y-119380000D03*
X76200000Y-88900000D03*
X73660000Y-88900000D03*
X71120000Y-88900000D03*
X68580000Y-88900000D03*
X66040000Y-88900000D03*
D18*
X76200000Y-54610000D03*
D19*
X73660000Y-54610000D03*
X71120000Y-54610000D03*
X68580000Y-54610000D03*
X66040000Y-54610000D03*
X63500000Y-54610000D03*
X60960000Y-54610000D03*
X58420000Y-54610000D03*
X58420000Y-62230000D03*
X60960000Y-62230000D03*
X63500000Y-62230000D03*
X66040000Y-62230000D03*
X68580000Y-62230000D03*
X71120000Y-62230000D03*
X73660000Y-62230000D03*
X76200000Y-62230000D03*
D17*
X93980000Y-119380000D03*
X96520000Y-119380000D03*
X99060000Y-119380000D03*
X101600000Y-119380000D03*
X104140000Y-119380000D03*
X104140000Y-88900000D03*
X101600000Y-88900000D03*
X99060000Y-88900000D03*
X96520000Y-88900000D03*
X93980000Y-88900000D03*
D18*
X104140000Y-54610000D03*
D19*
X101600000Y-54610000D03*
X99060000Y-54610000D03*
X96520000Y-54610000D03*
X93980000Y-54610000D03*
X91440000Y-54610000D03*
X88900000Y-54610000D03*
X86360000Y-54610000D03*
X86360000Y-62230000D03*
X88900000Y-62230000D03*
X91440000Y-62230000D03*
X93980000Y-62230000D03*
X96520000Y-62230000D03*
X99060000Y-62230000D03*
X101600000Y-62230000D03*
X104140000Y-62230000D03*
D17*
X127000000Y-119380000D03*
X129540000Y-119380000D03*
X132080000Y-119380000D03*
X134620000Y-119380000D03*
X137160000Y-119380000D03*
X137160000Y-88900000D03*
X134620000Y-88900000D03*
X132080000Y-88900000D03*
X129540000Y-88900000D03*
X127000000Y-88900000D03*
D18*
X137160000Y-54610000D03*
D19*
X134620000Y-54610000D03*
X132080000Y-54610000D03*
X129540000Y-54610000D03*
X127000000Y-54610000D03*
X124460000Y-54610000D03*
X121920000Y-54610000D03*
X119380000Y-54610000D03*
X119380000Y-62230000D03*
X121920000Y-62230000D03*
X124460000Y-62230000D03*
X127000000Y-62230000D03*
X129540000Y-62230000D03*
X132080000Y-62230000D03*
X134620000Y-62230000D03*
X137160000Y-62230000D03*
D17*
X154940000Y-119380000D03*
X157480000Y-119380000D03*
X160020000Y-119380000D03*
X162560000Y-119380000D03*
X165100000Y-119380000D03*
X165100000Y-88900000D03*
X162560000Y-88900000D03*
X160020000Y-88900000D03*
X157480000Y-88900000D03*
X154940000Y-88900000D03*
D18*
X165100000Y-54610000D03*
D19*
X162560000Y-54610000D03*
X160020000Y-54610000D03*
X157480000Y-54610000D03*
X154940000Y-54610000D03*
X152400000Y-54610000D03*
X149860000Y-54610000D03*
X147320000Y-54610000D03*
X147320000Y-62230000D03*
X149860000Y-62230000D03*
X152400000Y-62230000D03*
X154940000Y-62230000D03*
X157480000Y-62230000D03*
X160020000Y-62230000D03*
X162560000Y-62230000D03*
X165100000Y-62230000D03*
D17*
X187960000Y-119380000D03*
X190500000Y-119380000D03*
X193040000Y-119380000D03*
X195580000Y-119380000D03*
X198120000Y-119380000D03*
X198120000Y-88900000D03*
X195580000Y-88900000D03*
X193040000Y-88900000D03*
X190500000Y-88900000D03*
X187960000Y-88900000D03*
D18*
X198120000Y-54610000D03*
D19*
X195580000Y-54610000D03*
X193040000Y-54610000D03*
X190500000Y-54610000D03*
X187960000Y-54610000D03*
X185420000Y-54610000D03*
X182880000Y-54610000D03*
X180340000Y-54610000D03*
X180340000Y-62230000D03*
X182880000Y-62230000D03*
X185420000Y-62230000D03*
X187960000Y-62230000D03*
X190500000Y-62230000D03*
X193040000Y-62230000D03*
X195580000Y-62230000D03*
X198120000Y-62230000D03*
D17*
X215900000Y-119380000D03*
X218440000Y-119380000D03*
X220980000Y-119380000D03*
X223520000Y-119380000D03*
X226060000Y-119380000D03*
X226060000Y-88900000D03*
X223520000Y-88900000D03*
X220980000Y-88900000D03*
X218440000Y-88900000D03*
X215900000Y-88900000D03*
D18*
X226060000Y-54610000D03*
D19*
X223520000Y-54610000D03*
X220980000Y-54610000D03*
X218440000Y-54610000D03*
X215900000Y-54610000D03*
X213360000Y-54610000D03*
X210820000Y-54610000D03*
X208280000Y-54610000D03*
X208280000Y-62230000D03*
X210820000Y-62230000D03*
X213360000Y-62230000D03*
X215900000Y-62230000D03*
X218440000Y-62230000D03*
X220980000Y-62230000D03*
X223520000Y-62230000D03*
X226060000Y-62230000D03*
D20*
X242570000Y-49530000D03*
D21*
X236321600Y-49530000D03*
D22*
X239318800Y-44729400D03*
D20*
X242570000Y-69850000D03*
D21*
X236321600Y-69850000D03*
D22*
X239318800Y-65049400D03*
D23*
X242570000Y-120650000D03*
X53340000Y-120650000D03*
X53340000Y-24130000D03*
X242570000Y-24130000D03*
M02*
