G04 #@! TF.FileFunction,Legend,Top*
%FSLAX46Y46*%
G04 Gerber Fmt 4.6, Leading zero omitted, Abs format (unit mm)*
G04 Created by KiCad (PCBNEW (2015-01-16 BZR 5376)-product) date 4/27/2015 10:46:34 PM*
%MOMM*%
G01*
G04 APERTURE LIST*
%ADD10C,0.100000*%
%ADD11C,0.300000*%
%ADD12C,0.200000*%
%ADD13C,0.150000*%
G04 APERTURE END LIST*
D10*
D11*
X213788572Y-28618571D02*
X212931429Y-28618571D01*
X213360001Y-28618571D02*
X213360001Y-27118571D01*
X213217144Y-27332857D01*
X213074286Y-27475714D01*
X212931429Y-27547143D01*
X121078572Y-26078571D02*
X120221429Y-26078571D01*
X120650001Y-26078571D02*
X120650001Y-24578571D01*
X120507144Y-24792857D01*
X120364286Y-24935714D01*
X120221429Y-25007143D01*
X192310000Y-20768571D02*
X192667143Y-22268571D01*
X192952857Y-21197143D01*
X193238571Y-22268571D01*
X193595714Y-20768571D01*
X194881429Y-22268571D02*
X194167143Y-22268571D01*
X194167143Y-20768571D01*
X195381429Y-22268571D02*
X195381429Y-20768571D01*
X195738572Y-20768571D01*
X195952857Y-20840000D01*
X196095715Y-20982857D01*
X196167143Y-21125714D01*
X196238572Y-21411429D01*
X196238572Y-21625714D01*
X196167143Y-21911429D01*
X196095715Y-22054286D01*
X195952857Y-22197143D01*
X195738572Y-22268571D01*
X195381429Y-22268571D01*
X240085715Y-33468571D02*
X240585715Y-34968571D01*
X241085715Y-33468571D01*
X242371429Y-34968571D02*
X241514286Y-34968571D01*
X241942858Y-34968571D02*
X241942858Y-33468571D01*
X241800001Y-33682857D01*
X241657143Y-33825714D01*
X241514286Y-33897143D01*
D12*
X86360000Y-20320000D02*
X66040000Y-20320000D01*
X86360000Y-40640000D02*
X86360000Y-20320000D01*
X66040000Y-40640000D02*
X86360000Y-40640000D01*
X66040000Y-20320000D02*
X66040000Y-40640000D01*
D13*
X229870000Y-19050000D02*
X212090000Y-19050000D01*
X214630000Y-24130000D02*
X229870000Y-24130000D01*
X229870000Y-19050000D02*
X229870000Y-24130000D01*
X212090000Y-19050000D02*
X212090000Y-21590000D01*
X211810000Y-22860000D02*
X211810000Y-24410000D01*
X212090000Y-21590000D02*
X214630000Y-21590000D01*
X214630000Y-21590000D02*
X214630000Y-24130000D01*
X211810000Y-24410000D02*
X213360000Y-24410000D01*
X54890000Y-34010000D02*
X54890000Y-35560000D01*
X51790000Y-35560000D02*
X51790000Y-34010000D01*
X51790000Y-34010000D02*
X54890000Y-34010000D01*
X52070000Y-36830000D02*
X54610000Y-36830000D01*
X69850000Y-24130000D02*
X69850000Y-39370000D01*
X69850000Y-39370000D02*
X67310000Y-39370000D01*
X67310000Y-39370000D02*
X67310000Y-24130000D01*
X70130000Y-21310000D02*
X70130000Y-22860000D01*
X69850000Y-24130000D02*
X67310000Y-24130000D01*
X67030000Y-22860000D02*
X67030000Y-21310000D01*
X67030000Y-21310000D02*
X70130000Y-21310000D01*
X63500000Y-81280000D02*
X63500000Y-80264000D01*
X63500000Y-80264000D02*
X62484000Y-80264000D01*
X62484000Y-80264000D02*
X62484000Y-72136000D01*
X62484000Y-72136000D02*
X64516000Y-72136000D01*
X64516000Y-72136000D02*
X64516000Y-80264000D01*
X64516000Y-80264000D02*
X63500000Y-80264000D01*
X62992000Y-80264000D02*
X62484000Y-79756000D01*
X63500000Y-71120000D02*
X63500000Y-72136000D01*
X68580000Y-81280000D02*
X68580000Y-80264000D01*
X68580000Y-80264000D02*
X67564000Y-80264000D01*
X67564000Y-80264000D02*
X67564000Y-72136000D01*
X67564000Y-72136000D02*
X69596000Y-72136000D01*
X69596000Y-72136000D02*
X69596000Y-80264000D01*
X69596000Y-80264000D02*
X68580000Y-80264000D01*
X68072000Y-80264000D02*
X67564000Y-79756000D01*
X68580000Y-71120000D02*
X68580000Y-72136000D01*
X60960000Y-81280000D02*
X60960000Y-80264000D01*
X60960000Y-80264000D02*
X59944000Y-80264000D01*
X59944000Y-80264000D02*
X59944000Y-72136000D01*
X59944000Y-72136000D02*
X61976000Y-72136000D01*
X61976000Y-72136000D02*
X61976000Y-80264000D01*
X61976000Y-80264000D02*
X60960000Y-80264000D01*
X60452000Y-80264000D02*
X59944000Y-79756000D01*
X60960000Y-71120000D02*
X60960000Y-72136000D01*
X66040000Y-81280000D02*
X66040000Y-80264000D01*
X66040000Y-80264000D02*
X65024000Y-80264000D01*
X65024000Y-80264000D02*
X65024000Y-72136000D01*
X65024000Y-72136000D02*
X67056000Y-72136000D01*
X67056000Y-72136000D02*
X67056000Y-80264000D01*
X67056000Y-80264000D02*
X66040000Y-80264000D01*
X65532000Y-80264000D02*
X65024000Y-79756000D01*
X66040000Y-71120000D02*
X66040000Y-72136000D01*
X58420000Y-81280000D02*
X58420000Y-80264000D01*
X58420000Y-80264000D02*
X57404000Y-80264000D01*
X57404000Y-80264000D02*
X57404000Y-72136000D01*
X57404000Y-72136000D02*
X59436000Y-72136000D01*
X59436000Y-72136000D02*
X59436000Y-80264000D01*
X59436000Y-80264000D02*
X58420000Y-80264000D01*
X57912000Y-80264000D02*
X57404000Y-79756000D01*
X58420000Y-71120000D02*
X58420000Y-72136000D01*
X76200000Y-81280000D02*
X76200000Y-80264000D01*
X76200000Y-80264000D02*
X75184000Y-80264000D01*
X75184000Y-80264000D02*
X75184000Y-72136000D01*
X75184000Y-72136000D02*
X77216000Y-72136000D01*
X77216000Y-72136000D02*
X77216000Y-80264000D01*
X77216000Y-80264000D02*
X76200000Y-80264000D01*
X75692000Y-80264000D02*
X75184000Y-79756000D01*
X76200000Y-71120000D02*
X76200000Y-72136000D01*
X73660000Y-81280000D02*
X73660000Y-80264000D01*
X73660000Y-80264000D02*
X72644000Y-80264000D01*
X72644000Y-80264000D02*
X72644000Y-72136000D01*
X72644000Y-72136000D02*
X74676000Y-72136000D01*
X74676000Y-72136000D02*
X74676000Y-80264000D01*
X74676000Y-80264000D02*
X73660000Y-80264000D01*
X73152000Y-80264000D02*
X72644000Y-79756000D01*
X73660000Y-71120000D02*
X73660000Y-72136000D01*
X228600000Y-45720000D02*
X228600000Y-44704000D01*
X228600000Y-44704000D02*
X227584000Y-44704000D01*
X227584000Y-44704000D02*
X227584000Y-36576000D01*
X227584000Y-36576000D02*
X229616000Y-36576000D01*
X229616000Y-36576000D02*
X229616000Y-44704000D01*
X229616000Y-44704000D02*
X228600000Y-44704000D01*
X228092000Y-44704000D02*
X227584000Y-44196000D01*
X228600000Y-35560000D02*
X228600000Y-36576000D01*
X226060000Y-45720000D02*
X226060000Y-44704000D01*
X226060000Y-44704000D02*
X225044000Y-44704000D01*
X225044000Y-44704000D02*
X225044000Y-36576000D01*
X225044000Y-36576000D02*
X227076000Y-36576000D01*
X227076000Y-36576000D02*
X227076000Y-44704000D01*
X227076000Y-44704000D02*
X226060000Y-44704000D01*
X225552000Y-44704000D02*
X225044000Y-44196000D01*
X226060000Y-35560000D02*
X226060000Y-36576000D01*
X223520000Y-45720000D02*
X223520000Y-44704000D01*
X223520000Y-44704000D02*
X222504000Y-44704000D01*
X222504000Y-44704000D02*
X222504000Y-36576000D01*
X222504000Y-36576000D02*
X224536000Y-36576000D01*
X224536000Y-36576000D02*
X224536000Y-44704000D01*
X224536000Y-44704000D02*
X223520000Y-44704000D01*
X223012000Y-44704000D02*
X222504000Y-44196000D01*
X223520000Y-35560000D02*
X223520000Y-36576000D01*
X220980000Y-45720000D02*
X220980000Y-44704000D01*
X220980000Y-44704000D02*
X219964000Y-44704000D01*
X219964000Y-44704000D02*
X219964000Y-36576000D01*
X219964000Y-36576000D02*
X221996000Y-36576000D01*
X221996000Y-36576000D02*
X221996000Y-44704000D01*
X221996000Y-44704000D02*
X220980000Y-44704000D01*
X220472000Y-44704000D02*
X219964000Y-44196000D01*
X220980000Y-35560000D02*
X220980000Y-36576000D01*
X218440000Y-45720000D02*
X218440000Y-44704000D01*
X218440000Y-44704000D02*
X217424000Y-44704000D01*
X217424000Y-44704000D02*
X217424000Y-36576000D01*
X217424000Y-36576000D02*
X219456000Y-36576000D01*
X219456000Y-36576000D02*
X219456000Y-44704000D01*
X219456000Y-44704000D02*
X218440000Y-44704000D01*
X217932000Y-44704000D02*
X217424000Y-44196000D01*
X218440000Y-35560000D02*
X218440000Y-36576000D01*
X215900000Y-45720000D02*
X215900000Y-44704000D01*
X215900000Y-44704000D02*
X214884000Y-44704000D01*
X214884000Y-44704000D02*
X214884000Y-36576000D01*
X214884000Y-36576000D02*
X216916000Y-36576000D01*
X216916000Y-36576000D02*
X216916000Y-44704000D01*
X216916000Y-44704000D02*
X215900000Y-44704000D01*
X215392000Y-44704000D02*
X214884000Y-44196000D01*
X215900000Y-35560000D02*
X215900000Y-36576000D01*
X213360000Y-45720000D02*
X213360000Y-44704000D01*
X213360000Y-44704000D02*
X212344000Y-44704000D01*
X212344000Y-44704000D02*
X212344000Y-36576000D01*
X212344000Y-36576000D02*
X214376000Y-36576000D01*
X214376000Y-36576000D02*
X214376000Y-44704000D01*
X214376000Y-44704000D02*
X213360000Y-44704000D01*
X212852000Y-44704000D02*
X212344000Y-44196000D01*
X213360000Y-35560000D02*
X213360000Y-36576000D01*
X91440000Y-81280000D02*
X91440000Y-80264000D01*
X91440000Y-80264000D02*
X90424000Y-80264000D01*
X90424000Y-80264000D02*
X90424000Y-72136000D01*
X90424000Y-72136000D02*
X92456000Y-72136000D01*
X92456000Y-72136000D02*
X92456000Y-80264000D01*
X92456000Y-80264000D02*
X91440000Y-80264000D01*
X90932000Y-80264000D02*
X90424000Y-79756000D01*
X91440000Y-71120000D02*
X91440000Y-72136000D01*
X96520000Y-81280000D02*
X96520000Y-80264000D01*
X96520000Y-80264000D02*
X95504000Y-80264000D01*
X95504000Y-80264000D02*
X95504000Y-72136000D01*
X95504000Y-72136000D02*
X97536000Y-72136000D01*
X97536000Y-72136000D02*
X97536000Y-80264000D01*
X97536000Y-80264000D02*
X96520000Y-80264000D01*
X96012000Y-80264000D02*
X95504000Y-79756000D01*
X96520000Y-71120000D02*
X96520000Y-72136000D01*
X88900000Y-81280000D02*
X88900000Y-80264000D01*
X88900000Y-80264000D02*
X87884000Y-80264000D01*
X87884000Y-80264000D02*
X87884000Y-72136000D01*
X87884000Y-72136000D02*
X89916000Y-72136000D01*
X89916000Y-72136000D02*
X89916000Y-80264000D01*
X89916000Y-80264000D02*
X88900000Y-80264000D01*
X88392000Y-80264000D02*
X87884000Y-79756000D01*
X88900000Y-71120000D02*
X88900000Y-72136000D01*
X93980000Y-81280000D02*
X93980000Y-80264000D01*
X93980000Y-80264000D02*
X92964000Y-80264000D01*
X92964000Y-80264000D02*
X92964000Y-72136000D01*
X92964000Y-72136000D02*
X94996000Y-72136000D01*
X94996000Y-72136000D02*
X94996000Y-80264000D01*
X94996000Y-80264000D02*
X93980000Y-80264000D01*
X93472000Y-80264000D02*
X92964000Y-79756000D01*
X93980000Y-71120000D02*
X93980000Y-72136000D01*
X86360000Y-81280000D02*
X86360000Y-80264000D01*
X86360000Y-80264000D02*
X85344000Y-80264000D01*
X85344000Y-80264000D02*
X85344000Y-72136000D01*
X85344000Y-72136000D02*
X87376000Y-72136000D01*
X87376000Y-72136000D02*
X87376000Y-80264000D01*
X87376000Y-80264000D02*
X86360000Y-80264000D01*
X85852000Y-80264000D02*
X85344000Y-79756000D01*
X86360000Y-71120000D02*
X86360000Y-72136000D01*
X104140000Y-81280000D02*
X104140000Y-80264000D01*
X104140000Y-80264000D02*
X103124000Y-80264000D01*
X103124000Y-80264000D02*
X103124000Y-72136000D01*
X103124000Y-72136000D02*
X105156000Y-72136000D01*
X105156000Y-72136000D02*
X105156000Y-80264000D01*
X105156000Y-80264000D02*
X104140000Y-80264000D01*
X103632000Y-80264000D02*
X103124000Y-79756000D01*
X104140000Y-71120000D02*
X104140000Y-72136000D01*
X101600000Y-81280000D02*
X101600000Y-80264000D01*
X101600000Y-80264000D02*
X100584000Y-80264000D01*
X100584000Y-80264000D02*
X100584000Y-72136000D01*
X100584000Y-72136000D02*
X102616000Y-72136000D01*
X102616000Y-72136000D02*
X102616000Y-80264000D01*
X102616000Y-80264000D02*
X101600000Y-80264000D01*
X101092000Y-80264000D02*
X100584000Y-79756000D01*
X101600000Y-71120000D02*
X101600000Y-72136000D01*
X124460000Y-81280000D02*
X124460000Y-80264000D01*
X124460000Y-80264000D02*
X123444000Y-80264000D01*
X123444000Y-80264000D02*
X123444000Y-72136000D01*
X123444000Y-72136000D02*
X125476000Y-72136000D01*
X125476000Y-72136000D02*
X125476000Y-80264000D01*
X125476000Y-80264000D02*
X124460000Y-80264000D01*
X123952000Y-80264000D02*
X123444000Y-79756000D01*
X124460000Y-71120000D02*
X124460000Y-72136000D01*
X129540000Y-81280000D02*
X129540000Y-80264000D01*
X129540000Y-80264000D02*
X128524000Y-80264000D01*
X128524000Y-80264000D02*
X128524000Y-72136000D01*
X128524000Y-72136000D02*
X130556000Y-72136000D01*
X130556000Y-72136000D02*
X130556000Y-80264000D01*
X130556000Y-80264000D02*
X129540000Y-80264000D01*
X129032000Y-80264000D02*
X128524000Y-79756000D01*
X129540000Y-71120000D02*
X129540000Y-72136000D01*
X121920000Y-81280000D02*
X121920000Y-80264000D01*
X121920000Y-80264000D02*
X120904000Y-80264000D01*
X120904000Y-80264000D02*
X120904000Y-72136000D01*
X120904000Y-72136000D02*
X122936000Y-72136000D01*
X122936000Y-72136000D02*
X122936000Y-80264000D01*
X122936000Y-80264000D02*
X121920000Y-80264000D01*
X121412000Y-80264000D02*
X120904000Y-79756000D01*
X121920000Y-71120000D02*
X121920000Y-72136000D01*
X127000000Y-81280000D02*
X127000000Y-80264000D01*
X127000000Y-80264000D02*
X125984000Y-80264000D01*
X125984000Y-80264000D02*
X125984000Y-72136000D01*
X125984000Y-72136000D02*
X128016000Y-72136000D01*
X128016000Y-72136000D02*
X128016000Y-80264000D01*
X128016000Y-80264000D02*
X127000000Y-80264000D01*
X126492000Y-80264000D02*
X125984000Y-79756000D01*
X127000000Y-71120000D02*
X127000000Y-72136000D01*
X119380000Y-81280000D02*
X119380000Y-80264000D01*
X119380000Y-80264000D02*
X118364000Y-80264000D01*
X118364000Y-80264000D02*
X118364000Y-72136000D01*
X118364000Y-72136000D02*
X120396000Y-72136000D01*
X120396000Y-72136000D02*
X120396000Y-80264000D01*
X120396000Y-80264000D02*
X119380000Y-80264000D01*
X118872000Y-80264000D02*
X118364000Y-79756000D01*
X119380000Y-71120000D02*
X119380000Y-72136000D01*
X137160000Y-81280000D02*
X137160000Y-80264000D01*
X137160000Y-80264000D02*
X136144000Y-80264000D01*
X136144000Y-80264000D02*
X136144000Y-72136000D01*
X136144000Y-72136000D02*
X138176000Y-72136000D01*
X138176000Y-72136000D02*
X138176000Y-80264000D01*
X138176000Y-80264000D02*
X137160000Y-80264000D01*
X136652000Y-80264000D02*
X136144000Y-79756000D01*
X137160000Y-71120000D02*
X137160000Y-72136000D01*
X134620000Y-81280000D02*
X134620000Y-80264000D01*
X134620000Y-80264000D02*
X133604000Y-80264000D01*
X133604000Y-80264000D02*
X133604000Y-72136000D01*
X133604000Y-72136000D02*
X135636000Y-72136000D01*
X135636000Y-72136000D02*
X135636000Y-80264000D01*
X135636000Y-80264000D02*
X134620000Y-80264000D01*
X134112000Y-80264000D02*
X133604000Y-79756000D01*
X134620000Y-71120000D02*
X134620000Y-72136000D01*
X152400000Y-81280000D02*
X152400000Y-80264000D01*
X152400000Y-80264000D02*
X151384000Y-80264000D01*
X151384000Y-80264000D02*
X151384000Y-72136000D01*
X151384000Y-72136000D02*
X153416000Y-72136000D01*
X153416000Y-72136000D02*
X153416000Y-80264000D01*
X153416000Y-80264000D02*
X152400000Y-80264000D01*
X151892000Y-80264000D02*
X151384000Y-79756000D01*
X152400000Y-71120000D02*
X152400000Y-72136000D01*
X157480000Y-81280000D02*
X157480000Y-80264000D01*
X157480000Y-80264000D02*
X156464000Y-80264000D01*
X156464000Y-80264000D02*
X156464000Y-72136000D01*
X156464000Y-72136000D02*
X158496000Y-72136000D01*
X158496000Y-72136000D02*
X158496000Y-80264000D01*
X158496000Y-80264000D02*
X157480000Y-80264000D01*
X156972000Y-80264000D02*
X156464000Y-79756000D01*
X157480000Y-71120000D02*
X157480000Y-72136000D01*
X149860000Y-81280000D02*
X149860000Y-80264000D01*
X149860000Y-80264000D02*
X148844000Y-80264000D01*
X148844000Y-80264000D02*
X148844000Y-72136000D01*
X148844000Y-72136000D02*
X150876000Y-72136000D01*
X150876000Y-72136000D02*
X150876000Y-80264000D01*
X150876000Y-80264000D02*
X149860000Y-80264000D01*
X149352000Y-80264000D02*
X148844000Y-79756000D01*
X149860000Y-71120000D02*
X149860000Y-72136000D01*
X154940000Y-81280000D02*
X154940000Y-80264000D01*
X154940000Y-80264000D02*
X153924000Y-80264000D01*
X153924000Y-80264000D02*
X153924000Y-72136000D01*
X153924000Y-72136000D02*
X155956000Y-72136000D01*
X155956000Y-72136000D02*
X155956000Y-80264000D01*
X155956000Y-80264000D02*
X154940000Y-80264000D01*
X154432000Y-80264000D02*
X153924000Y-79756000D01*
X154940000Y-71120000D02*
X154940000Y-72136000D01*
X147320000Y-81280000D02*
X147320000Y-80264000D01*
X147320000Y-80264000D02*
X146304000Y-80264000D01*
X146304000Y-80264000D02*
X146304000Y-72136000D01*
X146304000Y-72136000D02*
X148336000Y-72136000D01*
X148336000Y-72136000D02*
X148336000Y-80264000D01*
X148336000Y-80264000D02*
X147320000Y-80264000D01*
X146812000Y-80264000D02*
X146304000Y-79756000D01*
X147320000Y-71120000D02*
X147320000Y-72136000D01*
X165100000Y-81280000D02*
X165100000Y-80264000D01*
X165100000Y-80264000D02*
X164084000Y-80264000D01*
X164084000Y-80264000D02*
X164084000Y-72136000D01*
X164084000Y-72136000D02*
X166116000Y-72136000D01*
X166116000Y-72136000D02*
X166116000Y-80264000D01*
X166116000Y-80264000D02*
X165100000Y-80264000D01*
X164592000Y-80264000D02*
X164084000Y-79756000D01*
X165100000Y-71120000D02*
X165100000Y-72136000D01*
X162560000Y-81280000D02*
X162560000Y-80264000D01*
X162560000Y-80264000D02*
X161544000Y-80264000D01*
X161544000Y-80264000D02*
X161544000Y-72136000D01*
X161544000Y-72136000D02*
X163576000Y-72136000D01*
X163576000Y-72136000D02*
X163576000Y-80264000D01*
X163576000Y-80264000D02*
X162560000Y-80264000D01*
X162052000Y-80264000D02*
X161544000Y-79756000D01*
X162560000Y-71120000D02*
X162560000Y-72136000D01*
X185420000Y-81280000D02*
X185420000Y-80264000D01*
X185420000Y-80264000D02*
X184404000Y-80264000D01*
X184404000Y-80264000D02*
X184404000Y-72136000D01*
X184404000Y-72136000D02*
X186436000Y-72136000D01*
X186436000Y-72136000D02*
X186436000Y-80264000D01*
X186436000Y-80264000D02*
X185420000Y-80264000D01*
X184912000Y-80264000D02*
X184404000Y-79756000D01*
X185420000Y-71120000D02*
X185420000Y-72136000D01*
X190500000Y-81280000D02*
X190500000Y-80264000D01*
X190500000Y-80264000D02*
X189484000Y-80264000D01*
X189484000Y-80264000D02*
X189484000Y-72136000D01*
X189484000Y-72136000D02*
X191516000Y-72136000D01*
X191516000Y-72136000D02*
X191516000Y-80264000D01*
X191516000Y-80264000D02*
X190500000Y-80264000D01*
X189992000Y-80264000D02*
X189484000Y-79756000D01*
X190500000Y-71120000D02*
X190500000Y-72136000D01*
X182880000Y-81280000D02*
X182880000Y-80264000D01*
X182880000Y-80264000D02*
X181864000Y-80264000D01*
X181864000Y-80264000D02*
X181864000Y-72136000D01*
X181864000Y-72136000D02*
X183896000Y-72136000D01*
X183896000Y-72136000D02*
X183896000Y-80264000D01*
X183896000Y-80264000D02*
X182880000Y-80264000D01*
X182372000Y-80264000D02*
X181864000Y-79756000D01*
X182880000Y-71120000D02*
X182880000Y-72136000D01*
X187960000Y-81280000D02*
X187960000Y-80264000D01*
X187960000Y-80264000D02*
X186944000Y-80264000D01*
X186944000Y-80264000D02*
X186944000Y-72136000D01*
X186944000Y-72136000D02*
X188976000Y-72136000D01*
X188976000Y-72136000D02*
X188976000Y-80264000D01*
X188976000Y-80264000D02*
X187960000Y-80264000D01*
X187452000Y-80264000D02*
X186944000Y-79756000D01*
X187960000Y-71120000D02*
X187960000Y-72136000D01*
X180340000Y-81280000D02*
X180340000Y-80264000D01*
X180340000Y-80264000D02*
X179324000Y-80264000D01*
X179324000Y-80264000D02*
X179324000Y-72136000D01*
X179324000Y-72136000D02*
X181356000Y-72136000D01*
X181356000Y-72136000D02*
X181356000Y-80264000D01*
X181356000Y-80264000D02*
X180340000Y-80264000D01*
X179832000Y-80264000D02*
X179324000Y-79756000D01*
X180340000Y-71120000D02*
X180340000Y-72136000D01*
X198120000Y-81280000D02*
X198120000Y-80264000D01*
X198120000Y-80264000D02*
X197104000Y-80264000D01*
X197104000Y-80264000D02*
X197104000Y-72136000D01*
X197104000Y-72136000D02*
X199136000Y-72136000D01*
X199136000Y-72136000D02*
X199136000Y-80264000D01*
X199136000Y-80264000D02*
X198120000Y-80264000D01*
X197612000Y-80264000D02*
X197104000Y-79756000D01*
X198120000Y-71120000D02*
X198120000Y-72136000D01*
X195580000Y-81280000D02*
X195580000Y-80264000D01*
X195580000Y-80264000D02*
X194564000Y-80264000D01*
X194564000Y-80264000D02*
X194564000Y-72136000D01*
X194564000Y-72136000D02*
X196596000Y-72136000D01*
X196596000Y-72136000D02*
X196596000Y-80264000D01*
X196596000Y-80264000D02*
X195580000Y-80264000D01*
X195072000Y-80264000D02*
X194564000Y-79756000D01*
X195580000Y-71120000D02*
X195580000Y-72136000D01*
X213360000Y-81280000D02*
X213360000Y-80264000D01*
X213360000Y-80264000D02*
X212344000Y-80264000D01*
X212344000Y-80264000D02*
X212344000Y-72136000D01*
X212344000Y-72136000D02*
X214376000Y-72136000D01*
X214376000Y-72136000D02*
X214376000Y-80264000D01*
X214376000Y-80264000D02*
X213360000Y-80264000D01*
X212852000Y-80264000D02*
X212344000Y-79756000D01*
X213360000Y-71120000D02*
X213360000Y-72136000D01*
X218440000Y-81280000D02*
X218440000Y-80264000D01*
X218440000Y-80264000D02*
X217424000Y-80264000D01*
X217424000Y-80264000D02*
X217424000Y-72136000D01*
X217424000Y-72136000D02*
X219456000Y-72136000D01*
X219456000Y-72136000D02*
X219456000Y-80264000D01*
X219456000Y-80264000D02*
X218440000Y-80264000D01*
X217932000Y-80264000D02*
X217424000Y-79756000D01*
X218440000Y-71120000D02*
X218440000Y-72136000D01*
X210820000Y-81280000D02*
X210820000Y-80264000D01*
X210820000Y-80264000D02*
X209804000Y-80264000D01*
X209804000Y-80264000D02*
X209804000Y-72136000D01*
X209804000Y-72136000D02*
X211836000Y-72136000D01*
X211836000Y-72136000D02*
X211836000Y-80264000D01*
X211836000Y-80264000D02*
X210820000Y-80264000D01*
X210312000Y-80264000D02*
X209804000Y-79756000D01*
X210820000Y-71120000D02*
X210820000Y-72136000D01*
X215900000Y-81280000D02*
X215900000Y-80264000D01*
X215900000Y-80264000D02*
X214884000Y-80264000D01*
X214884000Y-80264000D02*
X214884000Y-72136000D01*
X214884000Y-72136000D02*
X216916000Y-72136000D01*
X216916000Y-72136000D02*
X216916000Y-80264000D01*
X216916000Y-80264000D02*
X215900000Y-80264000D01*
X215392000Y-80264000D02*
X214884000Y-79756000D01*
X215900000Y-71120000D02*
X215900000Y-72136000D01*
X208280000Y-81280000D02*
X208280000Y-80264000D01*
X208280000Y-80264000D02*
X207264000Y-80264000D01*
X207264000Y-80264000D02*
X207264000Y-72136000D01*
X207264000Y-72136000D02*
X209296000Y-72136000D01*
X209296000Y-72136000D02*
X209296000Y-80264000D01*
X209296000Y-80264000D02*
X208280000Y-80264000D01*
X207772000Y-80264000D02*
X207264000Y-79756000D01*
X208280000Y-71120000D02*
X208280000Y-72136000D01*
X226060000Y-81280000D02*
X226060000Y-80264000D01*
X226060000Y-80264000D02*
X225044000Y-80264000D01*
X225044000Y-80264000D02*
X225044000Y-72136000D01*
X225044000Y-72136000D02*
X227076000Y-72136000D01*
X227076000Y-72136000D02*
X227076000Y-80264000D01*
X227076000Y-80264000D02*
X226060000Y-80264000D01*
X225552000Y-80264000D02*
X225044000Y-79756000D01*
X226060000Y-71120000D02*
X226060000Y-72136000D01*
X223520000Y-81280000D02*
X223520000Y-80264000D01*
X223520000Y-80264000D02*
X222504000Y-80264000D01*
X222504000Y-80264000D02*
X222504000Y-72136000D01*
X222504000Y-72136000D02*
X224536000Y-72136000D01*
X224536000Y-72136000D02*
X224536000Y-80264000D01*
X224536000Y-80264000D02*
X223520000Y-80264000D01*
X223012000Y-80264000D02*
X222504000Y-79756000D01*
X223520000Y-71120000D02*
X223520000Y-72136000D01*
X75567214Y-109140000D02*
G75*
G03X75567214Y-109140000I-447214J0D01*
G01*
X68120000Y-99140000D02*
X67120000Y-104140000D01*
X67120000Y-104140000D02*
X66120000Y-109140000D01*
X66120000Y-109140000D02*
X73120000Y-109140000D01*
X73120000Y-109140000D02*
X74120000Y-104140000D01*
X75120000Y-99140000D02*
X74120000Y-104140000D01*
X74120000Y-104140000D02*
X67120000Y-104140000D01*
X68120000Y-99140000D02*
X75120000Y-99140000D01*
X59118500Y-87134700D02*
X83121500Y-87134700D01*
X59118500Y-121145300D02*
X59118500Y-87134700D01*
X83121500Y-121145300D02*
X83121500Y-87134700D01*
X59118500Y-121145300D02*
X83121500Y-121145300D01*
X78740000Y-59690000D02*
X78740000Y-59690000D01*
X78740000Y-59690000D02*
X77470000Y-59690000D01*
X77470000Y-59690000D02*
X77470000Y-57150000D01*
X77470000Y-57150000D02*
X78740000Y-57150000D01*
X78740000Y-60960000D02*
X55880000Y-60960000D01*
X55880000Y-60960000D02*
X55880000Y-55880000D01*
X55880000Y-55880000D02*
X78740000Y-55880000D01*
X78740000Y-55880000D02*
X78740000Y-60960000D01*
X103507214Y-109140000D02*
G75*
G03X103507214Y-109140000I-447214J0D01*
G01*
X96060000Y-99140000D02*
X95060000Y-104140000D01*
X95060000Y-104140000D02*
X94060000Y-109140000D01*
X94060000Y-109140000D02*
X101060000Y-109140000D01*
X101060000Y-109140000D02*
X102060000Y-104140000D01*
X103060000Y-99140000D02*
X102060000Y-104140000D01*
X102060000Y-104140000D02*
X95060000Y-104140000D01*
X96060000Y-99140000D02*
X103060000Y-99140000D01*
X87058500Y-87134700D02*
X111061500Y-87134700D01*
X87058500Y-121145300D02*
X87058500Y-87134700D01*
X111061500Y-121145300D02*
X111061500Y-87134700D01*
X87058500Y-121145300D02*
X111061500Y-121145300D01*
X106680000Y-59690000D02*
X106680000Y-59690000D01*
X106680000Y-59690000D02*
X105410000Y-59690000D01*
X105410000Y-59690000D02*
X105410000Y-57150000D01*
X105410000Y-57150000D02*
X106680000Y-57150000D01*
X106680000Y-60960000D02*
X83820000Y-60960000D01*
X83820000Y-60960000D02*
X83820000Y-55880000D01*
X83820000Y-55880000D02*
X106680000Y-55880000D01*
X106680000Y-55880000D02*
X106680000Y-60960000D01*
X136527214Y-109140000D02*
G75*
G03X136527214Y-109140000I-447214J0D01*
G01*
X129080000Y-99140000D02*
X128080000Y-104140000D01*
X128080000Y-104140000D02*
X127080000Y-109140000D01*
X127080000Y-109140000D02*
X134080000Y-109140000D01*
X134080000Y-109140000D02*
X135080000Y-104140000D01*
X136080000Y-99140000D02*
X135080000Y-104140000D01*
X135080000Y-104140000D02*
X128080000Y-104140000D01*
X129080000Y-99140000D02*
X136080000Y-99140000D01*
X120078500Y-87134700D02*
X144081500Y-87134700D01*
X120078500Y-121145300D02*
X120078500Y-87134700D01*
X144081500Y-121145300D02*
X144081500Y-87134700D01*
X120078500Y-121145300D02*
X144081500Y-121145300D01*
X139700000Y-59690000D02*
X139700000Y-59690000D01*
X139700000Y-59690000D02*
X138430000Y-59690000D01*
X138430000Y-59690000D02*
X138430000Y-57150000D01*
X138430000Y-57150000D02*
X139700000Y-57150000D01*
X139700000Y-60960000D02*
X116840000Y-60960000D01*
X116840000Y-60960000D02*
X116840000Y-55880000D01*
X116840000Y-55880000D02*
X139700000Y-55880000D01*
X139700000Y-55880000D02*
X139700000Y-60960000D01*
X164467214Y-109140000D02*
G75*
G03X164467214Y-109140000I-447214J0D01*
G01*
X157020000Y-99140000D02*
X156020000Y-104140000D01*
X156020000Y-104140000D02*
X155020000Y-109140000D01*
X155020000Y-109140000D02*
X162020000Y-109140000D01*
X162020000Y-109140000D02*
X163020000Y-104140000D01*
X164020000Y-99140000D02*
X163020000Y-104140000D01*
X163020000Y-104140000D02*
X156020000Y-104140000D01*
X157020000Y-99140000D02*
X164020000Y-99140000D01*
X148018500Y-87134700D02*
X172021500Y-87134700D01*
X148018500Y-121145300D02*
X148018500Y-87134700D01*
X172021500Y-121145300D02*
X172021500Y-87134700D01*
X148018500Y-121145300D02*
X172021500Y-121145300D01*
X167640000Y-59690000D02*
X167640000Y-59690000D01*
X167640000Y-59690000D02*
X166370000Y-59690000D01*
X166370000Y-59690000D02*
X166370000Y-57150000D01*
X166370000Y-57150000D02*
X167640000Y-57150000D01*
X167640000Y-60960000D02*
X144780000Y-60960000D01*
X144780000Y-60960000D02*
X144780000Y-55880000D01*
X144780000Y-55880000D02*
X167640000Y-55880000D01*
X167640000Y-55880000D02*
X167640000Y-60960000D01*
X197487214Y-109140000D02*
G75*
G03X197487214Y-109140000I-447214J0D01*
G01*
X190040000Y-99140000D02*
X189040000Y-104140000D01*
X189040000Y-104140000D02*
X188040000Y-109140000D01*
X188040000Y-109140000D02*
X195040000Y-109140000D01*
X195040000Y-109140000D02*
X196040000Y-104140000D01*
X197040000Y-99140000D02*
X196040000Y-104140000D01*
X196040000Y-104140000D02*
X189040000Y-104140000D01*
X190040000Y-99140000D02*
X197040000Y-99140000D01*
X181038500Y-87134700D02*
X205041500Y-87134700D01*
X181038500Y-121145300D02*
X181038500Y-87134700D01*
X205041500Y-121145300D02*
X205041500Y-87134700D01*
X181038500Y-121145300D02*
X205041500Y-121145300D01*
X200660000Y-59690000D02*
X200660000Y-59690000D01*
X200660000Y-59690000D02*
X199390000Y-59690000D01*
X199390000Y-59690000D02*
X199390000Y-57150000D01*
X199390000Y-57150000D02*
X200660000Y-57150000D01*
X200660000Y-60960000D02*
X177800000Y-60960000D01*
X177800000Y-60960000D02*
X177800000Y-55880000D01*
X177800000Y-55880000D02*
X200660000Y-55880000D01*
X200660000Y-55880000D02*
X200660000Y-60960000D01*
X225427214Y-109140000D02*
G75*
G03X225427214Y-109140000I-447214J0D01*
G01*
X217980000Y-99140000D02*
X216980000Y-104140000D01*
X216980000Y-104140000D02*
X215980000Y-109140000D01*
X215980000Y-109140000D02*
X222980000Y-109140000D01*
X222980000Y-109140000D02*
X223980000Y-104140000D01*
X224980000Y-99140000D02*
X223980000Y-104140000D01*
X223980000Y-104140000D02*
X216980000Y-104140000D01*
X217980000Y-99140000D02*
X224980000Y-99140000D01*
X208978500Y-87134700D02*
X232981500Y-87134700D01*
X208978500Y-121145300D02*
X208978500Y-87134700D01*
X232981500Y-121145300D02*
X232981500Y-87134700D01*
X208978500Y-121145300D02*
X232981500Y-121145300D01*
X228600000Y-59690000D02*
X228600000Y-59690000D01*
X228600000Y-59690000D02*
X227330000Y-59690000D01*
X227330000Y-59690000D02*
X227330000Y-57150000D01*
X227330000Y-57150000D02*
X228600000Y-57150000D01*
X228600000Y-60960000D02*
X205740000Y-60960000D01*
X205740000Y-60960000D02*
X205740000Y-55880000D01*
X205740000Y-55880000D02*
X228600000Y-55880000D01*
X228600000Y-55880000D02*
X228600000Y-60960000D01*
X235585000Y-53975000D02*
X233045000Y-53975000D01*
X233045000Y-53975000D02*
X233045000Y-45085000D01*
X233045000Y-45085000D02*
X235585000Y-45085000D01*
X250190000Y-45085000D02*
X235585000Y-45085000D01*
X250190000Y-45085000D02*
X250190000Y-53975000D01*
X250190000Y-53975000D02*
X235585000Y-53975000D01*
X235585000Y-74295000D02*
X233045000Y-74295000D01*
X233045000Y-74295000D02*
X233045000Y-65405000D01*
X233045000Y-65405000D02*
X235585000Y-65405000D01*
X250190000Y-65405000D02*
X235585000Y-65405000D01*
X250190000Y-65405000D02*
X250190000Y-74295000D01*
X250190000Y-74295000D02*
X235585000Y-74295000D01*
D10*
G36*
X194154469Y-27705487D02*
X194128479Y-27941876D01*
X194049597Y-28045556D01*
X193900055Y-28037447D01*
X193762197Y-27949952D01*
X193582732Y-27822472D01*
X193481898Y-27787600D01*
X193347665Y-27730555D01*
X193119515Y-27585440D01*
X192981898Y-27485626D01*
X192728862Y-27308800D01*
X192534105Y-27198649D01*
X192476953Y-27180826D01*
X192355462Y-27111551D01*
X192143950Y-26933798D01*
X191918153Y-26715913D01*
X191524264Y-26358134D01*
X191152072Y-26100346D01*
X190843137Y-25969579D01*
X190754000Y-25958800D01*
X190585628Y-25916187D01*
X190339994Y-25812594D01*
X190319551Y-25802521D01*
X190146212Y-25724738D01*
X190012137Y-25715861D01*
X189862655Y-25796523D01*
X189643095Y-25987359D01*
X189516542Y-26105600D01*
X189026800Y-26564957D01*
X188239400Y-26566678D01*
X187841979Y-26563011D01*
X187606225Y-26542837D01*
X187490692Y-26495628D01*
X187453934Y-26410855D01*
X187452000Y-26366641D01*
X187540737Y-26173011D01*
X187782460Y-25949010D01*
X187861649Y-25893789D01*
X188093202Y-25715062D01*
X188223408Y-25564016D01*
X188234753Y-25511348D01*
X188103774Y-25411506D01*
X187830746Y-25371092D01*
X187467440Y-25388521D01*
X187065629Y-25462207D01*
X186762141Y-25556447D01*
X186387320Y-25698107D01*
X186038938Y-25829700D01*
X185864466Y-25895555D01*
X185587415Y-26047508D01*
X185288809Y-26286123D01*
X184998092Y-26575755D01*
X184744707Y-26880763D01*
X184558096Y-27165501D01*
X184467701Y-27394328D01*
X184502965Y-27531599D01*
X184509431Y-27535967D01*
X184575982Y-27669557D01*
X184606921Y-27913876D01*
X184607200Y-27940000D01*
X184634574Y-28190943D01*
X184701237Y-28340776D01*
X184708800Y-28346400D01*
X184782507Y-28480950D01*
X184811441Y-28712471D01*
X184798369Y-28962648D01*
X184746063Y-29153166D01*
X184678255Y-29210000D01*
X184432397Y-29153651D01*
X184176336Y-29018448D01*
X183996615Y-28855150D01*
X183965043Y-28791677D01*
X183826036Y-28619200D01*
X183546809Y-28563291D01*
X183152691Y-28622682D01*
X182669009Y-28796108D01*
X182523500Y-28863703D01*
X182056494Y-29068731D01*
X181690388Y-29184765D01*
X181449041Y-29206552D01*
X181356316Y-29128836D01*
X181356000Y-29120840D01*
X181425479Y-28988194D01*
X181506838Y-28906496D01*
X181641592Y-28742903D01*
X181806887Y-28475007D01*
X181876363Y-28343432D01*
X182063623Y-28045722D01*
X182341590Y-27691318D01*
X182639925Y-27367447D01*
X182902550Y-27093785D01*
X183095776Y-26865186D01*
X183183093Y-26725393D01*
X183184799Y-26714617D01*
X183253702Y-26566346D01*
X183387999Y-26416000D01*
X183540356Y-26236997D01*
X183591199Y-26111200D01*
X183660309Y-25958002D01*
X183794400Y-25806400D01*
X183948366Y-25605659D01*
X183997600Y-25446666D01*
X184053913Y-25181952D01*
X184229574Y-24842961D01*
X184534662Y-24415159D01*
X184979257Y-23884010D01*
X185411268Y-23408061D01*
X185709138Y-23102831D01*
X185967766Y-22864925D01*
X186149335Y-22727877D01*
X186201183Y-22707600D01*
X186368606Y-22624063D01*
X186458029Y-22412125D01*
X186472334Y-22129797D01*
X186414400Y-21835087D01*
X186287106Y-21586007D01*
X186139223Y-21459552D01*
X185911750Y-21305052D01*
X185885157Y-21164262D01*
X186058573Y-21026686D01*
X186101521Y-21005800D01*
X186437312Y-20899003D01*
X186801150Y-20894074D01*
X187231800Y-20997773D01*
X187768026Y-21216864D01*
X188027811Y-21341821D01*
X188433224Y-21551134D01*
X188775759Y-21742986D01*
X189009896Y-21891064D01*
X189082431Y-21951421D01*
X189284549Y-22053040D01*
X189663748Y-22096605D01*
X189764603Y-22097999D01*
X190183004Y-22129212D01*
X190537181Y-22245928D01*
X190820489Y-22402799D01*
X191103460Y-22568811D01*
X191317384Y-22679515D01*
X191396917Y-22707600D01*
X191511883Y-22774763D01*
X191701047Y-22942677D01*
X191770000Y-23012400D01*
X191982576Y-23204089D01*
X192156137Y-23309911D01*
X192191168Y-23317200D01*
X192352478Y-23394629D01*
X192593115Y-23600560D01*
X192878152Y-23895454D01*
X193172665Y-24239776D01*
X193441728Y-24593988D01*
X193650415Y-24918554D01*
X193713571Y-25040618D01*
X193853617Y-25388448D01*
X193919223Y-25708034D01*
X193913805Y-26065557D01*
X193840780Y-26527199D01*
X193800422Y-26723087D01*
X193790690Y-26995794D01*
X193926075Y-27202694D01*
X193946260Y-27221434D01*
X194090284Y-27437860D01*
X194154469Y-27705487D01*
X194154469Y-27705487D01*
X194154469Y-27705487D01*
G37*
X194154469Y-27705487D02*
X194128479Y-27941876D01*
X194049597Y-28045556D01*
X193900055Y-28037447D01*
X193762197Y-27949952D01*
X193582732Y-27822472D01*
X193481898Y-27787600D01*
X193347665Y-27730555D01*
X193119515Y-27585440D01*
X192981898Y-27485626D01*
X192728862Y-27308800D01*
X192534105Y-27198649D01*
X192476953Y-27180826D01*
X192355462Y-27111551D01*
X192143950Y-26933798D01*
X191918153Y-26715913D01*
X191524264Y-26358134D01*
X191152072Y-26100346D01*
X190843137Y-25969579D01*
X190754000Y-25958800D01*
X190585628Y-25916187D01*
X190339994Y-25812594D01*
X190319551Y-25802521D01*
X190146212Y-25724738D01*
X190012137Y-25715861D01*
X189862655Y-25796523D01*
X189643095Y-25987359D01*
X189516542Y-26105600D01*
X189026800Y-26564957D01*
X188239400Y-26566678D01*
X187841979Y-26563011D01*
X187606225Y-26542837D01*
X187490692Y-26495628D01*
X187453934Y-26410855D01*
X187452000Y-26366641D01*
X187540737Y-26173011D01*
X187782460Y-25949010D01*
X187861649Y-25893789D01*
X188093202Y-25715062D01*
X188223408Y-25564016D01*
X188234753Y-25511348D01*
X188103774Y-25411506D01*
X187830746Y-25371092D01*
X187467440Y-25388521D01*
X187065629Y-25462207D01*
X186762141Y-25556447D01*
X186387320Y-25698107D01*
X186038938Y-25829700D01*
X185864466Y-25895555D01*
X185587415Y-26047508D01*
X185288809Y-26286123D01*
X184998092Y-26575755D01*
X184744707Y-26880763D01*
X184558096Y-27165501D01*
X184467701Y-27394328D01*
X184502965Y-27531599D01*
X184509431Y-27535967D01*
X184575982Y-27669557D01*
X184606921Y-27913876D01*
X184607200Y-27940000D01*
X184634574Y-28190943D01*
X184701237Y-28340776D01*
X184708800Y-28346400D01*
X184782507Y-28480950D01*
X184811441Y-28712471D01*
X184798369Y-28962648D01*
X184746063Y-29153166D01*
X184678255Y-29210000D01*
X184432397Y-29153651D01*
X184176336Y-29018448D01*
X183996615Y-28855150D01*
X183965043Y-28791677D01*
X183826036Y-28619200D01*
X183546809Y-28563291D01*
X183152691Y-28622682D01*
X182669009Y-28796108D01*
X182523500Y-28863703D01*
X182056494Y-29068731D01*
X181690388Y-29184765D01*
X181449041Y-29206552D01*
X181356316Y-29128836D01*
X181356000Y-29120840D01*
X181425479Y-28988194D01*
X181506838Y-28906496D01*
X181641592Y-28742903D01*
X181806887Y-28475007D01*
X181876363Y-28343432D01*
X182063623Y-28045722D01*
X182341590Y-27691318D01*
X182639925Y-27367447D01*
X182902550Y-27093785D01*
X183095776Y-26865186D01*
X183183093Y-26725393D01*
X183184799Y-26714617D01*
X183253702Y-26566346D01*
X183387999Y-26416000D01*
X183540356Y-26236997D01*
X183591199Y-26111200D01*
X183660309Y-25958002D01*
X183794400Y-25806400D01*
X183948366Y-25605659D01*
X183997600Y-25446666D01*
X184053913Y-25181952D01*
X184229574Y-24842961D01*
X184534662Y-24415159D01*
X184979257Y-23884010D01*
X185411268Y-23408061D01*
X185709138Y-23102831D01*
X185967766Y-22864925D01*
X186149335Y-22727877D01*
X186201183Y-22707600D01*
X186368606Y-22624063D01*
X186458029Y-22412125D01*
X186472334Y-22129797D01*
X186414400Y-21835087D01*
X186287106Y-21586007D01*
X186139223Y-21459552D01*
X185911750Y-21305052D01*
X185885157Y-21164262D01*
X186058573Y-21026686D01*
X186101521Y-21005800D01*
X186437312Y-20899003D01*
X186801150Y-20894074D01*
X187231800Y-20997773D01*
X187768026Y-21216864D01*
X188027811Y-21341821D01*
X188433224Y-21551134D01*
X188775759Y-21742986D01*
X189009896Y-21891064D01*
X189082431Y-21951421D01*
X189284549Y-22053040D01*
X189663748Y-22096605D01*
X189764603Y-22097999D01*
X190183004Y-22129212D01*
X190537181Y-22245928D01*
X190820489Y-22402799D01*
X191103460Y-22568811D01*
X191317384Y-22679515D01*
X191396917Y-22707600D01*
X191511883Y-22774763D01*
X191701047Y-22942677D01*
X191770000Y-23012400D01*
X191982576Y-23204089D01*
X192156137Y-23309911D01*
X192191168Y-23317200D01*
X192352478Y-23394629D01*
X192593115Y-23600560D01*
X192878152Y-23895454D01*
X193172665Y-24239776D01*
X193441728Y-24593988D01*
X193650415Y-24918554D01*
X193713571Y-25040618D01*
X193853617Y-25388448D01*
X193919223Y-25708034D01*
X193913805Y-26065557D01*
X193840780Y-26527199D01*
X193800422Y-26723087D01*
X193790690Y-26995794D01*
X193926075Y-27202694D01*
X193946260Y-27221434D01*
X194090284Y-27437860D01*
X194154469Y-27705487D01*
X194154469Y-27705487D01*
D13*
X208712381Y-23598095D02*
X207712381Y-23598095D01*
X207712381Y-23217142D01*
X207760000Y-23121904D01*
X207807619Y-23074285D01*
X207902857Y-23026666D01*
X208045714Y-23026666D01*
X208140952Y-23074285D01*
X208188571Y-23121904D01*
X208236190Y-23217142D01*
X208236190Y-23598095D01*
X207807619Y-22645714D02*
X207760000Y-22598095D01*
X207712381Y-22502857D01*
X207712381Y-22264761D01*
X207760000Y-22169523D01*
X207807619Y-22121904D01*
X207902857Y-22074285D01*
X207998095Y-22074285D01*
X208140952Y-22121904D01*
X208712381Y-22693333D01*
X208712381Y-22074285D01*
X52601905Y-30912381D02*
X52601905Y-29912381D01*
X52982858Y-29912381D01*
X53078096Y-29960000D01*
X53125715Y-30007619D01*
X53173334Y-30102857D01*
X53173334Y-30245714D01*
X53125715Y-30340952D01*
X53078096Y-30388571D01*
X52982858Y-30436190D01*
X52601905Y-30436190D01*
X53506667Y-29912381D02*
X54125715Y-29912381D01*
X53792381Y-30293333D01*
X53935239Y-30293333D01*
X54030477Y-30340952D01*
X54078096Y-30388571D01*
X54125715Y-30483810D01*
X54125715Y-30721905D01*
X54078096Y-30817143D01*
X54030477Y-30864762D01*
X53935239Y-30912381D01*
X53649524Y-30912381D01*
X53554286Y-30864762D01*
X53506667Y-30817143D01*
X67841905Y-18212381D02*
X67841905Y-17212381D01*
X68222858Y-17212381D01*
X68318096Y-17260000D01*
X68365715Y-17307619D01*
X68413334Y-17402857D01*
X68413334Y-17545714D01*
X68365715Y-17640952D01*
X68318096Y-17688571D01*
X68222858Y-17736190D01*
X67841905Y-17736190D01*
X69270477Y-17545714D02*
X69270477Y-18212381D01*
X69032381Y-17164762D02*
X68794286Y-17879048D01*
X69413334Y-17879048D01*
X63952381Y-76366666D02*
X63476190Y-76700000D01*
X63952381Y-76938095D02*
X62952381Y-76938095D01*
X62952381Y-76557142D01*
X63000000Y-76461904D01*
X63047619Y-76414285D01*
X63142857Y-76366666D01*
X63285714Y-76366666D01*
X63380952Y-76414285D01*
X63428571Y-76461904D01*
X63476190Y-76557142D01*
X63476190Y-76938095D01*
X63952381Y-75414285D02*
X63952381Y-75985714D01*
X63952381Y-75700000D02*
X62952381Y-75700000D01*
X63095238Y-75795238D01*
X63190476Y-75890476D01*
X63238095Y-75985714D01*
X69032381Y-76366666D02*
X68556190Y-76700000D01*
X69032381Y-76938095D02*
X68032381Y-76938095D01*
X68032381Y-76557142D01*
X68080000Y-76461904D01*
X68127619Y-76414285D01*
X68222857Y-76366666D01*
X68365714Y-76366666D01*
X68460952Y-76414285D01*
X68508571Y-76461904D01*
X68556190Y-76557142D01*
X68556190Y-76938095D01*
X68127619Y-75985714D02*
X68080000Y-75938095D01*
X68032381Y-75842857D01*
X68032381Y-75604761D01*
X68080000Y-75509523D01*
X68127619Y-75461904D01*
X68222857Y-75414285D01*
X68318095Y-75414285D01*
X68460952Y-75461904D01*
X69032381Y-76033333D01*
X69032381Y-75414285D01*
X61412381Y-76366666D02*
X60936190Y-76700000D01*
X61412381Y-76938095D02*
X60412381Y-76938095D01*
X60412381Y-76557142D01*
X60460000Y-76461904D01*
X60507619Y-76414285D01*
X60602857Y-76366666D01*
X60745714Y-76366666D01*
X60840952Y-76414285D01*
X60888571Y-76461904D01*
X60936190Y-76557142D01*
X60936190Y-76938095D01*
X60412381Y-76033333D02*
X60412381Y-75414285D01*
X60793333Y-75747619D01*
X60793333Y-75604761D01*
X60840952Y-75509523D01*
X60888571Y-75461904D01*
X60983810Y-75414285D01*
X61221905Y-75414285D01*
X61317143Y-75461904D01*
X61364762Y-75509523D01*
X61412381Y-75604761D01*
X61412381Y-75890476D01*
X61364762Y-75985714D01*
X61317143Y-76033333D01*
X66492381Y-76366666D02*
X66016190Y-76700000D01*
X66492381Y-76938095D02*
X65492381Y-76938095D01*
X65492381Y-76557142D01*
X65540000Y-76461904D01*
X65587619Y-76414285D01*
X65682857Y-76366666D01*
X65825714Y-76366666D01*
X65920952Y-76414285D01*
X65968571Y-76461904D01*
X66016190Y-76557142D01*
X66016190Y-76938095D01*
X65825714Y-75509523D02*
X66492381Y-75509523D01*
X65444762Y-75747619D02*
X66159048Y-75985714D01*
X66159048Y-75366666D01*
X58872381Y-76366666D02*
X58396190Y-76700000D01*
X58872381Y-76938095D02*
X57872381Y-76938095D01*
X57872381Y-76557142D01*
X57920000Y-76461904D01*
X57967619Y-76414285D01*
X58062857Y-76366666D01*
X58205714Y-76366666D01*
X58300952Y-76414285D01*
X58348571Y-76461904D01*
X58396190Y-76557142D01*
X58396190Y-76938095D01*
X57872381Y-75461904D02*
X57872381Y-75938095D01*
X58348571Y-75985714D01*
X58300952Y-75938095D01*
X58253333Y-75842857D01*
X58253333Y-75604761D01*
X58300952Y-75509523D01*
X58348571Y-75461904D01*
X58443810Y-75414285D01*
X58681905Y-75414285D01*
X58777143Y-75461904D01*
X58824762Y-75509523D01*
X58872381Y-75604761D01*
X58872381Y-75842857D01*
X58824762Y-75938095D01*
X58777143Y-75985714D01*
X76652381Y-76366666D02*
X76176190Y-76700000D01*
X76652381Y-76938095D02*
X75652381Y-76938095D01*
X75652381Y-76557142D01*
X75700000Y-76461904D01*
X75747619Y-76414285D01*
X75842857Y-76366666D01*
X75985714Y-76366666D01*
X76080952Y-76414285D01*
X76128571Y-76461904D01*
X76176190Y-76557142D01*
X76176190Y-76938095D01*
X75652381Y-75509523D02*
X75652381Y-75700000D01*
X75700000Y-75795238D01*
X75747619Y-75842857D01*
X75890476Y-75938095D01*
X76080952Y-75985714D01*
X76461905Y-75985714D01*
X76557143Y-75938095D01*
X76604762Y-75890476D01*
X76652381Y-75795238D01*
X76652381Y-75604761D01*
X76604762Y-75509523D01*
X76557143Y-75461904D01*
X76461905Y-75414285D01*
X76223810Y-75414285D01*
X76128571Y-75461904D01*
X76080952Y-75509523D01*
X76033333Y-75604761D01*
X76033333Y-75795238D01*
X76080952Y-75890476D01*
X76128571Y-75938095D01*
X76223810Y-75985714D01*
X74112381Y-76366666D02*
X73636190Y-76700000D01*
X74112381Y-76938095D02*
X73112381Y-76938095D01*
X73112381Y-76557142D01*
X73160000Y-76461904D01*
X73207619Y-76414285D01*
X73302857Y-76366666D01*
X73445714Y-76366666D01*
X73540952Y-76414285D01*
X73588571Y-76461904D01*
X73636190Y-76557142D01*
X73636190Y-76938095D01*
X73112381Y-76033333D02*
X73112381Y-75366666D01*
X74112381Y-75795238D01*
X229052381Y-40806666D02*
X228576190Y-41140000D01*
X229052381Y-41378095D02*
X228052381Y-41378095D01*
X228052381Y-40997142D01*
X228100000Y-40901904D01*
X228147619Y-40854285D01*
X228242857Y-40806666D01*
X228385714Y-40806666D01*
X228480952Y-40854285D01*
X228528571Y-40901904D01*
X228576190Y-40997142D01*
X228576190Y-41378095D01*
X228480952Y-40235238D02*
X228433333Y-40330476D01*
X228385714Y-40378095D01*
X228290476Y-40425714D01*
X228242857Y-40425714D01*
X228147619Y-40378095D01*
X228100000Y-40330476D01*
X228052381Y-40235238D01*
X228052381Y-40044761D01*
X228100000Y-39949523D01*
X228147619Y-39901904D01*
X228242857Y-39854285D01*
X228290476Y-39854285D01*
X228385714Y-39901904D01*
X228433333Y-39949523D01*
X228480952Y-40044761D01*
X228480952Y-40235238D01*
X228528571Y-40330476D01*
X228576190Y-40378095D01*
X228671429Y-40425714D01*
X228861905Y-40425714D01*
X228957143Y-40378095D01*
X229004762Y-40330476D01*
X229052381Y-40235238D01*
X229052381Y-40044761D01*
X229004762Y-39949523D01*
X228957143Y-39901904D01*
X228861905Y-39854285D01*
X228671429Y-39854285D01*
X228576190Y-39901904D01*
X228528571Y-39949523D01*
X228480952Y-40044761D01*
X226512381Y-40806666D02*
X226036190Y-41140000D01*
X226512381Y-41378095D02*
X225512381Y-41378095D01*
X225512381Y-40997142D01*
X225560000Y-40901904D01*
X225607619Y-40854285D01*
X225702857Y-40806666D01*
X225845714Y-40806666D01*
X225940952Y-40854285D01*
X225988571Y-40901904D01*
X226036190Y-40997142D01*
X226036190Y-41378095D01*
X226512381Y-40330476D02*
X226512381Y-40140000D01*
X226464762Y-40044761D01*
X226417143Y-39997142D01*
X226274286Y-39901904D01*
X226083810Y-39854285D01*
X225702857Y-39854285D01*
X225607619Y-39901904D01*
X225560000Y-39949523D01*
X225512381Y-40044761D01*
X225512381Y-40235238D01*
X225560000Y-40330476D01*
X225607619Y-40378095D01*
X225702857Y-40425714D01*
X225940952Y-40425714D01*
X226036190Y-40378095D01*
X226083810Y-40330476D01*
X226131429Y-40235238D01*
X226131429Y-40044761D01*
X226083810Y-39949523D01*
X226036190Y-39901904D01*
X225940952Y-39854285D01*
X223972381Y-41282857D02*
X223496190Y-41616191D01*
X223972381Y-41854286D02*
X222972381Y-41854286D01*
X222972381Y-41473333D01*
X223020000Y-41378095D01*
X223067619Y-41330476D01*
X223162857Y-41282857D01*
X223305714Y-41282857D01*
X223400952Y-41330476D01*
X223448571Y-41378095D01*
X223496190Y-41473333D01*
X223496190Y-41854286D01*
X223972381Y-40330476D02*
X223972381Y-40901905D01*
X223972381Y-40616191D02*
X222972381Y-40616191D01*
X223115238Y-40711429D01*
X223210476Y-40806667D01*
X223258095Y-40901905D01*
X222972381Y-39711429D02*
X222972381Y-39616190D01*
X223020000Y-39520952D01*
X223067619Y-39473333D01*
X223162857Y-39425714D01*
X223353333Y-39378095D01*
X223591429Y-39378095D01*
X223781905Y-39425714D01*
X223877143Y-39473333D01*
X223924762Y-39520952D01*
X223972381Y-39616190D01*
X223972381Y-39711429D01*
X223924762Y-39806667D01*
X223877143Y-39854286D01*
X223781905Y-39901905D01*
X223591429Y-39949524D01*
X223353333Y-39949524D01*
X223162857Y-39901905D01*
X223067619Y-39854286D01*
X223020000Y-39806667D01*
X222972381Y-39711429D01*
X221432381Y-41282857D02*
X220956190Y-41616191D01*
X221432381Y-41854286D02*
X220432381Y-41854286D01*
X220432381Y-41473333D01*
X220480000Y-41378095D01*
X220527619Y-41330476D01*
X220622857Y-41282857D01*
X220765714Y-41282857D01*
X220860952Y-41330476D01*
X220908571Y-41378095D01*
X220956190Y-41473333D01*
X220956190Y-41854286D01*
X221432381Y-40330476D02*
X221432381Y-40901905D01*
X221432381Y-40616191D02*
X220432381Y-40616191D01*
X220575238Y-40711429D01*
X220670476Y-40806667D01*
X220718095Y-40901905D01*
X221432381Y-39378095D02*
X221432381Y-39949524D01*
X221432381Y-39663810D02*
X220432381Y-39663810D01*
X220575238Y-39759048D01*
X220670476Y-39854286D01*
X220718095Y-39949524D01*
X218892381Y-41282857D02*
X218416190Y-41616191D01*
X218892381Y-41854286D02*
X217892381Y-41854286D01*
X217892381Y-41473333D01*
X217940000Y-41378095D01*
X217987619Y-41330476D01*
X218082857Y-41282857D01*
X218225714Y-41282857D01*
X218320952Y-41330476D01*
X218368571Y-41378095D01*
X218416190Y-41473333D01*
X218416190Y-41854286D01*
X218892381Y-40330476D02*
X218892381Y-40901905D01*
X218892381Y-40616191D02*
X217892381Y-40616191D01*
X218035238Y-40711429D01*
X218130476Y-40806667D01*
X218178095Y-40901905D01*
X217987619Y-39949524D02*
X217940000Y-39901905D01*
X217892381Y-39806667D01*
X217892381Y-39568571D01*
X217940000Y-39473333D01*
X217987619Y-39425714D01*
X218082857Y-39378095D01*
X218178095Y-39378095D01*
X218320952Y-39425714D01*
X218892381Y-39997143D01*
X218892381Y-39378095D01*
X216352381Y-41282857D02*
X215876190Y-41616191D01*
X216352381Y-41854286D02*
X215352381Y-41854286D01*
X215352381Y-41473333D01*
X215400000Y-41378095D01*
X215447619Y-41330476D01*
X215542857Y-41282857D01*
X215685714Y-41282857D01*
X215780952Y-41330476D01*
X215828571Y-41378095D01*
X215876190Y-41473333D01*
X215876190Y-41854286D01*
X216352381Y-40330476D02*
X216352381Y-40901905D01*
X216352381Y-40616191D02*
X215352381Y-40616191D01*
X215495238Y-40711429D01*
X215590476Y-40806667D01*
X215638095Y-40901905D01*
X215352381Y-39997143D02*
X215352381Y-39378095D01*
X215733333Y-39711429D01*
X215733333Y-39568571D01*
X215780952Y-39473333D01*
X215828571Y-39425714D01*
X215923810Y-39378095D01*
X216161905Y-39378095D01*
X216257143Y-39425714D01*
X216304762Y-39473333D01*
X216352381Y-39568571D01*
X216352381Y-39854286D01*
X216304762Y-39949524D01*
X216257143Y-39997143D01*
X213812381Y-41282857D02*
X213336190Y-41616191D01*
X213812381Y-41854286D02*
X212812381Y-41854286D01*
X212812381Y-41473333D01*
X212860000Y-41378095D01*
X212907619Y-41330476D01*
X213002857Y-41282857D01*
X213145714Y-41282857D01*
X213240952Y-41330476D01*
X213288571Y-41378095D01*
X213336190Y-41473333D01*
X213336190Y-41854286D01*
X213812381Y-40330476D02*
X213812381Y-40901905D01*
X213812381Y-40616191D02*
X212812381Y-40616191D01*
X212955238Y-40711429D01*
X213050476Y-40806667D01*
X213098095Y-40901905D01*
X213145714Y-39473333D02*
X213812381Y-39473333D01*
X212764762Y-39711429D02*
X213479048Y-39949524D01*
X213479048Y-39330476D01*
X91892381Y-76842857D02*
X91416190Y-77176191D01*
X91892381Y-77414286D02*
X90892381Y-77414286D01*
X90892381Y-77033333D01*
X90940000Y-76938095D01*
X90987619Y-76890476D01*
X91082857Y-76842857D01*
X91225714Y-76842857D01*
X91320952Y-76890476D01*
X91368571Y-76938095D01*
X91416190Y-77033333D01*
X91416190Y-77414286D01*
X91892381Y-75890476D02*
X91892381Y-76461905D01*
X91892381Y-76176191D02*
X90892381Y-76176191D01*
X91035238Y-76271429D01*
X91130476Y-76366667D01*
X91178095Y-76461905D01*
X90892381Y-74985714D02*
X90892381Y-75461905D01*
X91368571Y-75509524D01*
X91320952Y-75461905D01*
X91273333Y-75366667D01*
X91273333Y-75128571D01*
X91320952Y-75033333D01*
X91368571Y-74985714D01*
X91463810Y-74938095D01*
X91701905Y-74938095D01*
X91797143Y-74985714D01*
X91844762Y-75033333D01*
X91892381Y-75128571D01*
X91892381Y-75366667D01*
X91844762Y-75461905D01*
X91797143Y-75509524D01*
X96972381Y-76842857D02*
X96496190Y-77176191D01*
X96972381Y-77414286D02*
X95972381Y-77414286D01*
X95972381Y-77033333D01*
X96020000Y-76938095D01*
X96067619Y-76890476D01*
X96162857Y-76842857D01*
X96305714Y-76842857D01*
X96400952Y-76890476D01*
X96448571Y-76938095D01*
X96496190Y-77033333D01*
X96496190Y-77414286D01*
X96972381Y-75890476D02*
X96972381Y-76461905D01*
X96972381Y-76176191D02*
X95972381Y-76176191D01*
X96115238Y-76271429D01*
X96210476Y-76366667D01*
X96258095Y-76461905D01*
X95972381Y-75033333D02*
X95972381Y-75223810D01*
X96020000Y-75319048D01*
X96067619Y-75366667D01*
X96210476Y-75461905D01*
X96400952Y-75509524D01*
X96781905Y-75509524D01*
X96877143Y-75461905D01*
X96924762Y-75414286D01*
X96972381Y-75319048D01*
X96972381Y-75128571D01*
X96924762Y-75033333D01*
X96877143Y-74985714D01*
X96781905Y-74938095D01*
X96543810Y-74938095D01*
X96448571Y-74985714D01*
X96400952Y-75033333D01*
X96353333Y-75128571D01*
X96353333Y-75319048D01*
X96400952Y-75414286D01*
X96448571Y-75461905D01*
X96543810Y-75509524D01*
X89352381Y-76842857D02*
X88876190Y-77176191D01*
X89352381Y-77414286D02*
X88352381Y-77414286D01*
X88352381Y-77033333D01*
X88400000Y-76938095D01*
X88447619Y-76890476D01*
X88542857Y-76842857D01*
X88685714Y-76842857D01*
X88780952Y-76890476D01*
X88828571Y-76938095D01*
X88876190Y-77033333D01*
X88876190Y-77414286D01*
X89352381Y-75890476D02*
X89352381Y-76461905D01*
X89352381Y-76176191D02*
X88352381Y-76176191D01*
X88495238Y-76271429D01*
X88590476Y-76366667D01*
X88638095Y-76461905D01*
X88352381Y-75557143D02*
X88352381Y-74890476D01*
X89352381Y-75319048D01*
X94432381Y-76842857D02*
X93956190Y-77176191D01*
X94432381Y-77414286D02*
X93432381Y-77414286D01*
X93432381Y-77033333D01*
X93480000Y-76938095D01*
X93527619Y-76890476D01*
X93622857Y-76842857D01*
X93765714Y-76842857D01*
X93860952Y-76890476D01*
X93908571Y-76938095D01*
X93956190Y-77033333D01*
X93956190Y-77414286D01*
X94432381Y-75890476D02*
X94432381Y-76461905D01*
X94432381Y-76176191D02*
X93432381Y-76176191D01*
X93575238Y-76271429D01*
X93670476Y-76366667D01*
X93718095Y-76461905D01*
X93860952Y-75319048D02*
X93813333Y-75414286D01*
X93765714Y-75461905D01*
X93670476Y-75509524D01*
X93622857Y-75509524D01*
X93527619Y-75461905D01*
X93480000Y-75414286D01*
X93432381Y-75319048D01*
X93432381Y-75128571D01*
X93480000Y-75033333D01*
X93527619Y-74985714D01*
X93622857Y-74938095D01*
X93670476Y-74938095D01*
X93765714Y-74985714D01*
X93813333Y-75033333D01*
X93860952Y-75128571D01*
X93860952Y-75319048D01*
X93908571Y-75414286D01*
X93956190Y-75461905D01*
X94051429Y-75509524D01*
X94241905Y-75509524D01*
X94337143Y-75461905D01*
X94384762Y-75414286D01*
X94432381Y-75319048D01*
X94432381Y-75128571D01*
X94384762Y-75033333D01*
X94337143Y-74985714D01*
X94241905Y-74938095D01*
X94051429Y-74938095D01*
X93956190Y-74985714D01*
X93908571Y-75033333D01*
X93860952Y-75128571D01*
X86812381Y-76842857D02*
X86336190Y-77176191D01*
X86812381Y-77414286D02*
X85812381Y-77414286D01*
X85812381Y-77033333D01*
X85860000Y-76938095D01*
X85907619Y-76890476D01*
X86002857Y-76842857D01*
X86145714Y-76842857D01*
X86240952Y-76890476D01*
X86288571Y-76938095D01*
X86336190Y-77033333D01*
X86336190Y-77414286D01*
X86812381Y-75890476D02*
X86812381Y-76461905D01*
X86812381Y-76176191D02*
X85812381Y-76176191D01*
X85955238Y-76271429D01*
X86050476Y-76366667D01*
X86098095Y-76461905D01*
X86812381Y-75414286D02*
X86812381Y-75223810D01*
X86764762Y-75128571D01*
X86717143Y-75080952D01*
X86574286Y-74985714D01*
X86383810Y-74938095D01*
X86002857Y-74938095D01*
X85907619Y-74985714D01*
X85860000Y-75033333D01*
X85812381Y-75128571D01*
X85812381Y-75319048D01*
X85860000Y-75414286D01*
X85907619Y-75461905D01*
X86002857Y-75509524D01*
X86240952Y-75509524D01*
X86336190Y-75461905D01*
X86383810Y-75414286D01*
X86431429Y-75319048D01*
X86431429Y-75128571D01*
X86383810Y-75033333D01*
X86336190Y-74985714D01*
X86240952Y-74938095D01*
X104592381Y-76842857D02*
X104116190Y-77176191D01*
X104592381Y-77414286D02*
X103592381Y-77414286D01*
X103592381Y-77033333D01*
X103640000Y-76938095D01*
X103687619Y-76890476D01*
X103782857Y-76842857D01*
X103925714Y-76842857D01*
X104020952Y-76890476D01*
X104068571Y-76938095D01*
X104116190Y-77033333D01*
X104116190Y-77414286D01*
X103687619Y-76461905D02*
X103640000Y-76414286D01*
X103592381Y-76319048D01*
X103592381Y-76080952D01*
X103640000Y-75985714D01*
X103687619Y-75938095D01*
X103782857Y-75890476D01*
X103878095Y-75890476D01*
X104020952Y-75938095D01*
X104592381Y-76509524D01*
X104592381Y-75890476D01*
X103592381Y-75271429D02*
X103592381Y-75176190D01*
X103640000Y-75080952D01*
X103687619Y-75033333D01*
X103782857Y-74985714D01*
X103973333Y-74938095D01*
X104211429Y-74938095D01*
X104401905Y-74985714D01*
X104497143Y-75033333D01*
X104544762Y-75080952D01*
X104592381Y-75176190D01*
X104592381Y-75271429D01*
X104544762Y-75366667D01*
X104497143Y-75414286D01*
X104401905Y-75461905D01*
X104211429Y-75509524D01*
X103973333Y-75509524D01*
X103782857Y-75461905D01*
X103687619Y-75414286D01*
X103640000Y-75366667D01*
X103592381Y-75271429D01*
X102052381Y-76842857D02*
X101576190Y-77176191D01*
X102052381Y-77414286D02*
X101052381Y-77414286D01*
X101052381Y-77033333D01*
X101100000Y-76938095D01*
X101147619Y-76890476D01*
X101242857Y-76842857D01*
X101385714Y-76842857D01*
X101480952Y-76890476D01*
X101528571Y-76938095D01*
X101576190Y-77033333D01*
X101576190Y-77414286D01*
X101147619Y-76461905D02*
X101100000Y-76414286D01*
X101052381Y-76319048D01*
X101052381Y-76080952D01*
X101100000Y-75985714D01*
X101147619Y-75938095D01*
X101242857Y-75890476D01*
X101338095Y-75890476D01*
X101480952Y-75938095D01*
X102052381Y-76509524D01*
X102052381Y-75890476D01*
X102052381Y-74938095D02*
X102052381Y-75509524D01*
X102052381Y-75223810D02*
X101052381Y-75223810D01*
X101195238Y-75319048D01*
X101290476Y-75414286D01*
X101338095Y-75509524D01*
X124912381Y-76842857D02*
X124436190Y-77176191D01*
X124912381Y-77414286D02*
X123912381Y-77414286D01*
X123912381Y-77033333D01*
X123960000Y-76938095D01*
X124007619Y-76890476D01*
X124102857Y-76842857D01*
X124245714Y-76842857D01*
X124340952Y-76890476D01*
X124388571Y-76938095D01*
X124436190Y-77033333D01*
X124436190Y-77414286D01*
X124007619Y-76461905D02*
X123960000Y-76414286D01*
X123912381Y-76319048D01*
X123912381Y-76080952D01*
X123960000Y-75985714D01*
X124007619Y-75938095D01*
X124102857Y-75890476D01*
X124198095Y-75890476D01*
X124340952Y-75938095D01*
X124912381Y-76509524D01*
X124912381Y-75890476D01*
X124007619Y-75509524D02*
X123960000Y-75461905D01*
X123912381Y-75366667D01*
X123912381Y-75128571D01*
X123960000Y-75033333D01*
X124007619Y-74985714D01*
X124102857Y-74938095D01*
X124198095Y-74938095D01*
X124340952Y-74985714D01*
X124912381Y-75557143D01*
X124912381Y-74938095D01*
X129992381Y-76842857D02*
X129516190Y-77176191D01*
X129992381Y-77414286D02*
X128992381Y-77414286D01*
X128992381Y-77033333D01*
X129040000Y-76938095D01*
X129087619Y-76890476D01*
X129182857Y-76842857D01*
X129325714Y-76842857D01*
X129420952Y-76890476D01*
X129468571Y-76938095D01*
X129516190Y-77033333D01*
X129516190Y-77414286D01*
X129087619Y-76461905D02*
X129040000Y-76414286D01*
X128992381Y-76319048D01*
X128992381Y-76080952D01*
X129040000Y-75985714D01*
X129087619Y-75938095D01*
X129182857Y-75890476D01*
X129278095Y-75890476D01*
X129420952Y-75938095D01*
X129992381Y-76509524D01*
X129992381Y-75890476D01*
X128992381Y-75557143D02*
X128992381Y-74938095D01*
X129373333Y-75271429D01*
X129373333Y-75128571D01*
X129420952Y-75033333D01*
X129468571Y-74985714D01*
X129563810Y-74938095D01*
X129801905Y-74938095D01*
X129897143Y-74985714D01*
X129944762Y-75033333D01*
X129992381Y-75128571D01*
X129992381Y-75414286D01*
X129944762Y-75509524D01*
X129897143Y-75557143D01*
X122372381Y-76842857D02*
X121896190Y-77176191D01*
X122372381Y-77414286D02*
X121372381Y-77414286D01*
X121372381Y-77033333D01*
X121420000Y-76938095D01*
X121467619Y-76890476D01*
X121562857Y-76842857D01*
X121705714Y-76842857D01*
X121800952Y-76890476D01*
X121848571Y-76938095D01*
X121896190Y-77033333D01*
X121896190Y-77414286D01*
X121467619Y-76461905D02*
X121420000Y-76414286D01*
X121372381Y-76319048D01*
X121372381Y-76080952D01*
X121420000Y-75985714D01*
X121467619Y-75938095D01*
X121562857Y-75890476D01*
X121658095Y-75890476D01*
X121800952Y-75938095D01*
X122372381Y-76509524D01*
X122372381Y-75890476D01*
X121705714Y-75033333D02*
X122372381Y-75033333D01*
X121324762Y-75271429D02*
X122039048Y-75509524D01*
X122039048Y-74890476D01*
X127452381Y-76842857D02*
X126976190Y-77176191D01*
X127452381Y-77414286D02*
X126452381Y-77414286D01*
X126452381Y-77033333D01*
X126500000Y-76938095D01*
X126547619Y-76890476D01*
X126642857Y-76842857D01*
X126785714Y-76842857D01*
X126880952Y-76890476D01*
X126928571Y-76938095D01*
X126976190Y-77033333D01*
X126976190Y-77414286D01*
X126547619Y-76461905D02*
X126500000Y-76414286D01*
X126452381Y-76319048D01*
X126452381Y-76080952D01*
X126500000Y-75985714D01*
X126547619Y-75938095D01*
X126642857Y-75890476D01*
X126738095Y-75890476D01*
X126880952Y-75938095D01*
X127452381Y-76509524D01*
X127452381Y-75890476D01*
X126452381Y-74985714D02*
X126452381Y-75461905D01*
X126928571Y-75509524D01*
X126880952Y-75461905D01*
X126833333Y-75366667D01*
X126833333Y-75128571D01*
X126880952Y-75033333D01*
X126928571Y-74985714D01*
X127023810Y-74938095D01*
X127261905Y-74938095D01*
X127357143Y-74985714D01*
X127404762Y-75033333D01*
X127452381Y-75128571D01*
X127452381Y-75366667D01*
X127404762Y-75461905D01*
X127357143Y-75509524D01*
X119832381Y-76842857D02*
X119356190Y-77176191D01*
X119832381Y-77414286D02*
X118832381Y-77414286D01*
X118832381Y-77033333D01*
X118880000Y-76938095D01*
X118927619Y-76890476D01*
X119022857Y-76842857D01*
X119165714Y-76842857D01*
X119260952Y-76890476D01*
X119308571Y-76938095D01*
X119356190Y-77033333D01*
X119356190Y-77414286D01*
X118927619Y-76461905D02*
X118880000Y-76414286D01*
X118832381Y-76319048D01*
X118832381Y-76080952D01*
X118880000Y-75985714D01*
X118927619Y-75938095D01*
X119022857Y-75890476D01*
X119118095Y-75890476D01*
X119260952Y-75938095D01*
X119832381Y-76509524D01*
X119832381Y-75890476D01*
X118832381Y-75033333D02*
X118832381Y-75223810D01*
X118880000Y-75319048D01*
X118927619Y-75366667D01*
X119070476Y-75461905D01*
X119260952Y-75509524D01*
X119641905Y-75509524D01*
X119737143Y-75461905D01*
X119784762Y-75414286D01*
X119832381Y-75319048D01*
X119832381Y-75128571D01*
X119784762Y-75033333D01*
X119737143Y-74985714D01*
X119641905Y-74938095D01*
X119403810Y-74938095D01*
X119308571Y-74985714D01*
X119260952Y-75033333D01*
X119213333Y-75128571D01*
X119213333Y-75319048D01*
X119260952Y-75414286D01*
X119308571Y-75461905D01*
X119403810Y-75509524D01*
X137612381Y-76842857D02*
X137136190Y-77176191D01*
X137612381Y-77414286D02*
X136612381Y-77414286D01*
X136612381Y-77033333D01*
X136660000Y-76938095D01*
X136707619Y-76890476D01*
X136802857Y-76842857D01*
X136945714Y-76842857D01*
X137040952Y-76890476D01*
X137088571Y-76938095D01*
X137136190Y-77033333D01*
X137136190Y-77414286D01*
X136707619Y-76461905D02*
X136660000Y-76414286D01*
X136612381Y-76319048D01*
X136612381Y-76080952D01*
X136660000Y-75985714D01*
X136707619Y-75938095D01*
X136802857Y-75890476D01*
X136898095Y-75890476D01*
X137040952Y-75938095D01*
X137612381Y-76509524D01*
X137612381Y-75890476D01*
X136612381Y-75557143D02*
X136612381Y-74890476D01*
X137612381Y-75319048D01*
X135072381Y-76842857D02*
X134596190Y-77176191D01*
X135072381Y-77414286D02*
X134072381Y-77414286D01*
X134072381Y-77033333D01*
X134120000Y-76938095D01*
X134167619Y-76890476D01*
X134262857Y-76842857D01*
X134405714Y-76842857D01*
X134500952Y-76890476D01*
X134548571Y-76938095D01*
X134596190Y-77033333D01*
X134596190Y-77414286D01*
X134167619Y-76461905D02*
X134120000Y-76414286D01*
X134072381Y-76319048D01*
X134072381Y-76080952D01*
X134120000Y-75985714D01*
X134167619Y-75938095D01*
X134262857Y-75890476D01*
X134358095Y-75890476D01*
X134500952Y-75938095D01*
X135072381Y-76509524D01*
X135072381Y-75890476D01*
X134500952Y-75319048D02*
X134453333Y-75414286D01*
X134405714Y-75461905D01*
X134310476Y-75509524D01*
X134262857Y-75509524D01*
X134167619Y-75461905D01*
X134120000Y-75414286D01*
X134072381Y-75319048D01*
X134072381Y-75128571D01*
X134120000Y-75033333D01*
X134167619Y-74985714D01*
X134262857Y-74938095D01*
X134310476Y-74938095D01*
X134405714Y-74985714D01*
X134453333Y-75033333D01*
X134500952Y-75128571D01*
X134500952Y-75319048D01*
X134548571Y-75414286D01*
X134596190Y-75461905D01*
X134691429Y-75509524D01*
X134881905Y-75509524D01*
X134977143Y-75461905D01*
X135024762Y-75414286D01*
X135072381Y-75319048D01*
X135072381Y-75128571D01*
X135024762Y-75033333D01*
X134977143Y-74985714D01*
X134881905Y-74938095D01*
X134691429Y-74938095D01*
X134596190Y-74985714D01*
X134548571Y-75033333D01*
X134500952Y-75128571D01*
X152852381Y-76842857D02*
X152376190Y-77176191D01*
X152852381Y-77414286D02*
X151852381Y-77414286D01*
X151852381Y-77033333D01*
X151900000Y-76938095D01*
X151947619Y-76890476D01*
X152042857Y-76842857D01*
X152185714Y-76842857D01*
X152280952Y-76890476D01*
X152328571Y-76938095D01*
X152376190Y-77033333D01*
X152376190Y-77414286D01*
X151947619Y-76461905D02*
X151900000Y-76414286D01*
X151852381Y-76319048D01*
X151852381Y-76080952D01*
X151900000Y-75985714D01*
X151947619Y-75938095D01*
X152042857Y-75890476D01*
X152138095Y-75890476D01*
X152280952Y-75938095D01*
X152852381Y-76509524D01*
X152852381Y-75890476D01*
X152852381Y-75414286D02*
X152852381Y-75223810D01*
X152804762Y-75128571D01*
X152757143Y-75080952D01*
X152614286Y-74985714D01*
X152423810Y-74938095D01*
X152042857Y-74938095D01*
X151947619Y-74985714D01*
X151900000Y-75033333D01*
X151852381Y-75128571D01*
X151852381Y-75319048D01*
X151900000Y-75414286D01*
X151947619Y-75461905D01*
X152042857Y-75509524D01*
X152280952Y-75509524D01*
X152376190Y-75461905D01*
X152423810Y-75414286D01*
X152471429Y-75319048D01*
X152471429Y-75128571D01*
X152423810Y-75033333D01*
X152376190Y-74985714D01*
X152280952Y-74938095D01*
X157932381Y-76842857D02*
X157456190Y-77176191D01*
X157932381Y-77414286D02*
X156932381Y-77414286D01*
X156932381Y-77033333D01*
X156980000Y-76938095D01*
X157027619Y-76890476D01*
X157122857Y-76842857D01*
X157265714Y-76842857D01*
X157360952Y-76890476D01*
X157408571Y-76938095D01*
X157456190Y-77033333D01*
X157456190Y-77414286D01*
X156932381Y-76509524D02*
X156932381Y-75890476D01*
X157313333Y-76223810D01*
X157313333Y-76080952D01*
X157360952Y-75985714D01*
X157408571Y-75938095D01*
X157503810Y-75890476D01*
X157741905Y-75890476D01*
X157837143Y-75938095D01*
X157884762Y-75985714D01*
X157932381Y-76080952D01*
X157932381Y-76366667D01*
X157884762Y-76461905D01*
X157837143Y-76509524D01*
X156932381Y-75271429D02*
X156932381Y-75176190D01*
X156980000Y-75080952D01*
X157027619Y-75033333D01*
X157122857Y-74985714D01*
X157313333Y-74938095D01*
X157551429Y-74938095D01*
X157741905Y-74985714D01*
X157837143Y-75033333D01*
X157884762Y-75080952D01*
X157932381Y-75176190D01*
X157932381Y-75271429D01*
X157884762Y-75366667D01*
X157837143Y-75414286D01*
X157741905Y-75461905D01*
X157551429Y-75509524D01*
X157313333Y-75509524D01*
X157122857Y-75461905D01*
X157027619Y-75414286D01*
X156980000Y-75366667D01*
X156932381Y-75271429D01*
X150312381Y-76842857D02*
X149836190Y-77176191D01*
X150312381Y-77414286D02*
X149312381Y-77414286D01*
X149312381Y-77033333D01*
X149360000Y-76938095D01*
X149407619Y-76890476D01*
X149502857Y-76842857D01*
X149645714Y-76842857D01*
X149740952Y-76890476D01*
X149788571Y-76938095D01*
X149836190Y-77033333D01*
X149836190Y-77414286D01*
X149312381Y-76509524D02*
X149312381Y-75890476D01*
X149693333Y-76223810D01*
X149693333Y-76080952D01*
X149740952Y-75985714D01*
X149788571Y-75938095D01*
X149883810Y-75890476D01*
X150121905Y-75890476D01*
X150217143Y-75938095D01*
X150264762Y-75985714D01*
X150312381Y-76080952D01*
X150312381Y-76366667D01*
X150264762Y-76461905D01*
X150217143Y-76509524D01*
X150312381Y-74938095D02*
X150312381Y-75509524D01*
X150312381Y-75223810D02*
X149312381Y-75223810D01*
X149455238Y-75319048D01*
X149550476Y-75414286D01*
X149598095Y-75509524D01*
X155392381Y-76842857D02*
X154916190Y-77176191D01*
X155392381Y-77414286D02*
X154392381Y-77414286D01*
X154392381Y-77033333D01*
X154440000Y-76938095D01*
X154487619Y-76890476D01*
X154582857Y-76842857D01*
X154725714Y-76842857D01*
X154820952Y-76890476D01*
X154868571Y-76938095D01*
X154916190Y-77033333D01*
X154916190Y-77414286D01*
X154392381Y-76509524D02*
X154392381Y-75890476D01*
X154773333Y-76223810D01*
X154773333Y-76080952D01*
X154820952Y-75985714D01*
X154868571Y-75938095D01*
X154963810Y-75890476D01*
X155201905Y-75890476D01*
X155297143Y-75938095D01*
X155344762Y-75985714D01*
X155392381Y-76080952D01*
X155392381Y-76366667D01*
X155344762Y-76461905D01*
X155297143Y-76509524D01*
X154487619Y-75509524D02*
X154440000Y-75461905D01*
X154392381Y-75366667D01*
X154392381Y-75128571D01*
X154440000Y-75033333D01*
X154487619Y-74985714D01*
X154582857Y-74938095D01*
X154678095Y-74938095D01*
X154820952Y-74985714D01*
X155392381Y-75557143D01*
X155392381Y-74938095D01*
X147772381Y-76842857D02*
X147296190Y-77176191D01*
X147772381Y-77414286D02*
X146772381Y-77414286D01*
X146772381Y-77033333D01*
X146820000Y-76938095D01*
X146867619Y-76890476D01*
X146962857Y-76842857D01*
X147105714Y-76842857D01*
X147200952Y-76890476D01*
X147248571Y-76938095D01*
X147296190Y-77033333D01*
X147296190Y-77414286D01*
X146772381Y-76509524D02*
X146772381Y-75890476D01*
X147153333Y-76223810D01*
X147153333Y-76080952D01*
X147200952Y-75985714D01*
X147248571Y-75938095D01*
X147343810Y-75890476D01*
X147581905Y-75890476D01*
X147677143Y-75938095D01*
X147724762Y-75985714D01*
X147772381Y-76080952D01*
X147772381Y-76366667D01*
X147724762Y-76461905D01*
X147677143Y-76509524D01*
X146772381Y-75557143D02*
X146772381Y-74938095D01*
X147153333Y-75271429D01*
X147153333Y-75128571D01*
X147200952Y-75033333D01*
X147248571Y-74985714D01*
X147343810Y-74938095D01*
X147581905Y-74938095D01*
X147677143Y-74985714D01*
X147724762Y-75033333D01*
X147772381Y-75128571D01*
X147772381Y-75414286D01*
X147724762Y-75509524D01*
X147677143Y-75557143D01*
X165552381Y-76842857D02*
X165076190Y-77176191D01*
X165552381Y-77414286D02*
X164552381Y-77414286D01*
X164552381Y-77033333D01*
X164600000Y-76938095D01*
X164647619Y-76890476D01*
X164742857Y-76842857D01*
X164885714Y-76842857D01*
X164980952Y-76890476D01*
X165028571Y-76938095D01*
X165076190Y-77033333D01*
X165076190Y-77414286D01*
X164552381Y-76509524D02*
X164552381Y-75890476D01*
X164933333Y-76223810D01*
X164933333Y-76080952D01*
X164980952Y-75985714D01*
X165028571Y-75938095D01*
X165123810Y-75890476D01*
X165361905Y-75890476D01*
X165457143Y-75938095D01*
X165504762Y-75985714D01*
X165552381Y-76080952D01*
X165552381Y-76366667D01*
X165504762Y-76461905D01*
X165457143Y-76509524D01*
X164885714Y-75033333D02*
X165552381Y-75033333D01*
X164504762Y-75271429D02*
X165219048Y-75509524D01*
X165219048Y-74890476D01*
X163012381Y-76842857D02*
X162536190Y-77176191D01*
X163012381Y-77414286D02*
X162012381Y-77414286D01*
X162012381Y-77033333D01*
X162060000Y-76938095D01*
X162107619Y-76890476D01*
X162202857Y-76842857D01*
X162345714Y-76842857D01*
X162440952Y-76890476D01*
X162488571Y-76938095D01*
X162536190Y-77033333D01*
X162536190Y-77414286D01*
X162012381Y-76509524D02*
X162012381Y-75890476D01*
X162393333Y-76223810D01*
X162393333Y-76080952D01*
X162440952Y-75985714D01*
X162488571Y-75938095D01*
X162583810Y-75890476D01*
X162821905Y-75890476D01*
X162917143Y-75938095D01*
X162964762Y-75985714D01*
X163012381Y-76080952D01*
X163012381Y-76366667D01*
X162964762Y-76461905D01*
X162917143Y-76509524D01*
X162012381Y-74985714D02*
X162012381Y-75461905D01*
X162488571Y-75509524D01*
X162440952Y-75461905D01*
X162393333Y-75366667D01*
X162393333Y-75128571D01*
X162440952Y-75033333D01*
X162488571Y-74985714D01*
X162583810Y-74938095D01*
X162821905Y-74938095D01*
X162917143Y-74985714D01*
X162964762Y-75033333D01*
X163012381Y-75128571D01*
X163012381Y-75366667D01*
X162964762Y-75461905D01*
X162917143Y-75509524D01*
X185872381Y-76842857D02*
X185396190Y-77176191D01*
X185872381Y-77414286D02*
X184872381Y-77414286D01*
X184872381Y-77033333D01*
X184920000Y-76938095D01*
X184967619Y-76890476D01*
X185062857Y-76842857D01*
X185205714Y-76842857D01*
X185300952Y-76890476D01*
X185348571Y-76938095D01*
X185396190Y-77033333D01*
X185396190Y-77414286D01*
X184872381Y-76509524D02*
X184872381Y-75890476D01*
X185253333Y-76223810D01*
X185253333Y-76080952D01*
X185300952Y-75985714D01*
X185348571Y-75938095D01*
X185443810Y-75890476D01*
X185681905Y-75890476D01*
X185777143Y-75938095D01*
X185824762Y-75985714D01*
X185872381Y-76080952D01*
X185872381Y-76366667D01*
X185824762Y-76461905D01*
X185777143Y-76509524D01*
X184872381Y-75033333D02*
X184872381Y-75223810D01*
X184920000Y-75319048D01*
X184967619Y-75366667D01*
X185110476Y-75461905D01*
X185300952Y-75509524D01*
X185681905Y-75509524D01*
X185777143Y-75461905D01*
X185824762Y-75414286D01*
X185872381Y-75319048D01*
X185872381Y-75128571D01*
X185824762Y-75033333D01*
X185777143Y-74985714D01*
X185681905Y-74938095D01*
X185443810Y-74938095D01*
X185348571Y-74985714D01*
X185300952Y-75033333D01*
X185253333Y-75128571D01*
X185253333Y-75319048D01*
X185300952Y-75414286D01*
X185348571Y-75461905D01*
X185443810Y-75509524D01*
X190952381Y-76842857D02*
X190476190Y-77176191D01*
X190952381Y-77414286D02*
X189952381Y-77414286D01*
X189952381Y-77033333D01*
X190000000Y-76938095D01*
X190047619Y-76890476D01*
X190142857Y-76842857D01*
X190285714Y-76842857D01*
X190380952Y-76890476D01*
X190428571Y-76938095D01*
X190476190Y-77033333D01*
X190476190Y-77414286D01*
X189952381Y-76509524D02*
X189952381Y-75890476D01*
X190333333Y-76223810D01*
X190333333Y-76080952D01*
X190380952Y-75985714D01*
X190428571Y-75938095D01*
X190523810Y-75890476D01*
X190761905Y-75890476D01*
X190857143Y-75938095D01*
X190904762Y-75985714D01*
X190952381Y-76080952D01*
X190952381Y-76366667D01*
X190904762Y-76461905D01*
X190857143Y-76509524D01*
X189952381Y-75557143D02*
X189952381Y-74890476D01*
X190952381Y-75319048D01*
X183332381Y-76842857D02*
X182856190Y-77176191D01*
X183332381Y-77414286D02*
X182332381Y-77414286D01*
X182332381Y-77033333D01*
X182380000Y-76938095D01*
X182427619Y-76890476D01*
X182522857Y-76842857D01*
X182665714Y-76842857D01*
X182760952Y-76890476D01*
X182808571Y-76938095D01*
X182856190Y-77033333D01*
X182856190Y-77414286D01*
X182332381Y-76509524D02*
X182332381Y-75890476D01*
X182713333Y-76223810D01*
X182713333Y-76080952D01*
X182760952Y-75985714D01*
X182808571Y-75938095D01*
X182903810Y-75890476D01*
X183141905Y-75890476D01*
X183237143Y-75938095D01*
X183284762Y-75985714D01*
X183332381Y-76080952D01*
X183332381Y-76366667D01*
X183284762Y-76461905D01*
X183237143Y-76509524D01*
X182760952Y-75319048D02*
X182713333Y-75414286D01*
X182665714Y-75461905D01*
X182570476Y-75509524D01*
X182522857Y-75509524D01*
X182427619Y-75461905D01*
X182380000Y-75414286D01*
X182332381Y-75319048D01*
X182332381Y-75128571D01*
X182380000Y-75033333D01*
X182427619Y-74985714D01*
X182522857Y-74938095D01*
X182570476Y-74938095D01*
X182665714Y-74985714D01*
X182713333Y-75033333D01*
X182760952Y-75128571D01*
X182760952Y-75319048D01*
X182808571Y-75414286D01*
X182856190Y-75461905D01*
X182951429Y-75509524D01*
X183141905Y-75509524D01*
X183237143Y-75461905D01*
X183284762Y-75414286D01*
X183332381Y-75319048D01*
X183332381Y-75128571D01*
X183284762Y-75033333D01*
X183237143Y-74985714D01*
X183141905Y-74938095D01*
X182951429Y-74938095D01*
X182856190Y-74985714D01*
X182808571Y-75033333D01*
X182760952Y-75128571D01*
X188412381Y-76842857D02*
X187936190Y-77176191D01*
X188412381Y-77414286D02*
X187412381Y-77414286D01*
X187412381Y-77033333D01*
X187460000Y-76938095D01*
X187507619Y-76890476D01*
X187602857Y-76842857D01*
X187745714Y-76842857D01*
X187840952Y-76890476D01*
X187888571Y-76938095D01*
X187936190Y-77033333D01*
X187936190Y-77414286D01*
X187412381Y-76509524D02*
X187412381Y-75890476D01*
X187793333Y-76223810D01*
X187793333Y-76080952D01*
X187840952Y-75985714D01*
X187888571Y-75938095D01*
X187983810Y-75890476D01*
X188221905Y-75890476D01*
X188317143Y-75938095D01*
X188364762Y-75985714D01*
X188412381Y-76080952D01*
X188412381Y-76366667D01*
X188364762Y-76461905D01*
X188317143Y-76509524D01*
X188412381Y-75414286D02*
X188412381Y-75223810D01*
X188364762Y-75128571D01*
X188317143Y-75080952D01*
X188174286Y-74985714D01*
X187983810Y-74938095D01*
X187602857Y-74938095D01*
X187507619Y-74985714D01*
X187460000Y-75033333D01*
X187412381Y-75128571D01*
X187412381Y-75319048D01*
X187460000Y-75414286D01*
X187507619Y-75461905D01*
X187602857Y-75509524D01*
X187840952Y-75509524D01*
X187936190Y-75461905D01*
X187983810Y-75414286D01*
X188031429Y-75319048D01*
X188031429Y-75128571D01*
X187983810Y-75033333D01*
X187936190Y-74985714D01*
X187840952Y-74938095D01*
X180792381Y-76842857D02*
X180316190Y-77176191D01*
X180792381Y-77414286D02*
X179792381Y-77414286D01*
X179792381Y-77033333D01*
X179840000Y-76938095D01*
X179887619Y-76890476D01*
X179982857Y-76842857D01*
X180125714Y-76842857D01*
X180220952Y-76890476D01*
X180268571Y-76938095D01*
X180316190Y-77033333D01*
X180316190Y-77414286D01*
X180125714Y-75985714D02*
X180792381Y-75985714D01*
X179744762Y-76223810D02*
X180459048Y-76461905D01*
X180459048Y-75842857D01*
X179792381Y-75271429D02*
X179792381Y-75176190D01*
X179840000Y-75080952D01*
X179887619Y-75033333D01*
X179982857Y-74985714D01*
X180173333Y-74938095D01*
X180411429Y-74938095D01*
X180601905Y-74985714D01*
X180697143Y-75033333D01*
X180744762Y-75080952D01*
X180792381Y-75176190D01*
X180792381Y-75271429D01*
X180744762Y-75366667D01*
X180697143Y-75414286D01*
X180601905Y-75461905D01*
X180411429Y-75509524D01*
X180173333Y-75509524D01*
X179982857Y-75461905D01*
X179887619Y-75414286D01*
X179840000Y-75366667D01*
X179792381Y-75271429D01*
X198572381Y-76842857D02*
X198096190Y-77176191D01*
X198572381Y-77414286D02*
X197572381Y-77414286D01*
X197572381Y-77033333D01*
X197620000Y-76938095D01*
X197667619Y-76890476D01*
X197762857Y-76842857D01*
X197905714Y-76842857D01*
X198000952Y-76890476D01*
X198048571Y-76938095D01*
X198096190Y-77033333D01*
X198096190Y-77414286D01*
X197905714Y-75985714D02*
X198572381Y-75985714D01*
X197524762Y-76223810D02*
X198239048Y-76461905D01*
X198239048Y-75842857D01*
X198572381Y-74938095D02*
X198572381Y-75509524D01*
X198572381Y-75223810D02*
X197572381Y-75223810D01*
X197715238Y-75319048D01*
X197810476Y-75414286D01*
X197858095Y-75509524D01*
X196032381Y-76842857D02*
X195556190Y-77176191D01*
X196032381Y-77414286D02*
X195032381Y-77414286D01*
X195032381Y-77033333D01*
X195080000Y-76938095D01*
X195127619Y-76890476D01*
X195222857Y-76842857D01*
X195365714Y-76842857D01*
X195460952Y-76890476D01*
X195508571Y-76938095D01*
X195556190Y-77033333D01*
X195556190Y-77414286D01*
X195365714Y-75985714D02*
X196032381Y-75985714D01*
X194984762Y-76223810D02*
X195699048Y-76461905D01*
X195699048Y-75842857D01*
X195127619Y-75509524D02*
X195080000Y-75461905D01*
X195032381Y-75366667D01*
X195032381Y-75128571D01*
X195080000Y-75033333D01*
X195127619Y-74985714D01*
X195222857Y-74938095D01*
X195318095Y-74938095D01*
X195460952Y-74985714D01*
X196032381Y-75557143D01*
X196032381Y-74938095D01*
X213812381Y-76842857D02*
X213336190Y-77176191D01*
X213812381Y-77414286D02*
X212812381Y-77414286D01*
X212812381Y-77033333D01*
X212860000Y-76938095D01*
X212907619Y-76890476D01*
X213002857Y-76842857D01*
X213145714Y-76842857D01*
X213240952Y-76890476D01*
X213288571Y-76938095D01*
X213336190Y-77033333D01*
X213336190Y-77414286D01*
X213145714Y-75985714D02*
X213812381Y-75985714D01*
X212764762Y-76223810D02*
X213479048Y-76461905D01*
X213479048Y-75842857D01*
X212812381Y-75557143D02*
X212812381Y-74938095D01*
X213193333Y-75271429D01*
X213193333Y-75128571D01*
X213240952Y-75033333D01*
X213288571Y-74985714D01*
X213383810Y-74938095D01*
X213621905Y-74938095D01*
X213717143Y-74985714D01*
X213764762Y-75033333D01*
X213812381Y-75128571D01*
X213812381Y-75414286D01*
X213764762Y-75509524D01*
X213717143Y-75557143D01*
X218892381Y-76842857D02*
X218416190Y-77176191D01*
X218892381Y-77414286D02*
X217892381Y-77414286D01*
X217892381Y-77033333D01*
X217940000Y-76938095D01*
X217987619Y-76890476D01*
X218082857Y-76842857D01*
X218225714Y-76842857D01*
X218320952Y-76890476D01*
X218368571Y-76938095D01*
X218416190Y-77033333D01*
X218416190Y-77414286D01*
X218225714Y-75985714D02*
X218892381Y-75985714D01*
X217844762Y-76223810D02*
X218559048Y-76461905D01*
X218559048Y-75842857D01*
X218225714Y-75033333D02*
X218892381Y-75033333D01*
X217844762Y-75271429D02*
X218559048Y-75509524D01*
X218559048Y-74890476D01*
X211272381Y-76842857D02*
X210796190Y-77176191D01*
X211272381Y-77414286D02*
X210272381Y-77414286D01*
X210272381Y-77033333D01*
X210320000Y-76938095D01*
X210367619Y-76890476D01*
X210462857Y-76842857D01*
X210605714Y-76842857D01*
X210700952Y-76890476D01*
X210748571Y-76938095D01*
X210796190Y-77033333D01*
X210796190Y-77414286D01*
X210605714Y-75985714D02*
X211272381Y-75985714D01*
X210224762Y-76223810D02*
X210939048Y-76461905D01*
X210939048Y-75842857D01*
X210272381Y-74985714D02*
X210272381Y-75461905D01*
X210748571Y-75509524D01*
X210700952Y-75461905D01*
X210653333Y-75366667D01*
X210653333Y-75128571D01*
X210700952Y-75033333D01*
X210748571Y-74985714D01*
X210843810Y-74938095D01*
X211081905Y-74938095D01*
X211177143Y-74985714D01*
X211224762Y-75033333D01*
X211272381Y-75128571D01*
X211272381Y-75366667D01*
X211224762Y-75461905D01*
X211177143Y-75509524D01*
X216352381Y-76842857D02*
X215876190Y-77176191D01*
X216352381Y-77414286D02*
X215352381Y-77414286D01*
X215352381Y-77033333D01*
X215400000Y-76938095D01*
X215447619Y-76890476D01*
X215542857Y-76842857D01*
X215685714Y-76842857D01*
X215780952Y-76890476D01*
X215828571Y-76938095D01*
X215876190Y-77033333D01*
X215876190Y-77414286D01*
X215685714Y-75985714D02*
X216352381Y-75985714D01*
X215304762Y-76223810D02*
X216019048Y-76461905D01*
X216019048Y-75842857D01*
X215352381Y-75033333D02*
X215352381Y-75223810D01*
X215400000Y-75319048D01*
X215447619Y-75366667D01*
X215590476Y-75461905D01*
X215780952Y-75509524D01*
X216161905Y-75509524D01*
X216257143Y-75461905D01*
X216304762Y-75414286D01*
X216352381Y-75319048D01*
X216352381Y-75128571D01*
X216304762Y-75033333D01*
X216257143Y-74985714D01*
X216161905Y-74938095D01*
X215923810Y-74938095D01*
X215828571Y-74985714D01*
X215780952Y-75033333D01*
X215733333Y-75128571D01*
X215733333Y-75319048D01*
X215780952Y-75414286D01*
X215828571Y-75461905D01*
X215923810Y-75509524D01*
X208732381Y-76842857D02*
X208256190Y-77176191D01*
X208732381Y-77414286D02*
X207732381Y-77414286D01*
X207732381Y-77033333D01*
X207780000Y-76938095D01*
X207827619Y-76890476D01*
X207922857Y-76842857D01*
X208065714Y-76842857D01*
X208160952Y-76890476D01*
X208208571Y-76938095D01*
X208256190Y-77033333D01*
X208256190Y-77414286D01*
X208065714Y-75985714D02*
X208732381Y-75985714D01*
X207684762Y-76223810D02*
X208399048Y-76461905D01*
X208399048Y-75842857D01*
X207732381Y-75557143D02*
X207732381Y-74890476D01*
X208732381Y-75319048D01*
X226512381Y-76842857D02*
X226036190Y-77176191D01*
X226512381Y-77414286D02*
X225512381Y-77414286D01*
X225512381Y-77033333D01*
X225560000Y-76938095D01*
X225607619Y-76890476D01*
X225702857Y-76842857D01*
X225845714Y-76842857D01*
X225940952Y-76890476D01*
X225988571Y-76938095D01*
X226036190Y-77033333D01*
X226036190Y-77414286D01*
X225845714Y-75985714D02*
X226512381Y-75985714D01*
X225464762Y-76223810D02*
X226179048Y-76461905D01*
X226179048Y-75842857D01*
X225940952Y-75319048D02*
X225893333Y-75414286D01*
X225845714Y-75461905D01*
X225750476Y-75509524D01*
X225702857Y-75509524D01*
X225607619Y-75461905D01*
X225560000Y-75414286D01*
X225512381Y-75319048D01*
X225512381Y-75128571D01*
X225560000Y-75033333D01*
X225607619Y-74985714D01*
X225702857Y-74938095D01*
X225750476Y-74938095D01*
X225845714Y-74985714D01*
X225893333Y-75033333D01*
X225940952Y-75128571D01*
X225940952Y-75319048D01*
X225988571Y-75414286D01*
X226036190Y-75461905D01*
X226131429Y-75509524D01*
X226321905Y-75509524D01*
X226417143Y-75461905D01*
X226464762Y-75414286D01*
X226512381Y-75319048D01*
X226512381Y-75128571D01*
X226464762Y-75033333D01*
X226417143Y-74985714D01*
X226321905Y-74938095D01*
X226131429Y-74938095D01*
X226036190Y-74985714D01*
X225988571Y-75033333D01*
X225940952Y-75128571D01*
X223972381Y-76842857D02*
X223496190Y-77176191D01*
X223972381Y-77414286D02*
X222972381Y-77414286D01*
X222972381Y-77033333D01*
X223020000Y-76938095D01*
X223067619Y-76890476D01*
X223162857Y-76842857D01*
X223305714Y-76842857D01*
X223400952Y-76890476D01*
X223448571Y-76938095D01*
X223496190Y-77033333D01*
X223496190Y-77414286D01*
X223305714Y-75985714D02*
X223972381Y-75985714D01*
X222924762Y-76223810D02*
X223639048Y-76461905D01*
X223639048Y-75842857D01*
X223972381Y-75414286D02*
X223972381Y-75223810D01*
X223924762Y-75128571D01*
X223877143Y-75080952D01*
X223734286Y-74985714D01*
X223543810Y-74938095D01*
X223162857Y-74938095D01*
X223067619Y-74985714D01*
X223020000Y-75033333D01*
X222972381Y-75128571D01*
X222972381Y-75319048D01*
X223020000Y-75414286D01*
X223067619Y-75461905D01*
X223162857Y-75509524D01*
X223400952Y-75509524D01*
X223496190Y-75461905D01*
X223543810Y-75414286D01*
X223591429Y-75319048D01*
X223591429Y-75128571D01*
X223543810Y-75033333D01*
X223496190Y-74985714D01*
X223400952Y-74938095D01*
X60198095Y-84542381D02*
X60198095Y-85351905D01*
X60245714Y-85447143D01*
X60293333Y-85494762D01*
X60388571Y-85542381D01*
X60579048Y-85542381D01*
X60674286Y-85494762D01*
X60721905Y-85447143D01*
X60769524Y-85351905D01*
X60769524Y-84542381D01*
X61769524Y-85542381D02*
X61198095Y-85542381D01*
X61483809Y-85542381D02*
X61483809Y-84542381D01*
X61388571Y-84685238D01*
X61293333Y-84780476D01*
X61198095Y-84828095D01*
X72898095Y-59142381D02*
X72898095Y-59951905D01*
X72945714Y-60047143D01*
X72993333Y-60094762D01*
X73088571Y-60142381D01*
X73279048Y-60142381D01*
X73374286Y-60094762D01*
X73421905Y-60047143D01*
X73469524Y-59951905D01*
X73469524Y-59142381D01*
X73898095Y-59237619D02*
X73945714Y-59190000D01*
X74040952Y-59142381D01*
X74279048Y-59142381D01*
X74374286Y-59190000D01*
X74421905Y-59237619D01*
X74469524Y-59332857D01*
X74469524Y-59428095D01*
X74421905Y-59570952D01*
X73850476Y-60142381D01*
X74469524Y-60142381D01*
X88138095Y-84542381D02*
X88138095Y-85351905D01*
X88185714Y-85447143D01*
X88233333Y-85494762D01*
X88328571Y-85542381D01*
X88519048Y-85542381D01*
X88614286Y-85494762D01*
X88661905Y-85447143D01*
X88709524Y-85351905D01*
X88709524Y-84542381D01*
X89090476Y-84542381D02*
X89709524Y-84542381D01*
X89376190Y-84923333D01*
X89519048Y-84923333D01*
X89614286Y-84970952D01*
X89661905Y-85018571D01*
X89709524Y-85113810D01*
X89709524Y-85351905D01*
X89661905Y-85447143D01*
X89614286Y-85494762D01*
X89519048Y-85542381D01*
X89233333Y-85542381D01*
X89138095Y-85494762D01*
X89090476Y-85447143D01*
X100838095Y-59142381D02*
X100838095Y-59951905D01*
X100885714Y-60047143D01*
X100933333Y-60094762D01*
X101028571Y-60142381D01*
X101219048Y-60142381D01*
X101314286Y-60094762D01*
X101361905Y-60047143D01*
X101409524Y-59951905D01*
X101409524Y-59142381D01*
X102314286Y-59475714D02*
X102314286Y-60142381D01*
X102076190Y-59094762D02*
X101838095Y-59809048D01*
X102457143Y-59809048D01*
X121158095Y-84542381D02*
X121158095Y-85351905D01*
X121205714Y-85447143D01*
X121253333Y-85494762D01*
X121348571Y-85542381D01*
X121539048Y-85542381D01*
X121634286Y-85494762D01*
X121681905Y-85447143D01*
X121729524Y-85351905D01*
X121729524Y-84542381D01*
X122681905Y-84542381D02*
X122205714Y-84542381D01*
X122158095Y-85018571D01*
X122205714Y-84970952D01*
X122300952Y-84923333D01*
X122539048Y-84923333D01*
X122634286Y-84970952D01*
X122681905Y-85018571D01*
X122729524Y-85113810D01*
X122729524Y-85351905D01*
X122681905Y-85447143D01*
X122634286Y-85494762D01*
X122539048Y-85542381D01*
X122300952Y-85542381D01*
X122205714Y-85494762D01*
X122158095Y-85447143D01*
X133858095Y-59142381D02*
X133858095Y-59951905D01*
X133905714Y-60047143D01*
X133953333Y-60094762D01*
X134048571Y-60142381D01*
X134239048Y-60142381D01*
X134334286Y-60094762D01*
X134381905Y-60047143D01*
X134429524Y-59951905D01*
X134429524Y-59142381D01*
X135334286Y-59142381D02*
X135143809Y-59142381D01*
X135048571Y-59190000D01*
X135000952Y-59237619D01*
X134905714Y-59380476D01*
X134858095Y-59570952D01*
X134858095Y-59951905D01*
X134905714Y-60047143D01*
X134953333Y-60094762D01*
X135048571Y-60142381D01*
X135239048Y-60142381D01*
X135334286Y-60094762D01*
X135381905Y-60047143D01*
X135429524Y-59951905D01*
X135429524Y-59713810D01*
X135381905Y-59618571D01*
X135334286Y-59570952D01*
X135239048Y-59523333D01*
X135048571Y-59523333D01*
X134953333Y-59570952D01*
X134905714Y-59618571D01*
X134858095Y-59713810D01*
X149098095Y-84542381D02*
X149098095Y-85351905D01*
X149145714Y-85447143D01*
X149193333Y-85494762D01*
X149288571Y-85542381D01*
X149479048Y-85542381D01*
X149574286Y-85494762D01*
X149621905Y-85447143D01*
X149669524Y-85351905D01*
X149669524Y-84542381D01*
X150050476Y-84542381D02*
X150717143Y-84542381D01*
X150288571Y-85542381D01*
X161798095Y-59142381D02*
X161798095Y-59951905D01*
X161845714Y-60047143D01*
X161893333Y-60094762D01*
X161988571Y-60142381D01*
X162179048Y-60142381D01*
X162274286Y-60094762D01*
X162321905Y-60047143D01*
X162369524Y-59951905D01*
X162369524Y-59142381D01*
X162988571Y-59570952D02*
X162893333Y-59523333D01*
X162845714Y-59475714D01*
X162798095Y-59380476D01*
X162798095Y-59332857D01*
X162845714Y-59237619D01*
X162893333Y-59190000D01*
X162988571Y-59142381D01*
X163179048Y-59142381D01*
X163274286Y-59190000D01*
X163321905Y-59237619D01*
X163369524Y-59332857D01*
X163369524Y-59380476D01*
X163321905Y-59475714D01*
X163274286Y-59523333D01*
X163179048Y-59570952D01*
X162988571Y-59570952D01*
X162893333Y-59618571D01*
X162845714Y-59666190D01*
X162798095Y-59761429D01*
X162798095Y-59951905D01*
X162845714Y-60047143D01*
X162893333Y-60094762D01*
X162988571Y-60142381D01*
X163179048Y-60142381D01*
X163274286Y-60094762D01*
X163321905Y-60047143D01*
X163369524Y-59951905D01*
X163369524Y-59761429D01*
X163321905Y-59666190D01*
X163274286Y-59618571D01*
X163179048Y-59570952D01*
X182118095Y-84542381D02*
X182118095Y-85351905D01*
X182165714Y-85447143D01*
X182213333Y-85494762D01*
X182308571Y-85542381D01*
X182499048Y-85542381D01*
X182594286Y-85494762D01*
X182641905Y-85447143D01*
X182689524Y-85351905D01*
X182689524Y-84542381D01*
X183213333Y-85542381D02*
X183403809Y-85542381D01*
X183499048Y-85494762D01*
X183546667Y-85447143D01*
X183641905Y-85304286D01*
X183689524Y-85113810D01*
X183689524Y-84732857D01*
X183641905Y-84637619D01*
X183594286Y-84590000D01*
X183499048Y-84542381D01*
X183308571Y-84542381D01*
X183213333Y-84590000D01*
X183165714Y-84637619D01*
X183118095Y-84732857D01*
X183118095Y-84970952D01*
X183165714Y-85066190D01*
X183213333Y-85113810D01*
X183308571Y-85161429D01*
X183499048Y-85161429D01*
X183594286Y-85113810D01*
X183641905Y-85066190D01*
X183689524Y-84970952D01*
X194341905Y-59142381D02*
X194341905Y-59951905D01*
X194389524Y-60047143D01*
X194437143Y-60094762D01*
X194532381Y-60142381D01*
X194722858Y-60142381D01*
X194818096Y-60094762D01*
X194865715Y-60047143D01*
X194913334Y-59951905D01*
X194913334Y-59142381D01*
X195913334Y-60142381D02*
X195341905Y-60142381D01*
X195627619Y-60142381D02*
X195627619Y-59142381D01*
X195532381Y-59285238D01*
X195437143Y-59380476D01*
X195341905Y-59428095D01*
X196532381Y-59142381D02*
X196627620Y-59142381D01*
X196722858Y-59190000D01*
X196770477Y-59237619D01*
X196818096Y-59332857D01*
X196865715Y-59523333D01*
X196865715Y-59761429D01*
X196818096Y-59951905D01*
X196770477Y-60047143D01*
X196722858Y-60094762D01*
X196627620Y-60142381D01*
X196532381Y-60142381D01*
X196437143Y-60094762D01*
X196389524Y-60047143D01*
X196341905Y-59951905D01*
X196294286Y-59761429D01*
X196294286Y-59523333D01*
X196341905Y-59332857D01*
X196389524Y-59237619D01*
X196437143Y-59190000D01*
X196532381Y-59142381D01*
X209581905Y-84542381D02*
X209581905Y-85351905D01*
X209629524Y-85447143D01*
X209677143Y-85494762D01*
X209772381Y-85542381D01*
X209962858Y-85542381D01*
X210058096Y-85494762D01*
X210105715Y-85447143D01*
X210153334Y-85351905D01*
X210153334Y-84542381D01*
X211153334Y-85542381D02*
X210581905Y-85542381D01*
X210867619Y-85542381D02*
X210867619Y-84542381D01*
X210772381Y-84685238D01*
X210677143Y-84780476D01*
X210581905Y-84828095D01*
X212105715Y-85542381D02*
X211534286Y-85542381D01*
X211820000Y-85542381D02*
X211820000Y-84542381D01*
X211724762Y-84685238D01*
X211629524Y-84780476D01*
X211534286Y-84828095D01*
X222281905Y-59142381D02*
X222281905Y-59951905D01*
X222329524Y-60047143D01*
X222377143Y-60094762D01*
X222472381Y-60142381D01*
X222662858Y-60142381D01*
X222758096Y-60094762D01*
X222805715Y-60047143D01*
X222853334Y-59951905D01*
X222853334Y-59142381D01*
X223853334Y-60142381D02*
X223281905Y-60142381D01*
X223567619Y-60142381D02*
X223567619Y-59142381D01*
X223472381Y-59285238D01*
X223377143Y-59380476D01*
X223281905Y-59428095D01*
X224234286Y-59237619D02*
X224281905Y-59190000D01*
X224377143Y-59142381D01*
X224615239Y-59142381D01*
X224710477Y-59190000D01*
X224758096Y-59237619D01*
X224805715Y-59332857D01*
X224805715Y-59428095D01*
X224758096Y-59570952D01*
X224186667Y-60142381D01*
X224805715Y-60142381D01*
X251817143Y-50744285D02*
X251864762Y-50791904D01*
X251912381Y-50934761D01*
X251912381Y-51029999D01*
X251864762Y-51172857D01*
X251769524Y-51268095D01*
X251674286Y-51315714D01*
X251483810Y-51363333D01*
X251340952Y-51363333D01*
X251150476Y-51315714D01*
X251055238Y-51268095D01*
X250960000Y-51172857D01*
X250912381Y-51029999D01*
X250912381Y-50934761D01*
X250960000Y-50791904D01*
X251007619Y-50744285D01*
X250912381Y-50125238D02*
X250912381Y-49934761D01*
X250960000Y-49839523D01*
X251055238Y-49744285D01*
X251245714Y-49696666D01*
X251579048Y-49696666D01*
X251769524Y-49744285D01*
X251864762Y-49839523D01*
X251912381Y-49934761D01*
X251912381Y-50125238D01*
X251864762Y-50220476D01*
X251769524Y-50315714D01*
X251579048Y-50363333D01*
X251245714Y-50363333D01*
X251055238Y-50315714D01*
X250960000Y-50220476D01*
X250912381Y-50125238D01*
X251912381Y-49268095D02*
X250912381Y-49268095D01*
X251912381Y-48696666D01*
X250912381Y-48696666D01*
X251912381Y-47696666D02*
X251912381Y-48268095D01*
X251912381Y-47982381D02*
X250912381Y-47982381D01*
X251055238Y-48077619D01*
X251150476Y-48172857D01*
X251198095Y-48268095D01*
X231703571Y-53934762D02*
X231751190Y-53791905D01*
X231798810Y-53744286D01*
X231894048Y-53696667D01*
X232036905Y-53696667D01*
X232132143Y-53744286D01*
X232179762Y-53791905D01*
X232227381Y-53887143D01*
X232227381Y-54268096D01*
X231227381Y-54268096D01*
X231227381Y-53934762D01*
X231275000Y-53839524D01*
X231322619Y-53791905D01*
X231417857Y-53744286D01*
X231513095Y-53744286D01*
X231608333Y-53791905D01*
X231655952Y-53839524D01*
X231703571Y-53934762D01*
X231703571Y-54268096D01*
X231941667Y-53315715D02*
X231941667Y-52839524D01*
X232227381Y-53410953D02*
X231227381Y-53077620D01*
X232227381Y-52744286D01*
X232227381Y-51839524D02*
X231751190Y-52172858D01*
X232227381Y-52410953D02*
X231227381Y-52410953D01*
X231227381Y-52030000D01*
X231275000Y-51934762D01*
X231322619Y-51887143D01*
X231417857Y-51839524D01*
X231560714Y-51839524D01*
X231655952Y-51887143D01*
X231703571Y-51934762D01*
X231751190Y-52030000D01*
X231751190Y-52410953D01*
X232227381Y-50839524D02*
X231751190Y-51172858D01*
X232227381Y-51410953D02*
X231227381Y-51410953D01*
X231227381Y-51030000D01*
X231275000Y-50934762D01*
X231322619Y-50887143D01*
X231417857Y-50839524D01*
X231560714Y-50839524D01*
X231655952Y-50887143D01*
X231703571Y-50934762D01*
X231751190Y-51030000D01*
X231751190Y-51410953D01*
X231703571Y-50410953D02*
X231703571Y-50077619D01*
X232227381Y-49934762D02*
X232227381Y-50410953D01*
X231227381Y-50410953D01*
X231227381Y-49934762D01*
X232227381Y-49030000D02*
X232227381Y-49506191D01*
X231227381Y-49506191D01*
X232322619Y-48934762D02*
X232322619Y-48172857D01*
X231227381Y-47649047D02*
X231941667Y-47649047D01*
X232084524Y-47696667D01*
X232179762Y-47791905D01*
X232227381Y-47934762D01*
X232227381Y-48030000D01*
X231941667Y-47220476D02*
X231941667Y-46744285D01*
X232227381Y-47315714D02*
X231227381Y-46982381D01*
X232227381Y-46649047D01*
X232132143Y-45744285D02*
X232179762Y-45791904D01*
X232227381Y-45934761D01*
X232227381Y-46029999D01*
X232179762Y-46172857D01*
X232084524Y-46268095D01*
X231989286Y-46315714D01*
X231798810Y-46363333D01*
X231655952Y-46363333D01*
X231465476Y-46315714D01*
X231370238Y-46268095D01*
X231275000Y-46172857D01*
X231227381Y-46029999D01*
X231227381Y-45934761D01*
X231275000Y-45791904D01*
X231322619Y-45744285D01*
X232227381Y-45315714D02*
X231227381Y-45315714D01*
X232227381Y-44744285D02*
X231655952Y-45172857D01*
X231227381Y-44744285D02*
X231798810Y-45315714D01*
X251817143Y-71064285D02*
X251864762Y-71111904D01*
X251912381Y-71254761D01*
X251912381Y-71349999D01*
X251864762Y-71492857D01*
X251769524Y-71588095D01*
X251674286Y-71635714D01*
X251483810Y-71683333D01*
X251340952Y-71683333D01*
X251150476Y-71635714D01*
X251055238Y-71588095D01*
X250960000Y-71492857D01*
X250912381Y-71349999D01*
X250912381Y-71254761D01*
X250960000Y-71111904D01*
X251007619Y-71064285D01*
X250912381Y-70445238D02*
X250912381Y-70254761D01*
X250960000Y-70159523D01*
X251055238Y-70064285D01*
X251245714Y-70016666D01*
X251579048Y-70016666D01*
X251769524Y-70064285D01*
X251864762Y-70159523D01*
X251912381Y-70254761D01*
X251912381Y-70445238D01*
X251864762Y-70540476D01*
X251769524Y-70635714D01*
X251579048Y-70683333D01*
X251245714Y-70683333D01*
X251055238Y-70635714D01*
X250960000Y-70540476D01*
X250912381Y-70445238D01*
X251912381Y-69588095D02*
X250912381Y-69588095D01*
X251912381Y-69016666D01*
X250912381Y-69016666D01*
X251007619Y-68588095D02*
X250960000Y-68540476D01*
X250912381Y-68445238D01*
X250912381Y-68207142D01*
X250960000Y-68111904D01*
X251007619Y-68064285D01*
X251102857Y-68016666D01*
X251198095Y-68016666D01*
X251340952Y-68064285D01*
X251912381Y-68635714D01*
X251912381Y-68016666D01*
X231703571Y-74254762D02*
X231751190Y-74111905D01*
X231798810Y-74064286D01*
X231894048Y-74016667D01*
X232036905Y-74016667D01*
X232132143Y-74064286D01*
X232179762Y-74111905D01*
X232227381Y-74207143D01*
X232227381Y-74588096D01*
X231227381Y-74588096D01*
X231227381Y-74254762D01*
X231275000Y-74159524D01*
X231322619Y-74111905D01*
X231417857Y-74064286D01*
X231513095Y-74064286D01*
X231608333Y-74111905D01*
X231655952Y-74159524D01*
X231703571Y-74254762D01*
X231703571Y-74588096D01*
X231941667Y-73635715D02*
X231941667Y-73159524D01*
X232227381Y-73730953D02*
X231227381Y-73397620D01*
X232227381Y-73064286D01*
X232227381Y-72159524D02*
X231751190Y-72492858D01*
X232227381Y-72730953D02*
X231227381Y-72730953D01*
X231227381Y-72350000D01*
X231275000Y-72254762D01*
X231322619Y-72207143D01*
X231417857Y-72159524D01*
X231560714Y-72159524D01*
X231655952Y-72207143D01*
X231703571Y-72254762D01*
X231751190Y-72350000D01*
X231751190Y-72730953D01*
X232227381Y-71159524D02*
X231751190Y-71492858D01*
X232227381Y-71730953D02*
X231227381Y-71730953D01*
X231227381Y-71350000D01*
X231275000Y-71254762D01*
X231322619Y-71207143D01*
X231417857Y-71159524D01*
X231560714Y-71159524D01*
X231655952Y-71207143D01*
X231703571Y-71254762D01*
X231751190Y-71350000D01*
X231751190Y-71730953D01*
X231703571Y-70730953D02*
X231703571Y-70397619D01*
X232227381Y-70254762D02*
X232227381Y-70730953D01*
X231227381Y-70730953D01*
X231227381Y-70254762D01*
X232227381Y-69350000D02*
X232227381Y-69826191D01*
X231227381Y-69826191D01*
X232322619Y-69254762D02*
X232322619Y-68492857D01*
X231227381Y-67969047D02*
X231941667Y-67969047D01*
X232084524Y-68016667D01*
X232179762Y-68111905D01*
X232227381Y-68254762D01*
X232227381Y-68350000D01*
X231941667Y-67540476D02*
X231941667Y-67064285D01*
X232227381Y-67635714D02*
X231227381Y-67302381D01*
X232227381Y-66969047D01*
X232132143Y-66064285D02*
X232179762Y-66111904D01*
X232227381Y-66254761D01*
X232227381Y-66349999D01*
X232179762Y-66492857D01*
X232084524Y-66588095D01*
X231989286Y-66635714D01*
X231798810Y-66683333D01*
X231655952Y-66683333D01*
X231465476Y-66635714D01*
X231370238Y-66588095D01*
X231275000Y-66492857D01*
X231227381Y-66349999D01*
X231227381Y-66254761D01*
X231275000Y-66111904D01*
X231322619Y-66064285D01*
X232227381Y-65635714D02*
X231227381Y-65635714D01*
X232227381Y-65064285D02*
X231655952Y-65492857D01*
X231227381Y-65064285D02*
X231798810Y-65635714D01*
X241831905Y-125547381D02*
X241831905Y-124547381D01*
X242212858Y-124547381D01*
X242308096Y-124595000D01*
X242355715Y-124642619D01*
X242403334Y-124737857D01*
X242403334Y-124880714D01*
X242355715Y-124975952D01*
X242308096Y-125023571D01*
X242212858Y-125071190D01*
X241831905Y-125071190D01*
X243308096Y-124547381D02*
X242831905Y-124547381D01*
X242784286Y-125023571D01*
X242831905Y-124975952D01*
X242927143Y-124928333D01*
X243165239Y-124928333D01*
X243260477Y-124975952D01*
X243308096Y-125023571D01*
X243355715Y-125118810D01*
X243355715Y-125356905D01*
X243308096Y-125452143D01*
X243260477Y-125499762D01*
X243165239Y-125547381D01*
X242927143Y-125547381D01*
X242831905Y-125499762D01*
X242784286Y-125452143D01*
X238546191Y-115927143D02*
X238498572Y-115974762D01*
X238355715Y-116022381D01*
X238260477Y-116022381D01*
X238117619Y-115974762D01*
X238022381Y-115879524D01*
X237974762Y-115784286D01*
X237927143Y-115593810D01*
X237927143Y-115450952D01*
X237974762Y-115260476D01*
X238022381Y-115165238D01*
X238117619Y-115070000D01*
X238260477Y-115022381D01*
X238355715Y-115022381D01*
X238498572Y-115070000D01*
X238546191Y-115117619D01*
X239165238Y-115022381D02*
X239355715Y-115022381D01*
X239450953Y-115070000D01*
X239546191Y-115165238D01*
X239593810Y-115355714D01*
X239593810Y-115689048D01*
X239546191Y-115879524D01*
X239450953Y-115974762D01*
X239355715Y-116022381D01*
X239165238Y-116022381D01*
X239070000Y-115974762D01*
X238974762Y-115879524D01*
X238927143Y-115689048D01*
X238927143Y-115355714D01*
X238974762Y-115165238D01*
X239070000Y-115070000D01*
X239165238Y-115022381D01*
X240022381Y-116022381D02*
X240022381Y-115022381D01*
X240593810Y-116022381D01*
X240593810Y-115022381D01*
X241070000Y-116022381D02*
X241070000Y-115022381D01*
X241641429Y-116022381D01*
X241641429Y-115022381D01*
X241879524Y-116117619D02*
X242641429Y-116117619D01*
X243070000Y-115022381D02*
X243165239Y-115022381D01*
X243260477Y-115070000D01*
X243308096Y-115117619D01*
X243355715Y-115212857D01*
X243403334Y-115403333D01*
X243403334Y-115641429D01*
X243355715Y-115831905D01*
X243308096Y-115927143D01*
X243260477Y-115974762D01*
X243165239Y-116022381D01*
X243070000Y-116022381D01*
X242974762Y-115974762D01*
X242927143Y-115927143D01*
X242879524Y-115831905D01*
X242831905Y-115641429D01*
X242831905Y-115403333D01*
X242879524Y-115212857D01*
X242927143Y-115117619D01*
X242974762Y-115070000D01*
X243070000Y-115022381D01*
X244355715Y-116022381D02*
X243784286Y-116022381D01*
X244070000Y-116022381D02*
X244070000Y-115022381D01*
X243974762Y-115165238D01*
X243879524Y-115260476D01*
X243784286Y-115308095D01*
X244689048Y-115022381D02*
X245355715Y-116022381D01*
X245355715Y-115022381D02*
X244689048Y-116022381D01*
X245927143Y-115022381D02*
X246022382Y-115022381D01*
X246117620Y-115070000D01*
X246165239Y-115117619D01*
X246212858Y-115212857D01*
X246260477Y-115403333D01*
X246260477Y-115641429D01*
X246212858Y-115831905D01*
X246165239Y-115927143D01*
X246117620Y-115974762D01*
X246022382Y-116022381D01*
X245927143Y-116022381D01*
X245831905Y-115974762D01*
X245784286Y-115927143D01*
X245736667Y-115831905D01*
X245689048Y-115641429D01*
X245689048Y-115403333D01*
X245736667Y-115212857D01*
X245784286Y-115117619D01*
X245831905Y-115070000D01*
X245927143Y-115022381D01*
X247212858Y-116022381D02*
X246641429Y-116022381D01*
X246927143Y-116022381D02*
X246927143Y-115022381D01*
X246831905Y-115165238D01*
X246736667Y-115260476D01*
X246641429Y-115308095D01*
X52601905Y-125547381D02*
X52601905Y-124547381D01*
X52982858Y-124547381D01*
X53078096Y-124595000D01*
X53125715Y-124642619D01*
X53173334Y-124737857D01*
X53173334Y-124880714D01*
X53125715Y-124975952D01*
X53078096Y-125023571D01*
X52982858Y-125071190D01*
X52601905Y-125071190D01*
X54030477Y-124547381D02*
X53840000Y-124547381D01*
X53744762Y-124595000D01*
X53697143Y-124642619D01*
X53601905Y-124785476D01*
X53554286Y-124975952D01*
X53554286Y-125356905D01*
X53601905Y-125452143D01*
X53649524Y-125499762D01*
X53744762Y-125547381D01*
X53935239Y-125547381D01*
X54030477Y-125499762D01*
X54078096Y-125452143D01*
X54125715Y-125356905D01*
X54125715Y-125118810D01*
X54078096Y-125023571D01*
X54030477Y-124975952D01*
X53935239Y-124928333D01*
X53744762Y-124928333D01*
X53649524Y-124975952D01*
X53601905Y-125023571D01*
X53554286Y-125118810D01*
X49316191Y-115927143D02*
X49268572Y-115974762D01*
X49125715Y-116022381D01*
X49030477Y-116022381D01*
X48887619Y-115974762D01*
X48792381Y-115879524D01*
X48744762Y-115784286D01*
X48697143Y-115593810D01*
X48697143Y-115450952D01*
X48744762Y-115260476D01*
X48792381Y-115165238D01*
X48887619Y-115070000D01*
X49030477Y-115022381D01*
X49125715Y-115022381D01*
X49268572Y-115070000D01*
X49316191Y-115117619D01*
X49935238Y-115022381D02*
X50125715Y-115022381D01*
X50220953Y-115070000D01*
X50316191Y-115165238D01*
X50363810Y-115355714D01*
X50363810Y-115689048D01*
X50316191Y-115879524D01*
X50220953Y-115974762D01*
X50125715Y-116022381D01*
X49935238Y-116022381D01*
X49840000Y-115974762D01*
X49744762Y-115879524D01*
X49697143Y-115689048D01*
X49697143Y-115355714D01*
X49744762Y-115165238D01*
X49840000Y-115070000D01*
X49935238Y-115022381D01*
X50792381Y-116022381D02*
X50792381Y-115022381D01*
X51363810Y-116022381D01*
X51363810Y-115022381D01*
X51840000Y-116022381D02*
X51840000Y-115022381D01*
X52411429Y-116022381D01*
X52411429Y-115022381D01*
X52649524Y-116117619D02*
X53411429Y-116117619D01*
X53840000Y-115022381D02*
X53935239Y-115022381D01*
X54030477Y-115070000D01*
X54078096Y-115117619D01*
X54125715Y-115212857D01*
X54173334Y-115403333D01*
X54173334Y-115641429D01*
X54125715Y-115831905D01*
X54078096Y-115927143D01*
X54030477Y-115974762D01*
X53935239Y-116022381D01*
X53840000Y-116022381D01*
X53744762Y-115974762D01*
X53697143Y-115927143D01*
X53649524Y-115831905D01*
X53601905Y-115641429D01*
X53601905Y-115403333D01*
X53649524Y-115212857D01*
X53697143Y-115117619D01*
X53744762Y-115070000D01*
X53840000Y-115022381D01*
X55125715Y-116022381D02*
X54554286Y-116022381D01*
X54840000Y-116022381D02*
X54840000Y-115022381D01*
X54744762Y-115165238D01*
X54649524Y-115260476D01*
X54554286Y-115308095D01*
X55459048Y-115022381D02*
X56125715Y-116022381D01*
X56125715Y-115022381D02*
X55459048Y-116022381D01*
X56697143Y-115022381D02*
X56792382Y-115022381D01*
X56887620Y-115070000D01*
X56935239Y-115117619D01*
X56982858Y-115212857D01*
X57030477Y-115403333D01*
X57030477Y-115641429D01*
X56982858Y-115831905D01*
X56935239Y-115927143D01*
X56887620Y-115974762D01*
X56792382Y-116022381D01*
X56697143Y-116022381D01*
X56601905Y-115974762D01*
X56554286Y-115927143D01*
X56506667Y-115831905D01*
X56459048Y-115641429D01*
X56459048Y-115403333D01*
X56506667Y-115212857D01*
X56554286Y-115117619D01*
X56601905Y-115070000D01*
X56697143Y-115022381D01*
X57982858Y-116022381D02*
X57411429Y-116022381D01*
X57697143Y-116022381D02*
X57697143Y-115022381D01*
X57601905Y-115165238D01*
X57506667Y-115260476D01*
X57411429Y-115308095D01*
X52601905Y-29027381D02*
X52601905Y-28027381D01*
X52982858Y-28027381D01*
X53078096Y-28075000D01*
X53125715Y-28122619D01*
X53173334Y-28217857D01*
X53173334Y-28360714D01*
X53125715Y-28455952D01*
X53078096Y-28503571D01*
X52982858Y-28551190D01*
X52601905Y-28551190D01*
X53506667Y-28027381D02*
X54173334Y-28027381D01*
X53744762Y-29027381D01*
X49316191Y-19407143D02*
X49268572Y-19454762D01*
X49125715Y-19502381D01*
X49030477Y-19502381D01*
X48887619Y-19454762D01*
X48792381Y-19359524D01*
X48744762Y-19264286D01*
X48697143Y-19073810D01*
X48697143Y-18930952D01*
X48744762Y-18740476D01*
X48792381Y-18645238D01*
X48887619Y-18550000D01*
X49030477Y-18502381D01*
X49125715Y-18502381D01*
X49268572Y-18550000D01*
X49316191Y-18597619D01*
X49935238Y-18502381D02*
X50125715Y-18502381D01*
X50220953Y-18550000D01*
X50316191Y-18645238D01*
X50363810Y-18835714D01*
X50363810Y-19169048D01*
X50316191Y-19359524D01*
X50220953Y-19454762D01*
X50125715Y-19502381D01*
X49935238Y-19502381D01*
X49840000Y-19454762D01*
X49744762Y-19359524D01*
X49697143Y-19169048D01*
X49697143Y-18835714D01*
X49744762Y-18645238D01*
X49840000Y-18550000D01*
X49935238Y-18502381D01*
X50792381Y-19502381D02*
X50792381Y-18502381D01*
X51363810Y-19502381D01*
X51363810Y-18502381D01*
X51840000Y-19502381D02*
X51840000Y-18502381D01*
X52411429Y-19502381D01*
X52411429Y-18502381D01*
X52649524Y-19597619D02*
X53411429Y-19597619D01*
X53840000Y-18502381D02*
X53935239Y-18502381D01*
X54030477Y-18550000D01*
X54078096Y-18597619D01*
X54125715Y-18692857D01*
X54173334Y-18883333D01*
X54173334Y-19121429D01*
X54125715Y-19311905D01*
X54078096Y-19407143D01*
X54030477Y-19454762D01*
X53935239Y-19502381D01*
X53840000Y-19502381D01*
X53744762Y-19454762D01*
X53697143Y-19407143D01*
X53649524Y-19311905D01*
X53601905Y-19121429D01*
X53601905Y-18883333D01*
X53649524Y-18692857D01*
X53697143Y-18597619D01*
X53744762Y-18550000D01*
X53840000Y-18502381D01*
X55125715Y-19502381D02*
X54554286Y-19502381D01*
X54840000Y-19502381D02*
X54840000Y-18502381D01*
X54744762Y-18645238D01*
X54649524Y-18740476D01*
X54554286Y-18788095D01*
X55459048Y-18502381D02*
X56125715Y-19502381D01*
X56125715Y-18502381D02*
X55459048Y-19502381D01*
X56697143Y-18502381D02*
X56792382Y-18502381D01*
X56887620Y-18550000D01*
X56935239Y-18597619D01*
X56982858Y-18692857D01*
X57030477Y-18883333D01*
X57030477Y-19121429D01*
X56982858Y-19311905D01*
X56935239Y-19407143D01*
X56887620Y-19454762D01*
X56792382Y-19502381D01*
X56697143Y-19502381D01*
X56601905Y-19454762D01*
X56554286Y-19407143D01*
X56506667Y-19311905D01*
X56459048Y-19121429D01*
X56459048Y-18883333D01*
X56506667Y-18692857D01*
X56554286Y-18597619D01*
X56601905Y-18550000D01*
X56697143Y-18502381D01*
X57982858Y-19502381D02*
X57411429Y-19502381D01*
X57697143Y-19502381D02*
X57697143Y-18502381D01*
X57601905Y-18645238D01*
X57506667Y-18740476D01*
X57411429Y-18788095D01*
X241831905Y-29027381D02*
X241831905Y-28027381D01*
X242212858Y-28027381D01*
X242308096Y-28075000D01*
X242355715Y-28122619D01*
X242403334Y-28217857D01*
X242403334Y-28360714D01*
X242355715Y-28455952D01*
X242308096Y-28503571D01*
X242212858Y-28551190D01*
X241831905Y-28551190D01*
X242974762Y-28455952D02*
X242879524Y-28408333D01*
X242831905Y-28360714D01*
X242784286Y-28265476D01*
X242784286Y-28217857D01*
X242831905Y-28122619D01*
X242879524Y-28075000D01*
X242974762Y-28027381D01*
X243165239Y-28027381D01*
X243260477Y-28075000D01*
X243308096Y-28122619D01*
X243355715Y-28217857D01*
X243355715Y-28265476D01*
X243308096Y-28360714D01*
X243260477Y-28408333D01*
X243165239Y-28455952D01*
X242974762Y-28455952D01*
X242879524Y-28503571D01*
X242831905Y-28551190D01*
X242784286Y-28646429D01*
X242784286Y-28836905D01*
X242831905Y-28932143D01*
X242879524Y-28979762D01*
X242974762Y-29027381D01*
X243165239Y-29027381D01*
X243260477Y-28979762D01*
X243308096Y-28932143D01*
X243355715Y-28836905D01*
X243355715Y-28646429D01*
X243308096Y-28551190D01*
X243260477Y-28503571D01*
X243165239Y-28455952D01*
X238546191Y-19407143D02*
X238498572Y-19454762D01*
X238355715Y-19502381D01*
X238260477Y-19502381D01*
X238117619Y-19454762D01*
X238022381Y-19359524D01*
X237974762Y-19264286D01*
X237927143Y-19073810D01*
X237927143Y-18930952D01*
X237974762Y-18740476D01*
X238022381Y-18645238D01*
X238117619Y-18550000D01*
X238260477Y-18502381D01*
X238355715Y-18502381D01*
X238498572Y-18550000D01*
X238546191Y-18597619D01*
X239165238Y-18502381D02*
X239355715Y-18502381D01*
X239450953Y-18550000D01*
X239546191Y-18645238D01*
X239593810Y-18835714D01*
X239593810Y-19169048D01*
X239546191Y-19359524D01*
X239450953Y-19454762D01*
X239355715Y-19502381D01*
X239165238Y-19502381D01*
X239070000Y-19454762D01*
X238974762Y-19359524D01*
X238927143Y-19169048D01*
X238927143Y-18835714D01*
X238974762Y-18645238D01*
X239070000Y-18550000D01*
X239165238Y-18502381D01*
X240022381Y-19502381D02*
X240022381Y-18502381D01*
X240593810Y-19502381D01*
X240593810Y-18502381D01*
X241070000Y-19502381D02*
X241070000Y-18502381D01*
X241641429Y-19502381D01*
X241641429Y-18502381D01*
X241879524Y-19597619D02*
X242641429Y-19597619D01*
X243070000Y-18502381D02*
X243165239Y-18502381D01*
X243260477Y-18550000D01*
X243308096Y-18597619D01*
X243355715Y-18692857D01*
X243403334Y-18883333D01*
X243403334Y-19121429D01*
X243355715Y-19311905D01*
X243308096Y-19407143D01*
X243260477Y-19454762D01*
X243165239Y-19502381D01*
X243070000Y-19502381D01*
X242974762Y-19454762D01*
X242927143Y-19407143D01*
X242879524Y-19311905D01*
X242831905Y-19121429D01*
X242831905Y-18883333D01*
X242879524Y-18692857D01*
X242927143Y-18597619D01*
X242974762Y-18550000D01*
X243070000Y-18502381D01*
X244355715Y-19502381D02*
X243784286Y-19502381D01*
X244070000Y-19502381D02*
X244070000Y-18502381D01*
X243974762Y-18645238D01*
X243879524Y-18740476D01*
X243784286Y-18788095D01*
X244689048Y-18502381D02*
X245355715Y-19502381D01*
X245355715Y-18502381D02*
X244689048Y-19502381D01*
X245927143Y-18502381D02*
X246022382Y-18502381D01*
X246117620Y-18550000D01*
X246165239Y-18597619D01*
X246212858Y-18692857D01*
X246260477Y-18883333D01*
X246260477Y-19121429D01*
X246212858Y-19311905D01*
X246165239Y-19407143D01*
X246117620Y-19454762D01*
X246022382Y-19502381D01*
X245927143Y-19502381D01*
X245831905Y-19454762D01*
X245784286Y-19407143D01*
X245736667Y-19311905D01*
X245689048Y-19121429D01*
X245689048Y-18883333D01*
X245736667Y-18692857D01*
X245784286Y-18597619D01*
X245831905Y-18550000D01*
X245927143Y-18502381D01*
X247212858Y-19502381D02*
X246641429Y-19502381D01*
X246927143Y-19502381D02*
X246927143Y-18502381D01*
X246831905Y-18645238D01*
X246736667Y-18740476D01*
X246641429Y-18788095D01*
M02*
