G04 #@! TF.FileFunction,Copper,L1,Top,Signal*
%FSLAX46Y46*%
G04 Gerber Fmt 4.6, Leading zero omitted, Abs format (unit mm)*
G04 Created by KiCad (PCBNEW (2015-01-16 BZR 5376)-product) date 4/27/2015 10:46:34 PM*
%MOMM*%
G01*
G04 APERTURE LIST*
%ADD10C,0.100000*%
%ADD11R,1.727200X1.727200*%
%ADD12O,1.727200X1.727200*%
%ADD13R,2.235200X2.235200*%
%ADD14R,2.032000X1.727200*%
%ADD15O,2.032000X1.727200*%
%ADD16C,1.524000*%
%ADD17C,2.032000*%
%ADD18R,1.397000X1.397000*%
%ADD19C,1.397000*%
%ADD20C,5.080000*%
%ADD21C,5.334000*%
%ADD22C,4.826000*%
%ADD23C,6.350000*%
%ADD24C,0.889000*%
%ADD25C,0.254000*%
G04 APERTURE END LIST*
D10*
D11*
X120650000Y-29210000D03*
D12*
X120650000Y-31750000D03*
X123190000Y-29210000D03*
X123190000Y-31750000D03*
X125730000Y-29210000D03*
X125730000Y-31750000D03*
X128270000Y-29210000D03*
X128270000Y-31750000D03*
X130810000Y-29210000D03*
X130810000Y-31750000D03*
X133350000Y-29210000D03*
X133350000Y-31750000D03*
X135890000Y-29210000D03*
X135890000Y-31750000D03*
X138430000Y-29210000D03*
X138430000Y-31750000D03*
X140970000Y-29210000D03*
X140970000Y-31750000D03*
X143510000Y-29210000D03*
X143510000Y-31750000D03*
X146050000Y-29210000D03*
X146050000Y-31750000D03*
X148590000Y-29210000D03*
X148590000Y-31750000D03*
X151130000Y-29210000D03*
X151130000Y-31750000D03*
X153670000Y-29210000D03*
X153670000Y-31750000D03*
X156210000Y-29210000D03*
X156210000Y-31750000D03*
X158750000Y-29210000D03*
X158750000Y-31750000D03*
X161290000Y-29210000D03*
X161290000Y-31750000D03*
X163830000Y-29210000D03*
X163830000Y-31750000D03*
X166370000Y-29210000D03*
X166370000Y-31750000D03*
X168910000Y-29210000D03*
X168910000Y-31750000D03*
D11*
X213360000Y-22860000D03*
D12*
X213360000Y-20320000D03*
X215900000Y-22860000D03*
X215900000Y-20320000D03*
X218440000Y-22860000D03*
X218440000Y-20320000D03*
X220980000Y-22860000D03*
X220980000Y-20320000D03*
X223520000Y-22860000D03*
X223520000Y-20320000D03*
X226060000Y-22860000D03*
X226060000Y-20320000D03*
X228600000Y-22860000D03*
X228600000Y-20320000D03*
D13*
X53340000Y-35560000D03*
D14*
X68580000Y-22860000D03*
D15*
X68580000Y-25400000D03*
X68580000Y-27940000D03*
X68580000Y-30480000D03*
X68580000Y-33020000D03*
X68580000Y-35560000D03*
X68580000Y-38100000D03*
D16*
X63500000Y-81280000D03*
X63500000Y-71120000D03*
X68580000Y-81280000D03*
X68580000Y-71120000D03*
X60960000Y-81280000D03*
X60960000Y-71120000D03*
X66040000Y-81280000D03*
X66040000Y-71120000D03*
X58420000Y-81280000D03*
X58420000Y-71120000D03*
X76200000Y-81280000D03*
X76200000Y-71120000D03*
X73660000Y-81280000D03*
X73660000Y-71120000D03*
X228600000Y-45720000D03*
X228600000Y-35560000D03*
X226060000Y-45720000D03*
X226060000Y-35560000D03*
X223520000Y-45720000D03*
X223520000Y-35560000D03*
X220980000Y-45720000D03*
X220980000Y-35560000D03*
X218440000Y-45720000D03*
X218440000Y-35560000D03*
X215900000Y-45720000D03*
X215900000Y-35560000D03*
X213360000Y-45720000D03*
X213360000Y-35560000D03*
X91440000Y-81280000D03*
X91440000Y-71120000D03*
X96520000Y-81280000D03*
X96520000Y-71120000D03*
X88900000Y-81280000D03*
X88900000Y-71120000D03*
X93980000Y-81280000D03*
X93980000Y-71120000D03*
X86360000Y-81280000D03*
X86360000Y-71120000D03*
X104140000Y-81280000D03*
X104140000Y-71120000D03*
X101600000Y-81280000D03*
X101600000Y-71120000D03*
X124460000Y-81280000D03*
X124460000Y-71120000D03*
X129540000Y-81280000D03*
X129540000Y-71120000D03*
X121920000Y-81280000D03*
X121920000Y-71120000D03*
X127000000Y-81280000D03*
X127000000Y-71120000D03*
X119380000Y-81280000D03*
X119380000Y-71120000D03*
X137160000Y-81280000D03*
X137160000Y-71120000D03*
X134620000Y-81280000D03*
X134620000Y-71120000D03*
X152400000Y-81280000D03*
X152400000Y-71120000D03*
X157480000Y-81280000D03*
X157480000Y-71120000D03*
X149860000Y-81280000D03*
X149860000Y-71120000D03*
X154940000Y-81280000D03*
X154940000Y-71120000D03*
X147320000Y-81280000D03*
X147320000Y-71120000D03*
X165100000Y-81280000D03*
X165100000Y-71120000D03*
X162560000Y-81280000D03*
X162560000Y-71120000D03*
X185420000Y-81280000D03*
X185420000Y-71120000D03*
X190500000Y-81280000D03*
X190500000Y-71120000D03*
X182880000Y-81280000D03*
X182880000Y-71120000D03*
X187960000Y-81280000D03*
X187960000Y-71120000D03*
X180340000Y-81280000D03*
X180340000Y-71120000D03*
X198120000Y-81280000D03*
X198120000Y-71120000D03*
X195580000Y-81280000D03*
X195580000Y-71120000D03*
X213360000Y-81280000D03*
X213360000Y-71120000D03*
X218440000Y-81280000D03*
X218440000Y-71120000D03*
X210820000Y-81280000D03*
X210820000Y-71120000D03*
X215900000Y-81280000D03*
X215900000Y-71120000D03*
X208280000Y-81280000D03*
X208280000Y-71120000D03*
X226060000Y-81280000D03*
X226060000Y-71120000D03*
X223520000Y-81280000D03*
X223520000Y-71120000D03*
D17*
X66040000Y-119380000D03*
X68580000Y-119380000D03*
X71120000Y-119380000D03*
X73660000Y-119380000D03*
X76200000Y-119380000D03*
X76200000Y-88900000D03*
X73660000Y-88900000D03*
X71120000Y-88900000D03*
X68580000Y-88900000D03*
X66040000Y-88900000D03*
D18*
X76200000Y-54610000D03*
D19*
X73660000Y-54610000D03*
X71120000Y-54610000D03*
X68580000Y-54610000D03*
X66040000Y-54610000D03*
X63500000Y-54610000D03*
X60960000Y-54610000D03*
X58420000Y-54610000D03*
X58420000Y-62230000D03*
X60960000Y-62230000D03*
X63500000Y-62230000D03*
X66040000Y-62230000D03*
X68580000Y-62230000D03*
X71120000Y-62230000D03*
X73660000Y-62230000D03*
X76200000Y-62230000D03*
D17*
X93980000Y-119380000D03*
X96520000Y-119380000D03*
X99060000Y-119380000D03*
X101600000Y-119380000D03*
X104140000Y-119380000D03*
X104140000Y-88900000D03*
X101600000Y-88900000D03*
X99060000Y-88900000D03*
X96520000Y-88900000D03*
X93980000Y-88900000D03*
D18*
X104140000Y-54610000D03*
D19*
X101600000Y-54610000D03*
X99060000Y-54610000D03*
X96520000Y-54610000D03*
X93980000Y-54610000D03*
X91440000Y-54610000D03*
X88900000Y-54610000D03*
X86360000Y-54610000D03*
X86360000Y-62230000D03*
X88900000Y-62230000D03*
X91440000Y-62230000D03*
X93980000Y-62230000D03*
X96520000Y-62230000D03*
X99060000Y-62230000D03*
X101600000Y-62230000D03*
X104140000Y-62230000D03*
D17*
X127000000Y-119380000D03*
X129540000Y-119380000D03*
X132080000Y-119380000D03*
X134620000Y-119380000D03*
X137160000Y-119380000D03*
X137160000Y-88900000D03*
X134620000Y-88900000D03*
X132080000Y-88900000D03*
X129540000Y-88900000D03*
X127000000Y-88900000D03*
D18*
X137160000Y-54610000D03*
D19*
X134620000Y-54610000D03*
X132080000Y-54610000D03*
X129540000Y-54610000D03*
X127000000Y-54610000D03*
X124460000Y-54610000D03*
X121920000Y-54610000D03*
X119380000Y-54610000D03*
X119380000Y-62230000D03*
X121920000Y-62230000D03*
X124460000Y-62230000D03*
X127000000Y-62230000D03*
X129540000Y-62230000D03*
X132080000Y-62230000D03*
X134620000Y-62230000D03*
X137160000Y-62230000D03*
D17*
X154940000Y-119380000D03*
X157480000Y-119380000D03*
X160020000Y-119380000D03*
X162560000Y-119380000D03*
X165100000Y-119380000D03*
X165100000Y-88900000D03*
X162560000Y-88900000D03*
X160020000Y-88900000D03*
X157480000Y-88900000D03*
X154940000Y-88900000D03*
D18*
X165100000Y-54610000D03*
D19*
X162560000Y-54610000D03*
X160020000Y-54610000D03*
X157480000Y-54610000D03*
X154940000Y-54610000D03*
X152400000Y-54610000D03*
X149860000Y-54610000D03*
X147320000Y-54610000D03*
X147320000Y-62230000D03*
X149860000Y-62230000D03*
X152400000Y-62230000D03*
X154940000Y-62230000D03*
X157480000Y-62230000D03*
X160020000Y-62230000D03*
X162560000Y-62230000D03*
X165100000Y-62230000D03*
D17*
X187960000Y-119380000D03*
X190500000Y-119380000D03*
X193040000Y-119380000D03*
X195580000Y-119380000D03*
X198120000Y-119380000D03*
X198120000Y-88900000D03*
X195580000Y-88900000D03*
X193040000Y-88900000D03*
X190500000Y-88900000D03*
X187960000Y-88900000D03*
D18*
X198120000Y-54610000D03*
D19*
X195580000Y-54610000D03*
X193040000Y-54610000D03*
X190500000Y-54610000D03*
X187960000Y-54610000D03*
X185420000Y-54610000D03*
X182880000Y-54610000D03*
X180340000Y-54610000D03*
X180340000Y-62230000D03*
X182880000Y-62230000D03*
X185420000Y-62230000D03*
X187960000Y-62230000D03*
X190500000Y-62230000D03*
X193040000Y-62230000D03*
X195580000Y-62230000D03*
X198120000Y-62230000D03*
D17*
X215900000Y-119380000D03*
X218440000Y-119380000D03*
X220980000Y-119380000D03*
X223520000Y-119380000D03*
X226060000Y-119380000D03*
X226060000Y-88900000D03*
X223520000Y-88900000D03*
X220980000Y-88900000D03*
X218440000Y-88900000D03*
X215900000Y-88900000D03*
D18*
X226060000Y-54610000D03*
D19*
X223520000Y-54610000D03*
X220980000Y-54610000D03*
X218440000Y-54610000D03*
X215900000Y-54610000D03*
X213360000Y-54610000D03*
X210820000Y-54610000D03*
X208280000Y-54610000D03*
X208280000Y-62230000D03*
X210820000Y-62230000D03*
X213360000Y-62230000D03*
X215900000Y-62230000D03*
X218440000Y-62230000D03*
X220980000Y-62230000D03*
X223520000Y-62230000D03*
X226060000Y-62230000D03*
D20*
X242570000Y-49530000D03*
D21*
X236321600Y-49530000D03*
D22*
X239318800Y-44729400D03*
D20*
X242570000Y-69850000D03*
D21*
X236321600Y-69850000D03*
D22*
X239318800Y-65049400D03*
D23*
X242570000Y-120650000D03*
X53340000Y-120650000D03*
X53340000Y-24130000D03*
X242570000Y-24130000D03*
D24*
X109220000Y-50800000D03*
X118110000Y-50800000D03*
X123190000Y-35560000D03*
X113030000Y-35560000D03*
X83820000Y-31750000D03*
X91440000Y-31750000D03*
X88900000Y-31750000D03*
X86360000Y-31750000D03*
X205740000Y-52070000D03*
X109220000Y-48260000D03*
X120650000Y-48260000D03*
X128270000Y-38100000D03*
X207010000Y-48260000D03*
X129540000Y-48260000D03*
X157480000Y-48260000D03*
X190500000Y-48260000D03*
X68580000Y-48260000D03*
X96520000Y-48260000D03*
X213360000Y-25400000D03*
X215900000Y-26670000D03*
X218440000Y-27940000D03*
X220980000Y-29210000D03*
X223520000Y-30480000D03*
X226060000Y-31750000D03*
X228600000Y-33020000D03*
X107950000Y-38100000D03*
X76200000Y-67310000D03*
X68580000Y-64770000D03*
X76200000Y-86360000D03*
X73660000Y-83820000D03*
X73660000Y-68580000D03*
X66040000Y-64770000D03*
X104140000Y-67310000D03*
X96520000Y-64770000D03*
X104140000Y-86360000D03*
X101600000Y-83820000D03*
X101600000Y-68580000D03*
X93980000Y-64770000D03*
X137160000Y-67310000D03*
X129540000Y-64770000D03*
X137160000Y-86360000D03*
X134620000Y-83820000D03*
X134620000Y-68580000D03*
X127000000Y-64770000D03*
X165100000Y-67310000D03*
X157480000Y-64770000D03*
X165100000Y-86360000D03*
X162560000Y-83820000D03*
X162560000Y-68580000D03*
X154940000Y-64770000D03*
X198120000Y-67310000D03*
X190500000Y-64770000D03*
X198120000Y-86360000D03*
X195580000Y-83820000D03*
X195580000Y-68580000D03*
X187960000Y-64770000D03*
X226060000Y-67310000D03*
X218440000Y-64770000D03*
X226060000Y-86360000D03*
X223520000Y-83820000D03*
X223520000Y-68580000D03*
X215900000Y-64770000D03*
D25*
X226060000Y-20320000D02*
X228600000Y-20320000D01*
X223520000Y-20320000D02*
X226060000Y-20320000D01*
X220980000Y-20320000D02*
X223520000Y-20320000D01*
X218440000Y-20320000D02*
X220980000Y-20320000D01*
X215900000Y-20320000D02*
X218440000Y-20320000D01*
X213360000Y-20320000D02*
X215900000Y-20320000D01*
X213360000Y-20320000D02*
X228600000Y-20320000D01*
X228600000Y-20320000D02*
X233680000Y-20320000D01*
X233680000Y-38100000D02*
X239318800Y-43738800D01*
X233680000Y-35560000D02*
X233680000Y-38100000D01*
X233680000Y-20320000D02*
X233680000Y-35560000D01*
X239318800Y-43738800D02*
X239318800Y-44729400D01*
X237769400Y-44729400D02*
X239318800Y-44729400D01*
X118110000Y-50800000D02*
X109220000Y-50800000D01*
X220980000Y-54610000D02*
X220980000Y-55880000D01*
X226060000Y-60960000D02*
X226060000Y-62230000D01*
X220980000Y-55880000D02*
X226060000Y-60960000D01*
X193040000Y-54610000D02*
X193040000Y-55880000D01*
X198120000Y-60960000D02*
X198120000Y-62230000D01*
X193040000Y-55880000D02*
X198120000Y-60960000D01*
X160020000Y-54610000D02*
X160020000Y-55880000D01*
X165100000Y-60960000D02*
X165100000Y-62230000D01*
X160020000Y-55880000D02*
X165100000Y-60960000D01*
X132080000Y-54610000D02*
X132080000Y-55880000D01*
X137160000Y-60960000D02*
X137160000Y-62230000D01*
X132080000Y-55880000D02*
X137160000Y-60960000D01*
X104140000Y-62230000D02*
X104140000Y-60960000D01*
X99060000Y-55880000D02*
X99060000Y-54610000D01*
X104140000Y-60960000D02*
X99060000Y-55880000D01*
X76200000Y-62230000D02*
X76200000Y-60960000D01*
X71120000Y-55880000D02*
X71120000Y-54610000D01*
X76200000Y-60960000D02*
X71120000Y-55880000D01*
X118110000Y-35560000D02*
X123190000Y-35560000D01*
X113030000Y-35560000D02*
X113030000Y-35560000D01*
X113030000Y-35560000D02*
X118110000Y-35560000D01*
X181610000Y-43180000D02*
X182880000Y-44450000D01*
X151130000Y-34290000D02*
X160020000Y-43180000D01*
X160020000Y-43180000D02*
X172720000Y-43180000D01*
X172720000Y-43180000D02*
X181610000Y-43180000D01*
X151130000Y-31750000D02*
X151130000Y-34290000D01*
X182880000Y-44450000D02*
X182880000Y-54610000D01*
X60960000Y-49530000D02*
X60960000Y-54610000D01*
X67310000Y-43180000D02*
X60960000Y-49530000D01*
X81280000Y-43180000D02*
X67310000Y-43180000D01*
X83820000Y-31750000D02*
X83820000Y-40640000D01*
X83820000Y-40640000D02*
X81280000Y-43180000D01*
X158750000Y-31750000D02*
X158750000Y-33020000D01*
X198120000Y-46990000D02*
X198120000Y-54610000D01*
X190500000Y-39370000D02*
X198120000Y-46990000D01*
X165100000Y-39370000D02*
X190500000Y-39370000D01*
X158750000Y-33020000D02*
X165100000Y-39370000D01*
X77470000Y-54610000D02*
X76200000Y-54610000D01*
X91440000Y-31750000D02*
X91440000Y-40640000D01*
X91440000Y-40640000D02*
X77470000Y-54610000D01*
X195580000Y-54610000D02*
X195580000Y-46990000D01*
X156210000Y-33020000D02*
X156210000Y-31750000D01*
X163830000Y-40640000D02*
X156210000Y-33020000D01*
X189230000Y-40640000D02*
X163830000Y-40640000D01*
X195580000Y-46990000D02*
X189230000Y-40640000D01*
X73660000Y-53340000D02*
X73660000Y-54610000D01*
X74930000Y-52070000D02*
X73660000Y-53340000D01*
X77470000Y-52070000D02*
X74930000Y-52070000D01*
X88900000Y-31750000D02*
X88900000Y-40640000D01*
X88900000Y-40640000D02*
X77470000Y-52070000D01*
X185420000Y-54610000D02*
X185420000Y-44450000D01*
X153670000Y-34290000D02*
X161290000Y-41910000D01*
X161290000Y-41910000D02*
X182880000Y-41910000D01*
X182880000Y-41910000D02*
X185420000Y-44450000D01*
X153670000Y-34290000D02*
X153670000Y-31750000D01*
X63500000Y-49530000D02*
X63500000Y-54610000D01*
X67310000Y-45720000D02*
X63500000Y-49530000D01*
X81280000Y-45720000D02*
X67310000Y-45720000D01*
X86360000Y-31750000D02*
X86360000Y-40640000D01*
X86360000Y-40640000D02*
X81280000Y-45720000D01*
X161290000Y-33020000D02*
X161290000Y-31750000D01*
X166370000Y-38100000D02*
X161290000Y-33020000D01*
X191770000Y-38100000D02*
X166370000Y-38100000D01*
X205740000Y-52070000D02*
X191770000Y-38100000D01*
X88900000Y-54610000D02*
X88900000Y-45720000D01*
X135890000Y-26670000D02*
X135890000Y-29210000D01*
X132080000Y-22860000D02*
X135890000Y-26670000D01*
X111760000Y-22860000D02*
X132080000Y-22860000D01*
X88900000Y-45720000D02*
X111760000Y-22860000D01*
X195580000Y-31750000D02*
X168910000Y-31750000D01*
X212090000Y-48260000D02*
X195580000Y-31750000D01*
X223520000Y-48260000D02*
X212090000Y-48260000D01*
X226060000Y-54610000D02*
X226060000Y-50800000D01*
X226060000Y-50800000D02*
X223520000Y-48260000D01*
X104140000Y-54610000D02*
X104140000Y-38100000D01*
X128270000Y-26670000D02*
X128270000Y-29210000D01*
X115570000Y-26670000D02*
X128270000Y-26670000D01*
X104140000Y-38100000D02*
X115570000Y-26670000D01*
X195580000Y-34290000D02*
X167640000Y-34290000D01*
X220980000Y-49530000D02*
X210820000Y-49530000D01*
X210820000Y-49530000D02*
X195580000Y-34290000D01*
X167640000Y-34290000D02*
X166370000Y-33020000D01*
X166370000Y-31750000D02*
X166370000Y-33020000D01*
X220980000Y-49530000D02*
X223520000Y-52070000D01*
X223520000Y-52070000D02*
X223520000Y-54610000D01*
X130810000Y-29210000D02*
X130810000Y-26670000D01*
X101600000Y-38100000D02*
X101600000Y-54610000D01*
X114300000Y-25400000D02*
X101600000Y-38100000D01*
X130810000Y-26670000D02*
X129540000Y-25400000D01*
X129540000Y-25400000D02*
X114300000Y-25400000D01*
X213360000Y-54610000D02*
X213360000Y-52070000D01*
X163830000Y-33020000D02*
X163830000Y-31750000D01*
X167640000Y-36830000D02*
X163830000Y-33020000D01*
X193040000Y-36830000D02*
X167640000Y-36830000D01*
X208280000Y-52070000D02*
X193040000Y-36830000D01*
X213360000Y-52070000D02*
X208280000Y-52070000D01*
X133350000Y-29210000D02*
X133350000Y-26670000D01*
X91440000Y-45720000D02*
X91440000Y-54610000D01*
X113030000Y-24130000D02*
X91440000Y-45720000D01*
X130810000Y-24130000D02*
X113030000Y-24130000D01*
X133350000Y-26670000D02*
X130810000Y-24130000D01*
X109220000Y-48260000D02*
X120650000Y-48260000D01*
X128270000Y-31750000D02*
X128270000Y-38100000D01*
X215900000Y-50800000D02*
X209550000Y-50800000D01*
X209550000Y-50800000D02*
X207010000Y-48260000D01*
X215900000Y-50800000D02*
X218440000Y-53340000D01*
X218440000Y-53340000D02*
X218440000Y-54610000D01*
X129540000Y-48260000D02*
X129540000Y-54610000D01*
X190500000Y-54610000D02*
X190500000Y-48260000D01*
X157480000Y-48260000D02*
X157480000Y-54610000D01*
X68580000Y-48260000D02*
X68580000Y-54610000D01*
X96520000Y-48260000D02*
X96520000Y-54610000D01*
X130810000Y-31750000D02*
X130810000Y-38100000D01*
X121920000Y-46990000D02*
X121920000Y-54610000D01*
X127000000Y-41910000D02*
X121920000Y-46990000D01*
X130810000Y-38100000D02*
X127000000Y-41910000D01*
X213360000Y-22860000D02*
X213360000Y-25400000D01*
X213360000Y-25400000D02*
X213360000Y-35560000D01*
X138430000Y-31750000D02*
X138430000Y-43180000D01*
X137160000Y-44450000D02*
X137160000Y-54610000D01*
X138430000Y-43180000D02*
X137160000Y-44450000D01*
X215900000Y-22860000D02*
X215900000Y-26670000D01*
X215900000Y-26670000D02*
X215900000Y-35560000D01*
X135890000Y-31750000D02*
X135890000Y-41910000D01*
X134620000Y-43180000D02*
X134620000Y-54610000D01*
X135890000Y-41910000D02*
X134620000Y-43180000D01*
X218440000Y-22860000D02*
X218440000Y-27940000D01*
X218440000Y-27940000D02*
X218440000Y-35560000D01*
X133350000Y-31750000D02*
X133350000Y-39370000D01*
X124460000Y-48260000D02*
X124460000Y-54610000D01*
X129540000Y-43180000D02*
X124460000Y-48260000D01*
X133350000Y-39370000D02*
X129540000Y-43180000D01*
X220980000Y-22860000D02*
X220980000Y-29210000D01*
X220980000Y-29210000D02*
X220980000Y-35560000D01*
X140970000Y-31750000D02*
X140970000Y-34290000D01*
X149860000Y-43180000D02*
X149860000Y-54610000D01*
X140970000Y-34290000D02*
X149860000Y-43180000D01*
X223520000Y-22860000D02*
X223520000Y-30480000D01*
X223520000Y-30480000D02*
X223520000Y-35560000D01*
X148590000Y-31750000D02*
X148590000Y-34290000D01*
X165100000Y-46990000D02*
X165100000Y-54610000D01*
X158750000Y-44450000D02*
X162560000Y-44450000D01*
X162560000Y-44450000D02*
X165100000Y-46990000D01*
X148590000Y-34290000D02*
X158750000Y-44450000D01*
X226060000Y-22860000D02*
X226060000Y-31750000D01*
X226060000Y-31750000D02*
X226060000Y-35560000D01*
X146050000Y-31750000D02*
X146050000Y-34290000D01*
X162560000Y-48260000D02*
X162560000Y-54610000D01*
X157480000Y-45720000D02*
X160020000Y-45720000D01*
X160020000Y-45720000D02*
X162560000Y-48260000D01*
X146050000Y-34290000D02*
X157480000Y-45720000D01*
X228600000Y-33020000D02*
X228600000Y-35560000D01*
X228600000Y-22860000D02*
X228600000Y-33020000D01*
X143510000Y-31750000D02*
X143510000Y-34290000D01*
X152400000Y-43180000D02*
X152400000Y-54610000D01*
X143510000Y-34290000D02*
X152400000Y-43180000D01*
X151130000Y-29210000D02*
X151130000Y-26670000D01*
X72390000Y-30480000D02*
X68580000Y-30480000D01*
X82550000Y-20320000D02*
X72390000Y-30480000D01*
X144780000Y-20320000D02*
X82550000Y-20320000D01*
X151130000Y-26670000D02*
X144780000Y-20320000D01*
X148590000Y-29210000D02*
X148590000Y-26670000D01*
X72390000Y-33020000D02*
X68580000Y-33020000D01*
X83820000Y-21590000D02*
X72390000Y-33020000D01*
X143510000Y-21590000D02*
X83820000Y-21590000D01*
X148590000Y-26670000D02*
X143510000Y-21590000D01*
X125730000Y-31750000D02*
X125730000Y-36830000D01*
X124460000Y-38100000D02*
X107950000Y-38100000D01*
X125730000Y-36830000D02*
X124460000Y-38100000D01*
X68580000Y-27940000D02*
X66040000Y-27940000D01*
X58420000Y-35560000D02*
X53340000Y-35560000D01*
X66040000Y-27940000D02*
X58420000Y-35560000D01*
X63500000Y-81280000D02*
X63500000Y-109220000D01*
X63500000Y-109220000D02*
X73660000Y-119380000D01*
X63500000Y-62230000D02*
X63500000Y-71120000D01*
X68580000Y-81280000D02*
X68580000Y-88900000D01*
X73660000Y-62230000D02*
X73660000Y-64770000D01*
X68580000Y-69850000D02*
X68580000Y-71120000D01*
X69850000Y-68580000D02*
X68580000Y-69850000D01*
X73660000Y-64770000D02*
X69850000Y-68580000D01*
X60960000Y-81280000D02*
X60960000Y-111760000D01*
X60960000Y-111760000D02*
X68580000Y-119380000D01*
X60960000Y-62230000D02*
X60960000Y-71120000D01*
X66040000Y-81280000D02*
X66040000Y-88900000D01*
X71120000Y-62230000D02*
X71120000Y-64770000D01*
X66040000Y-69850000D02*
X66040000Y-71120000D01*
X68580000Y-67310000D02*
X66040000Y-69850000D01*
X71120000Y-64770000D02*
X68580000Y-67310000D01*
X58420000Y-111760000D02*
X66040000Y-119380000D01*
X58420000Y-81280000D02*
X58420000Y-111760000D01*
X58420000Y-71120000D02*
X58420000Y-62230000D01*
X76200000Y-81280000D02*
X76200000Y-83820000D01*
X73660000Y-86360000D02*
X73660000Y-88900000D01*
X76200000Y-83820000D02*
X73660000Y-86360000D01*
X68580000Y-62230000D02*
X68580000Y-64770000D01*
X76200000Y-67310000D02*
X76200000Y-71120000D01*
X73660000Y-81280000D02*
X73660000Y-83820000D01*
X76200000Y-86360000D02*
X76200000Y-88900000D01*
X66040000Y-62230000D02*
X66040000Y-64770000D01*
X73660000Y-68580000D02*
X73660000Y-71120000D01*
X91440000Y-81280000D02*
X91440000Y-109220000D01*
X91440000Y-109220000D02*
X101600000Y-119380000D01*
X91440000Y-62230000D02*
X91440000Y-71120000D01*
X96520000Y-81280000D02*
X96520000Y-88900000D01*
X101600000Y-62230000D02*
X101600000Y-64770000D01*
X96520000Y-69850000D02*
X96520000Y-71120000D01*
X101600000Y-64770000D02*
X96520000Y-69850000D01*
X88900000Y-81280000D02*
X88900000Y-111760000D01*
X88900000Y-111760000D02*
X96520000Y-119380000D01*
X88900000Y-62230000D02*
X88900000Y-71120000D01*
X93980000Y-81280000D02*
X93980000Y-88900000D01*
X99060000Y-62230000D02*
X99060000Y-64770000D01*
X93980000Y-69850000D02*
X93980000Y-71120000D01*
X99060000Y-64770000D02*
X93980000Y-69850000D01*
X86360000Y-81280000D02*
X86360000Y-111760000D01*
X86360000Y-111760000D02*
X93980000Y-119380000D01*
X86360000Y-62230000D02*
X86360000Y-71120000D01*
X104140000Y-81280000D02*
X104140000Y-83820000D01*
X101600000Y-86360000D02*
X101600000Y-88900000D01*
X104140000Y-83820000D02*
X101600000Y-86360000D01*
X96520000Y-62230000D02*
X96520000Y-64770000D01*
X104140000Y-67310000D02*
X104140000Y-71120000D01*
X101600000Y-81280000D02*
X101600000Y-83820000D01*
X104140000Y-86360000D02*
X104140000Y-88900000D01*
X93980000Y-62230000D02*
X93980000Y-64770000D01*
X101600000Y-68580000D02*
X101600000Y-71120000D01*
X124460000Y-81280000D02*
X124460000Y-109220000D01*
X124460000Y-109220000D02*
X134620000Y-119380000D01*
X124460000Y-62230000D02*
X124460000Y-71120000D01*
X129540000Y-81280000D02*
X129540000Y-88900000D01*
X134620000Y-62230000D02*
X134620000Y-64770000D01*
X129540000Y-69850000D02*
X129540000Y-71120000D01*
X134620000Y-64770000D02*
X129540000Y-69850000D01*
X121920000Y-81280000D02*
X121920000Y-111760000D01*
X121920000Y-111760000D02*
X129540000Y-119380000D01*
X121920000Y-62230000D02*
X121920000Y-71120000D01*
X127000000Y-81280000D02*
X127000000Y-88900000D01*
X132080000Y-62230000D02*
X132080000Y-64770000D01*
X127000000Y-69850000D02*
X127000000Y-71120000D01*
X132080000Y-64770000D02*
X127000000Y-69850000D01*
X119380000Y-81280000D02*
X119380000Y-111760000D01*
X119380000Y-111760000D02*
X127000000Y-119380000D01*
X119380000Y-62230000D02*
X119380000Y-71120000D01*
X137160000Y-81280000D02*
X137160000Y-83820000D01*
X134620000Y-86360000D02*
X134620000Y-88900000D01*
X137160000Y-83820000D02*
X134620000Y-86360000D01*
X129540000Y-62230000D02*
X129540000Y-64770000D01*
X137160000Y-67310000D02*
X137160000Y-71120000D01*
X134620000Y-81280000D02*
X134620000Y-83820000D01*
X137160000Y-86360000D02*
X137160000Y-88900000D01*
X127000000Y-62230000D02*
X127000000Y-64770000D01*
X134620000Y-68580000D02*
X134620000Y-71120000D01*
X152400000Y-81280000D02*
X152400000Y-109220000D01*
X152400000Y-109220000D02*
X162560000Y-119380000D01*
X152400000Y-62230000D02*
X152400000Y-71120000D01*
X157480000Y-81280000D02*
X157480000Y-88900000D01*
X162560000Y-62230000D02*
X162560000Y-64770000D01*
X157480000Y-69850000D02*
X157480000Y-71120000D01*
X162560000Y-64770000D02*
X157480000Y-69850000D01*
X149860000Y-81280000D02*
X149860000Y-111760000D01*
X149860000Y-111760000D02*
X157480000Y-119380000D01*
X149860000Y-62230000D02*
X149860000Y-71120000D01*
X154940000Y-81280000D02*
X154940000Y-88900000D01*
X160020000Y-62230000D02*
X160020000Y-64770000D01*
X154940000Y-69850000D02*
X154940000Y-71120000D01*
X160020000Y-64770000D02*
X154940000Y-69850000D01*
X147320000Y-81280000D02*
X147320000Y-111760000D01*
X147320000Y-111760000D02*
X154940000Y-119380000D01*
X147320000Y-62230000D02*
X147320000Y-71120000D01*
X165100000Y-81280000D02*
X165100000Y-83820000D01*
X162560000Y-86360000D02*
X162560000Y-88900000D01*
X165100000Y-83820000D02*
X162560000Y-86360000D01*
X157480000Y-62230000D02*
X157480000Y-64770000D01*
X165100000Y-67310000D02*
X165100000Y-71120000D01*
X162560000Y-81280000D02*
X162560000Y-83820000D01*
X165100000Y-86360000D02*
X165100000Y-88900000D01*
X154940000Y-62230000D02*
X154940000Y-64770000D01*
X162560000Y-68580000D02*
X162560000Y-71120000D01*
X185420000Y-81280000D02*
X185420000Y-109220000D01*
X185420000Y-109220000D02*
X195580000Y-119380000D01*
X185420000Y-62230000D02*
X185420000Y-71120000D01*
X190500000Y-81280000D02*
X190500000Y-88900000D01*
X195580000Y-62230000D02*
X195580000Y-64770000D01*
X190500000Y-69850000D02*
X190500000Y-71120000D01*
X195580000Y-64770000D02*
X190500000Y-69850000D01*
X182880000Y-81280000D02*
X182880000Y-111760000D01*
X182880000Y-111760000D02*
X190500000Y-119380000D01*
X182880000Y-62230000D02*
X182880000Y-71120000D01*
X187960000Y-81280000D02*
X187960000Y-88900000D01*
X193040000Y-62230000D02*
X193040000Y-64770000D01*
X187960000Y-69850000D02*
X187960000Y-71120000D01*
X193040000Y-64770000D02*
X187960000Y-69850000D01*
X180340000Y-81280000D02*
X180340000Y-111760000D01*
X180340000Y-111760000D02*
X187960000Y-119380000D01*
X180340000Y-62230000D02*
X180340000Y-71120000D01*
X198120000Y-81280000D02*
X198120000Y-83820000D01*
X195580000Y-86360000D02*
X195580000Y-88900000D01*
X198120000Y-83820000D02*
X195580000Y-86360000D01*
X190500000Y-62230000D02*
X190500000Y-64770000D01*
X198120000Y-67310000D02*
X198120000Y-71120000D01*
X195580000Y-81280000D02*
X195580000Y-83820000D01*
X198120000Y-86360000D02*
X198120000Y-88900000D01*
X187960000Y-62230000D02*
X187960000Y-64770000D01*
X195580000Y-68580000D02*
X195580000Y-71120000D01*
X213360000Y-81280000D02*
X213360000Y-109220000D01*
X213360000Y-109220000D02*
X223520000Y-119380000D01*
X213360000Y-62230000D02*
X213360000Y-71120000D01*
X218440000Y-81280000D02*
X218440000Y-88900000D01*
X223520000Y-62230000D02*
X223520000Y-64770000D01*
X218440000Y-69850000D02*
X218440000Y-71120000D01*
X223520000Y-64770000D02*
X218440000Y-69850000D01*
X210820000Y-81280000D02*
X210820000Y-111760000D01*
X210820000Y-111760000D02*
X218440000Y-119380000D01*
X210820000Y-62230000D02*
X210820000Y-71120000D01*
X215900000Y-81280000D02*
X215900000Y-88900000D01*
X220980000Y-62230000D02*
X220980000Y-64770000D01*
X215900000Y-69850000D02*
X215900000Y-71120000D01*
X220980000Y-64770000D02*
X215900000Y-69850000D01*
X208280000Y-81280000D02*
X208280000Y-111760000D01*
X208280000Y-111760000D02*
X215900000Y-119380000D01*
X208280000Y-62230000D02*
X208280000Y-71120000D01*
X226060000Y-81280000D02*
X226060000Y-83820000D01*
X223520000Y-86360000D02*
X223520000Y-88900000D01*
X226060000Y-83820000D02*
X223520000Y-86360000D01*
X218440000Y-62230000D02*
X218440000Y-64770000D01*
X226060000Y-67310000D02*
X226060000Y-71120000D01*
X223520000Y-81280000D02*
X223520000Y-83820000D01*
X226060000Y-86360000D02*
X226060000Y-88900000D01*
X215900000Y-62230000D02*
X215900000Y-64770000D01*
X223520000Y-68580000D02*
X223520000Y-71120000D01*
M02*
